<?xml version="1.0" encoding="utf-8"?>
<!-- Generator: Adobe Illustrator 24.0.2, SVG Export Plug-In . SVG Version: 6.00 Build 0)  -->
<svg version="1.1" id="图层_1" xmlns="http://www.w3.org/2000/svg" xmlns:xlink="http://www.w3.org/1999/xlink" x="0px" y="0px"
	 viewBox="0 0 239.6 75.8" style="enable-background:new 0 0 239.6 75.8;" xml:space="preserve">
<style type="text/css">
	.st0{fill:#1761FF;}
	.st1{fill:#FFFFFF;}
</style>
<g>
	<path class="st0" d="M27.2,22.5V8c0.6,0.1,1.3,0.3,1.8,0.7l19.5,11.3c2,1.2,3.1,3.2,3.1,5.4v22.5c0,0.7-0.1,1.3-0.3,2l-12.6-7.3
		V29.2L27.2,22.5z M13.1,29.2l11.5-6.7V8c-0.6,0.1-1.3,0.3-1.8,0.7L3.4,19.8c-2,1.2-3.1,3.2-3.1,5.4v22.5c0,0.7,0.1,1.3,0.3,2
		l12.6-7.3V29.2H13.1z M26,51.4l-11.5-6.7L1.9,52c0.5,0.5,0.9,0.9,1.5,1.3l19.5,11.3c2,1.2,4.3,1.2,6.2,0l19.5-11.3
		c0.6-0.3,1-0.7,1.5-1.3l-12.6-7.3L26,51.4z"/>
</g>
<g>
	<path class="st1" d="M67.9,19.7h7v11.4h12.6h7v19.4h-7V36.7H75.1v13.8h-7.1V19.7z"/>
	<path class="st1" d="M107.3,25.1h-8.4v-5.4h24v5.4h-8.4v25.3h-7.1V25.1z"/>
	<path class="st1" d="M127.2,19.7h7v11.4h12.6V19.7h7v30.8h-7V36.7h-12.6v13.8h-7V19.7z"/>
	<path class="st1" d="M160.6,19.7h7.1v30.8h-7.1V19.7z"/>
	<path class="st1" d="M174.4,38.5V19.7h7.1V38c0,5.1,1.5,7.4,5.8,7.4c4.1,0,6-2,6-7.6V19.7h7.1v18.4c0,8.4-4.7,12.7-13.1,12.7
		C179.1,50.9,174.4,46.7,174.4,38.5z"/>
	<path class="st1" d="M206.8,19.7h9.3l7.3,19.1l7.1-19.1h9.1v30.8h-7V28.9L224,50.5h-2.3l-8.6-21.5v21.5h-6.3V19.7H206.8z"/>
</g>
<rect x="87.5" y="19.7" class="st1" width="7" height="6.9"/>
</svg>
