<svg xmlns="http://www.w3.org/2000/svg" xmlns:xlink="http://www.w3.org/1999/xlink" fill="none" version="1.1" width="52"
  height="52" viewBox="0 0 52 52">
  <defs>
    <linearGradient x1="1.1102230246251565e-16" y1="1.1102230246251565e-16" x2="0.9995603610499421"
      y2="1.0004392527246955" id="master_svg0_9352_47194">
      <stop offset="0%" stop-color="#1761FF" stop-opacity="1" />
      <stop offset="100%" stop-color="#008DFC" stop-opacity="1" />
    </linearGradient>
    <clipPath id="master_svg1_9362_49837">
      <rect x="0" y="0" width="51.187503814697266" height="51.21000289916992" rx="25.593751907348633" />
    </clipPath>
    <clipPath id="master_svg2_9362_49838">
      <rect x="14.21875" y="14.2249755859375" width="22.750001907348633" height="22.760000228881836" rx="0" />
    </clipPath>
  </defs>
  <g>
    <g>
      <g clip-path="url(#master_svg1_9362_49837)">
        <rect x="0" y="0" width="51.187503814697266" height="51.21000289916992" rx="25.593751907348633"
          fill="url(#master_svg0_9352_47194)" fill-opacity="1" />
        <g clip-path="url(#master_svg2_9362_49838)">
          <g>
            <path
              d="M28.227487500000002,36.12252421875Q28.356987500000002,36.09012421875,28.474487500000002,36.02682421875Q28.591987500000002,35.963524218749995,28.6901875,35.873224218749996Q28.788487500000002,35.78282421875,28.861487500000003,35.671124218749995Q28.9343875,35.55932421875,28.9775875,35.43302421875L35.136587500000005,17.41471221875Q35.2051875,17.21401321875,35.191787500000004,17.00233891875Q35.1783875,16.79066421875,35.0848875,16.60024021875Q34.991487500000005,16.40981521875,34.832387499999996,16.26963121875Q34.6731875,16.12944721875,34.4724875,16.06084421875Q34.2977875,16.00113421875,34.113187499999995,16.00362421875Q33.928687499999995,16.00611421875,33.7556875,16.07051121875L15.7452195,22.77442421875Q15.5464435,22.84841421875,15.3911125,22.992834218749998Q15.2357825,23.13726421875,15.1475445,23.33013421875Q15.0593075,23.52300421875,15.0515975,23.73496421875Q15.0438875,23.94692421875,15.1178745,24.145704218749998Q15.1657115,24.27422421875,15.2445125,24.38645421875Q15.3233125,24.49868421875,15.427946500000001,24.58733421875Q15.5325805,24.67597421875,15.6562385,24.73525421875Q15.7798965,24.79453421875,15.9145305,24.82059421875L24.726847499999998,26.52653421875L26.9341875,35.34702421875Q26.946887500000003,35.39782421875,26.9645875,35.447124218750005Q26.982187500000002,35.49652421875,27.0045875,35.543824218750004Q27.0269875,35.59122421875,27.053887500000002,35.63612421875Q27.0807875,35.68112421875,27.111987499999998,35.72312421875Q27.1431875,35.76522421875,27.1783875,35.80402421875Q27.2135875,35.84292421875,27.252387499999998,35.87802421875Q27.2911875,35.91322421875,27.3331875,35.944524218750004Q27.3752875,35.97572421875,27.4201875,36.00262421875Q27.4651875,36.02952421875,27.5124875,36.05202421875Q27.559887500000002,36.074424218749996,27.6091875,36.09202421875Q27.6584875,36.10972421875,27.709287500000002,36.12242421875Q27.760087499999997,36.13522421875,27.811887499999997,36.14292421875Q27.863687499999997,36.150624218749996,27.9160875,36.15312421875Q27.9683875,36.155724218749995,28.0206875,36.15322421875Q28.0729875,36.150624218749996,28.1248875,36.14292421875Q28.1766875,36.13532421875,28.227487500000002,36.12252421875ZM28.126887500000002,31.32842421875L32.390887500000005,18.85405421875L20.047597500000002,23.44851421875L25.799007500000002,24.56190421875Q25.9484575,24.59083421875,26.0838375,24.66041421875Q26.2191875,24.73000421875,26.3296875,24.834694218750002Q26.4401875,24.93938421875,26.5169875,25.07081421875Q26.593787499999998,25.20223421875,26.6307875,25.349904218749998L28.126887500000002,31.32842421875Z"
              fill-rule="evenodd" fill="#FFFFFF" fill-opacity="1" />
          </g>
          <g>
            <path
              d="M29.02807,23.6796608125Q29.17779,23.5298768125,29.25881,23.3342078125Q29.33984,23.1385388125,29.33984,22.9267578125Q29.33984,22.8744377125,29.33471,22.8223698125Q29.32958,22.7703018125,29.31937,22.7189868125Q29.30917,22.6676718125,29.29398,22.6176048125Q29.27879,22.5675378125,29.25877,22.5191998125Q29.23875,22.4708628125,29.21408,22.4247198125Q29.18942,22.3785778125,29.16035,22.3350758125Q29.13129,22.2915728125,29.09809,22.2511288125Q29.0649,22.2106848125,29.02791,22.1736888125Q28.99091,22.1366928125,28.95047,22.1035018125Q28.91002,22.0703098125,28.86652,22.0412428125Q28.82302,22.0121748125,28.77687,21.9875118125Q28.73073,21.9628478125,28.682389999999998,21.9428258125Q28.634059999999998,21.9228078125,28.58399,21.9076178125Q28.533920000000002,21.8924278125,28.48261,21.8822178125Q28.43129,21.8720178125,28.37923,21.8668878125Q28.32716,21.8617578125,28.27484,21.8617578125Q28.06294,21.8617578125,27.86717,21.9428708125Q27.67141,22.0239838125,27.5216,22.1738548125L27.520690000000002,22.1729378125L24.839599,24.8552078125L24.840516,24.8561178125Q24.690797,25.0059078125,24.609773,25.2015778125Q24.52875,25.3972378125,24.52875,25.6090278125Q24.52875,25.6613478125,24.53388,25.7134078125Q24.53901,25.7654778125,24.54921,25.8167978125Q24.55942,25.8681078125,24.57461,25.9181778125Q24.5898,25.9682478125,24.609818,26.0165778125Q24.62984,26.0649178125,24.654504,26.1110578125Q24.679167,26.1572078125,24.708235,26.2007078125Q24.737302,26.2442078125,24.770494,26.2846478125Q24.803685,26.3250978125,24.840681,26.3620878125Q24.877677,26.3990878125,24.918121,26.4322778125Q24.958565,26.465467812500002,25.002068,26.4945378125Q25.04557,26.5236078125,25.091712,26.5482678125Q25.137855,26.5729378125,25.186192,26.5929578125Q25.23453,26.6129778125,25.284597,26.6281678125Q25.334664,26.6433578125,25.385979,26.6535578125Q25.437294,26.6637678125,25.489362,26.6688978125Q25.5414299,26.6740278125,25.59375,26.6740278125Q25.805652,26.6740278125,26.001416,26.592907812500002Q26.197179,26.5117978125,26.346984,26.3619278125L26.347901,26.3628478125L29.02899,23.6805778125L29.02807,23.6796608125Z"
              fill-rule="evenodd" fill="#FFFFFF" fill-opacity="1" />
          </g>
        </g>
      </g>
    </g>
  </g>
</svg>