<svg xmlns="http://www.w3.org/2000/svg" xmlns:xlink="http://www.w3.org/1999/xlink" fill="none" version="1.1" width="50" height="50" viewBox="0 0 50 50"><g><g><path d="M45.3998046875,19.599800000000002C45.3998046875,20.3177,44.8177046875,20.8998,44.0998046875,20.8998L41.4990046875,20.8998L41.4990046875,23.5002L44.0998046875,23.5002C44.8177046875,23.5002,45.3994046875,24.0819,45.3994046875,24.7998C45.3994046875,25.5177,44.8173046875,26.0994,44.0998046875,26.0994L41.4990046875,26.0994L41.4990046875,28.7002L44.0998046875,28.7002C44.8177046875,28.7002,45.3994046875,29.2819,45.3994046875,29.9998C45.3994046875,30.7176,44.8173046875,31.2993,44.0998046875,31.2993L41.4990046875,31.2993L41.4990046875,33.900099999999995L44.0998046875,33.900099999999995C44.8177046875,33.900099999999995,45.3994046875,34.4818,45.3994046875,35.1997C45.3994046875,35.9176,44.8173046875,36.4993,44.0998046875,36.4993L41.4990046875,36.4993L41.4990046875,40.3997C41.4998046875,40.7444,41.3628046875,41.0753,41.1189046875,41.3191C40.8750046875,41.5631,40.5442046875,41.7,40.1994046875,41.6992L36.2995046875,41.6992L36.2995046875,44.3C36.2995046875,45.0179,35.7174046875,45.6,34.9995046875,45.6C34.2816046875,45.6,33.699504687499996,45.0179,33.699504687499996,44.3L33.699504687499996,41.6992L31.0995046875,41.6992L31.0995046875,44.3C31.0995046875,45.0179,30.5174046875,45.6,29.7995046875,45.6C29.0817046875,45.6,28.4996046875,45.0179,28.4996046875,44.3L28.4996046875,41.6992L25.8996046875,41.6992L25.8996046875,44.3C25.8996046875,45.0179,25.3175046875,45.6,24.5996046875,45.6C23.8817046875,45.6,23.2996046875,45.0179,23.2996046875,44.3L23.2996046875,41.6992L20.6996046875,41.6992L20.6996046875,44.3C20.6996046875,45.0179,20.1179046875,45.6,19.399604687500002,45.6C18.681804687499998,45.6,18.0997046875,45.0179,18.0997046875,44.3L18.0997046875,41.6992L15.4997046875,41.6992L15.4997046875,44.3C15.4997046875,45.0179,14.9180046875,45.6,14.1997046875,45.6C13.4818246875,45.6,12.8997146875,45.0179,12.8997146875,44.3L12.8997146875,41.6992L8.999754687500001,41.6992C8.6550446875,41.6996,8.3241546875,41.5626,8.0802546875,41.3191C7.8363546875,41.0753,7.6994646875,40.7445,7.6997646875,40.3997L7.6997646875,36.4993L5.0997946875,36.4993C4.3819126875,36.4993,3.8002112425,35.9172,3.8002112425,35.1997C3.8002112425,34.4822,4.3819126875,33.900099999999995,5.0997946875,33.900099999999995L7.6997646875,33.900099999999995L7.6997646875,31.2993L5.0997946875,31.2993C4.3819126875,31.2993,3.8002111965,30.7176,3.8002111965,29.9997C3.8002111965,29.2819,4.3819126875,28.7002,5.0997946875,28.7002L7.6997646875,28.7002L7.6997646875,26.0994L5.0997946875,26.0994C4.3819126875,26.0994,3.8002111965,25.5173,3.8002111965,24.7998C3.8002111965,24.0819,4.3819126875,23.5002,5.0997946875,23.5002L7.6997646875,23.5002L7.6997646875,20.8998L5.0997946875,20.8998C4.3819126875,20.8998,3.7998046875,20.3181,3.7998046875,19.599899999999998C3.7998046875,18.881999999999998,4.3815066875,18.2999,5.0997946875,18.2999L7.6997646875,18.2999L7.6997646875,15.6999L5.0997946875,15.6999C4.3819126875,15.6999,3.7998046875,15.1178,3.7998046875,14.3999C3.7998046875,13.68202,4.3815066875,13.09991,5.0997946875,13.09991L7.6997646875,13.09991L7.6997646875,9.199950000000001C7.6997646875,8.85524,7.8363546875,8.52435,8.0802546875,8.28045C8.3241546875,8.03655,8.6550446875,7.89996,8.999754687500001,7.89996L12.8997146875,7.89996L12.8997146875,5.29999C12.8997146875,4.582108,13.4818246875,4,14.1997046875,4C14.9176046875,4,15.4997046875,4.581702,15.4997046875,5.29999L15.4997046875,7.89996L18.0997046875,7.89996L18.0997046875,5.29999C18.0997046875,4.582108,18.681804687499998,4,19.399604687500002,4C20.1175046875,4,20.6996046875,4.581702,20.6996046875,5.29999L20.6996046875,7.89996L23.2996046875,7.89996L23.2996046875,5.29999C23.2996046875,4.582108,23.8813046875,4,24.5996046875,4C25.3175046875,4,25.8996046875,4.581702,25.8996046875,5.29999L25.8996046875,7.89996L28.4996046875,7.89996L28.4996046875,5.29999C28.4996046875,4.582108,29.0813046875,4,29.7996046875,4C30.5174046875,4,31.0995046875,4.581702,31.0995046875,5.29999L31.0995046875,7.89996L33.699504687499996,7.89996L33.699504687499996,5.29999C33.699504687499996,4.582108,34.2812046875,4,34.9995046875,4C35.7174046875,4,36.2995046875,4.581702,36.2995046875,5.29999L36.2995046875,7.89996L40.1995046875,7.89996C40.5442046875,7.89955,40.8751046875,8.03655,41.1190046875,8.28045C41.3624046875,8.52435,41.4994046875,8.85524,41.4990046875,9.199950000000001L41.4990046875,13.09991L44.0998046875,13.09991C44.8177046875,13.09991,45.3998046875,13.68202,45.3998046875,14.3999C45.3998046875,15.1178,44.8177046875,15.6999,44.0998046875,15.6999L41.4990046875,15.6999L41.4990046875,18.2999L44.0998046875,18.2999C44.8177046875,18.2999,45.3998046875,18.881999999999998,45.3998046875,19.599800000000002ZM13.2546646875,33.120000000000005C12.6280746875,33.120000000000005,12.1201146875,32.654399999999995,12.1201146875,32.08C12.1201146875,31.5057,12.6280746875,31.04,13.2546646875,31.04L15.9435046875,31.04L18.4764046875,26.4433C18.8707046875,25.7278,19.9627046875,25.6726,20.4397046875,26.3445L21.4869046875,27.8161L25.3926046875,18.197200000000002C25.7908046875,17.2165,27.3417046875,17.3288,27.5675046875,18.3542L28.7123046875,23.5453L29.7578046875,21.4253C30.1344046875,20.6609,31.2928046875,20.599,31.7642046875,21.3182L33.4036046875,23.8178L35.9456046875,23.8178C36.5722046875,23.8178,37.0801046875,24.2834,37.0801046875,24.8578C37.0801046875,25.4322,36.5722046875,25.8978,35.9456046875,25.8978L32.7615046875,25.8978C32.363304687500005,25.8977,31.9942046875,25.7063,31.7892046875,25.3934L30.9343046875,24.0898L29.3312046875,27.3403C28.8773046875,28.2607,27.4036046875,28.1078,27.1852046875,27.1182L26.1317046875,22.3395L22.8285046875,30.4743C22.5035046875,31.2746,21.3235046875,31.3947,20.8147046875,30.6797L19.6144046875,28.9918L17.654404687499998,32.548500000000004C17.4616046875,32.8989,17.070004687500003,33.1199,16.6418046875,33.120000000000005L13.2546646875,33.120000000000005Z" fill-rule="evenodd" fill="#FFFFFF" fill-opacity="1" style="mix-blend-mode:passthrough"/></g></g></svg>