<svg xmlns="http://www.w3.org/2000/svg" xmlns:xlink="http://www.w3.org/1999/xlink" fill="none" version="1.1" width="44" height="44" viewBox="0 0 44 44"><defs><clipPath id="master_svg0_9362_49390"><rect x="0" y="0" width="44" height="44" rx="0"/></clipPath></defs><g clip-path="url(#master_svg0_9362_49390)"><g><path d="M43.387175,21.9998619140625Q43.387175,22.5249619140625,43.361375,23.0493619140625Q43.335575,23.5737619140625,43.284175,24.0963619140625Q43.232675,24.6188619140625,43.155675,25.1382619140625Q43.078575,25.6576619140625,42.976175,26.1726619140625Q42.873775,26.6875619140625,42.746175,27.1969619140625Q42.618575,27.7062619140625,42.466175,28.2087619140625Q42.313775,28.7111619140625,42.136875,29.2055619140625Q41.959975,29.6999619140625,41.758975,30.1850619140625Q41.558075,30.6701619140625,41.333575,31.1447619140625Q41.109075,31.6194619140625,40.861575,32.0824619140625Q40.614075,32.5455619140625,40.344075,32.9959619140625Q40.074175,33.4462619140625,39.782475,33.8828619140625Q39.490775,34.3194619140625,39.177975,34.7411619140625Q38.865175,35.1629619140625,38.532075,35.5688619140625Q38.198975,35.9746619140625,37.846375,36.3637619140625Q37.493775,36.7527619140625,37.122475,37.1240619140625Q36.751175,37.4953619140625,36.362175,37.8479619140625Q35.973075,38.2005619140625,35.567275,38.5336619140625Q35.161375,38.8667619140625,34.739575,39.1795619140625Q34.317875,39.4923619140625,33.881275,39.7840619140625Q33.444675,40.0757619140625,32.994375,40.3457619140625Q32.543975,40.6156619140625,32.080875,40.8631619140625Q31.617875,41.1106619140625,31.143175,41.3351619140625Q30.668575,41.5596619140625,30.183475,41.7605619140625Q29.698375,41.9615619140625,29.203975,42.1384619140625Q28.709575,42.3153619140625,28.207175,42.4677619140625Q27.704675,42.6201619140625,27.195375,42.7477619140625Q26.685975,42.8753619140625,26.170975,42.9777619140625Q25.656075,43.0801619140625,25.136675,43.1572619140625Q24.617275,43.2342619140625,24.094775,43.2857619140625Q23.572175,43.3371619140625,23.047775,43.3629619140625Q22.523375,43.3887619140625,21.998275,43.3887619140625Q21.473175,43.3887619140625,20.948775,43.3629619140625Q20.424275,43.3371619140625,19.901775,43.2857619140625Q19.379275,43.2342619140625,18.859875,43.1572619140625Q18.340475,43.0801619140625,17.825475,42.9777619140625Q17.310475,42.8753619140625,16.801175,42.7477619140625Q16.291874999999997,42.6201619140625,15.789375,42.4677619140625Q15.286975,42.3153619140625,14.792575,42.1384619140625Q14.298175,41.9615619140625,13.813075,41.7605619140625Q13.327975,41.5596619140625,12.853375,41.3351619140625Q12.378675,41.1106619140625,11.915575,40.8631619140625Q11.452575,40.6156619140625,11.002175,40.3456619140625Q10.551815,40.0757619140625,10.115235,39.7840619140625Q9.678655,39.4923619140625,9.256915,39.1795619140625Q8.835175,38.8667619140625,8.429295,38.5336619140625Q8.023415,38.2005619140625,7.634365,37.8479619140625Q7.245315,37.4953619140625,6.874035,37.1240619140625Q6.502755,36.7527619140625,6.150145,36.3637619140625Q5.797525,35.9746619140625,5.464425,35.5688619140625Q5.131325,35.1629619140625,4.818545,34.7411619140625Q4.505765,34.3194619140625,4.214055,33.8828619140625Q3.922335,33.4462619140625,3.652405,32.9959619140625Q3.382465,32.5455619140625,3.134945,32.0824619140625Q2.887435,31.6194619140625,2.662935,31.1447619140625Q2.4384449999999998,30.6701619140625,2.237505,30.1850619140625Q2.036575,29.6999619140625,1.859685,29.2055619140625Q1.682795,28.7111619140625,1.530373,28.2087619140625Q1.377954,27.7062619140625,1.250373,27.1969619140625Q1.122792,26.6875619140625,1.020356,26.1725619140625Q0.917921,25.6576619140625,0.840877,25.1382619140625Q0.763834,24.6188619140625,0.712368,24.0963619140625Q0.6609027,23.5737619140625,0.6351388,23.0493619140625Q0.609375,22.5249619140625,0.609375,21.9998619140625Q0.609375,21.4747619140625,0.6351388,20.9503619140625Q0.6609027,20.4259619140625,0.712368,19.9033619140625Q0.763834,19.3808619140625,0.840877,18.8614619140625Q0.917921,18.3420619140625,1.020356,17.8270619140625Q1.122792,17.3120619140625,1.250373,16.8027619140625Q1.377954,16.293461914062497,1.530373,15.7909619140625Q1.682795,15.2885619140625,1.859685,14.7941619140625Q2.036575,14.2997619140625,2.237505,13.8146619140625Q2.4384449999999998,13.3295619140625,2.662935,12.8549619140625Q2.887435,12.3802619140625,3.134945,11.9171619140625Q3.382465,11.4541619140625,3.652405,11.0037619140625Q3.922335,10.5534019140625,4.214055,10.1168219140625Q4.505765,9.6802419140625,4.818545,9.2585019140625Q5.131325,8.8367619140625,5.464425,8.4308819140625Q5.797525,8.0250019140625,6.150145,7.6359519140625Q6.502755,7.2469019140625,6.874035,6.8756219140625Q7.245315,6.5043419140625,7.634365,6.1517319140625Q8.023415,5.7991119140625,8.429295,5.4660119140625Q8.835175,5.1329119140625,9.256915,4.8201319140625Q9.678655,4.5073519140625,10.115235,4.2156419140625Q10.551815,3.9239319140625,11.002175,3.6539919140625Q11.452575,3.3840519140625,11.915575,3.1365319140625Q12.378675,2.8890219140625,12.853375,2.6645219140625Q13.327975,2.4400319140624998,13.813075,2.2390919140625Q14.298175,2.0381619140625,14.792575,1.8612719140625Q15.286975,1.6843819140625,15.789375,1.5319599140625Q16.291874999999997,1.3795409140625,16.801175,1.2519599140625Q17.310475,1.1243789140625,17.825475,1.0219429140625Q18.340475,0.9195079140625,18.859875,0.8424639140625Q19.379275,0.7654209140625,19.901775,0.7139549140625Q20.424275,0.6624896140625,20.948775,0.6367258140625Q21.473175,0.6109619140625,21.998275,0.6109619140625Q22.523375,0.6109619140625,23.047775,0.6367258140625Q23.572175,0.6624896140625,24.094775,0.7139549140625Q24.617275,0.7654209140625,25.136675,0.8424639140625Q25.656075,0.9195079140625,26.171075,1.0219429140625Q26.685975,1.1243789140625,27.195375,1.2519599140625Q27.704675,1.3795409140625,28.207175,1.5319599140625Q28.709575,1.6843819140625,29.203975,1.8612719140625Q29.698375,2.0381619140625,30.183475,2.2390919140625Q30.668575,2.4400319140624998,31.143175,2.6645219140625Q31.617875,2.8890219140625,32.080875,3.1365319140625Q32.543975,3.3840519140625,32.994375,3.6539919140625Q33.444675,3.9239319140625,33.881275,4.2156419140625Q34.317875,4.5073519140625,34.739575,4.8201319140625Q35.161375,5.1329119140625,35.567275,5.4660119140625Q35.973075,5.7991119140625,36.362175,6.1517319140625Q36.751175,6.5043419140625,37.122475,6.8756219140625Q37.493775,7.2469019140625,37.846375,7.6359519140625Q38.198975,8.0250019140625,38.532075,8.4308819140625Q38.865175,8.8367619140625,39.177975,9.2585019140625Q39.490775,9.6802419140625,39.782475,10.1168219140625Q40.074175,10.5534019140625,40.344075,11.0037619140625Q40.614075,11.4541619140625,40.861575,11.9171619140625Q41.109075,12.3802619140625,41.333575,12.8549619140625Q41.558075,13.3295619140625,41.758975,13.8146619140625Q41.959975,14.2997619140625,42.136875,14.7941619140625Q42.313775,15.2885619140625,42.466175,15.7909619140625Q42.618575,16.293461914062497,42.746175,16.8027619140625Q42.873775,17.3120619140625,42.976175,17.8270619140625Q43.078575,18.3420619140625,43.155675,18.8614619140625Q43.232675,19.3808619140625,43.284175,19.9033619140625Q43.335575,20.4259619140625,43.361375,20.9503619140625Q43.387175,21.4747619140625,43.387175,21.9998619140625Z" fill="#FFFFFF" fill-opacity="1"/></g><g><path d="M29.22531875,17.12713841796875L29.225918749999998,17.12770841796875L30.40321875,15.95037841796875L28.04861875,13.59569841796875L26.87121875,14.77304841796875L26.87181875,14.77361841796875L14.77245875,26.87297841796875L14.77188875,26.87237841796875L13.59453875,28.04977841796875L15.94921875,30.40437841796875L17.12654875,29.227078417968748L17.12597875,29.22647841796875L29.22531875,17.12713841796875L29.22531875,17.12713841796875Z" fill-rule="evenodd" fill="#545B73" fill-opacity="1"/></g><g><path d="M17.12597875,14.77361841796875L17.12654875,14.77304841796875L15.94921875,13.59569841796875L13.59453875,15.95037841796875L14.77188875,17.12770841796875L14.77245875,17.12713841796875L26.87181875,29.22647841796875L26.87121875,29.227078417968748L28.04861875,30.40437841796875L30.40321875,28.04977841796875L29.225918749999998,26.87237841796875L29.22531875,26.87297841796875L17.12597875,14.77361841796875L17.12597875,14.77361841796875Z" fill-rule="evenodd" fill="#545B73" fill-opacity="1"/></g></g></svg>