<svg xmlns="http://www.w3.org/2000/svg" xmlns:xlink="http://www.w3.org/1999/xlink" fill="none" version="1.1"
  width="51.1877555847168" height="51.21000671386719" viewBox="0 0 51.1877555847168 51.21000671386719">
  <defs>
    <linearGradient x1="1.1102230246251565e-16" y1="1.1102230246251565e-16" x2="0.9995652093605039"
      y2="1.0004344128820437" id="master_svg0_9352_47194">
      <stop offset="0%" stop-color="#1761FF" stop-opacity="1" />
      <stop offset="100%" stop-color="#008DFC" stop-opacity="1" />
    </linearGradient>
    <filter id="master_svg1_9362_49433" filterUnits="objectBoundingBox" color-interpolation-filters="sRGB"
      x="-0.36359706135167386" y="-0.24229271550345466" width="1.9695921636044635" height="1.9691708620138186">
      <feFlood flood-opacity="0" result="BackgroundImageFix" />
      <feColorMatrix in="SourceAlpha" type="matrix" values="0 0 0 0 0 0 0 0 0 0 0 0 0 0 0 0 0 0 127 0" />
      <feOffset dy="5.68691349029541" dx="2.843456745147705" />
      <feGaussianBlur stdDeviation="2.843456745147705" />
      <feColorMatrix type="matrix"
        values="0 0 0 0 0.07347367703914642 0 0 0 0 0.3373821973800659 0 0 0 0 0.9008626341819763 0 0 0 0.5 0" />
      <feBlend mode="normal" in2="BackgroundImageFix" result="effect1_dropShadow" />
      <feBlend mode="normal" in="SourceGraphic" in2="effect1_dropShadow" result="shape" />
    </filter>
    <linearGradient x1="0.011111067607998848" y1="-0.012820468284189701" x2="0.9884433813062095" y2="1.0132448651133257"
      id="master_svg2_9352_47262">
      <stop offset="0%" stop-color="#FFFFFF" stop-opacity="1" />
      <stop offset="100%" stop-color="#FFFFFF" stop-opacity="0.4000000059604645" />
    </linearGradient>
    <linearGradient x1="0.9888889193534851" y1="1.0128204822540283" x2="0.011556558107697667" y2="-0.013244727301687272"
      id="master_svg3_9352_47264">
      <stop offset="0%" stop-color="#FFFFFF" stop-opacity="0.800000011920929" />
      <stop offset="100%" stop-color="#FFFFFF" stop-opacity="0" />
    </linearGradient>
    <filter id="master_svg4_9362_49434" filterUnits="objectBoundingBox" color-interpolation-filters="sRGB"
      x="-0.4999418999861499" y="-0.33312449603920474" width="2.3331783999630664" height="2.3324979841568187">
      <feFlood flood-opacity="0" result="BackgroundImageFix" />
      <feColorMatrix in="SourceAlpha" type="matrix" values="0 0 0 0 0 0 0 0 0 0 0 0 0 0 0 0 0 0 127 0" />
      <feOffset dy="5.68691349029541" dx="2.843456745147705" />
      <feGaussianBlur stdDeviation="2.843456745147705" />
      <feColorMatrix type="matrix"
        values="0 0 0 0 0.07347367703914642 0 0 0 0 0.3373821973800659 0 0 0 0 0.9008626341819763 0 0 0 0.5 0" />
      <feBlend mode="normal" in2="BackgroundImageFix" result="effect1_dropShadow" />
      <feBlend mode="normal" in="SourceGraphic" in2="effect1_dropShadow" result="shape" />
    </filter>
    <linearGradient x1="0.011111067607998848" y1="-0.012820468284189701" x2="0.9883655649630547" y2="1.0133189099239455"
      id="master_svg5_9352_47262">
      <stop offset="0%" stop-color="#FFFFFF" stop-opacity="1" />
      <stop offset="100%" stop-color="#FFFFFF" stop-opacity="0.4000000059604645" />
    </linearGradient>
    <linearGradient x1="0.9888889193534851" y1="1.0128204822540283" x2="0.011634374442108996" y2="-0.013318772116526639"
      id="master_svg6_9352_47264">
      <stop offset="0%" stop-color="#FFFFFF" stop-opacity="0.800000011920929" />
      <stop offset="100%" stop-color="#FFFFFF" stop-opacity="0" />
    </linearGradient>
  </defs>
  <g>
    <rect x="0" y="0" width="51.1877555847168" height="51.21000671386719" rx="11.37382698059082"
      fill="url(#master_svg0_9352_47194)" fill-opacity="1" />
    <g>
      <g filter="url(#master_svg1_9362_49433)">
        <path
          d="M35.70294375,20.025809511718748C35.70294375,20.025809511718748,27.57884375,28.16944951171875,27.57884375,28.16944951171875C27.26494375,28.48434951171875,26.878943749999998,28.71794951171875,26.45454375,28.85024951171875C26.45454375,28.85024951171875,24.72824375,29.42834951171875,24.72824375,29.42834951171875C24.31854375,29.54404951171875,23.88544375,29.54844951171875,23.473543749999997,29.44094951171875C23.06157375,29.33354951171875,22.68574375,29.118049511718752,22.38472375,28.81694951171875C22.083703749999998,28.515749511718752,21.86839375,28.139749511718747,21.760973749999998,27.727649511718752C21.65355375,27.31554951171875,21.657923750000002,26.88224951171875,21.773613750000003,26.47244951171875C21.773613750000003,26.47244951171875,22.35147375,24.74544951171875,22.35147375,24.74544951171875C22.483273750000002,24.32085951171875,22.716373750000002,23.934789511718748,23.03064375,23.62051951171875C23.03064375,23.62051951171875,31.17074375,15.49159451171875,31.17074375,15.49159451171875C31.24534375,15.41703051171875,31.29614375,15.32200451171875,31.31674375,15.218534511718751C31.33744375,15.11506451171875,31.32694375,15.00779751171875,31.28664375,14.91030051171875C31.24624375,14.81280351171875,31.17794375,14.72945351171875,31.09034375,14.67079391171875C31.00264375,14.61213411171875,30.89954375,14.58079838691875,30.79414375,14.58074951171875C30.79414375,14.58074951171875,16.88478375,14.58074951171875,16.88478375,14.58074951171875C15.89488375,14.580749511718752,14.94551375,14.97415851171875,14.24555375,15.674429511718749C13.54558175,16.37469951171875,13.15234375,17.32447951171875,13.15234375,18.31480951171875C13.15234375,18.31480951171875,13.15234375,34.31794951171875,13.15234375,34.31794951171875C13.152343750000002,35.30824951171875,13.54558175,36.25804951171875,14.24555375,36.95834951171875C14.94551375,37.658549511718746,15.89488375,38.05204951171875,16.88478375,38.05204951171875C16.88478375,38.05204951171875,32.88094375,38.05204951171875,32.88094375,38.05204951171875C33.87084375,38.05204951171875,34.82024375,37.658549511718746,35.52014375,36.95834951171875C36.22014375,36.25804951171875,36.61344375,35.30824951171875,36.61344375,34.31794951171875C36.61344375,34.31794951171875,36.61344375,20.40254951171875,36.61344375,20.40254951171875C36.61334375,20.29704951171875,36.58204375,20.19391951171875,36.523343749999995,20.10621951171875C36.46474375,20.01852951171875,36.38144375,19.95018951171875,36.28394375,19.90986951171875C36.18654375,19.86953951171875,36.07934375,19.85902951171875,35.975843749999996,19.87966951171875C35.87244375,19.90030951171875,35.77744375,19.95116951171875,35.70294375,20.025809511718748Z"
          fill="url(#master_svg2_9352_47262)" fill-opacity="1" />
        <path
          d="M22.35147375,24.74544951171875L21.773613750000003,26.47244951171875C21.657923750000002,26.88224951171875,21.65355375,27.31554951171875,21.760973749999998,27.727649511718752C21.86839375,28.139749511718747,22.083703749999998,28.515749511718752,22.38472375,28.81694951171875C22.68574375,29.118049511718752,23.06157375,29.33354951171875,23.473543749999997,29.44094951171875C23.88544375,29.54844951171875,24.31854375,29.54404951171875,24.72824375,29.42834951171875L26.45454375,28.85024951171875C26.878943749999998,28.71794951171875,27.26494375,28.48434951171875,27.57884375,28.16944951171875L35.70294375,20.025809511718748C35.77744375,19.95116951171875,35.87244375,19.90030951171875,35.975843749999996,19.87966951171875C36.07934375,19.85902951171875,36.18654375,19.86953951171875,36.28394375,19.90986951171875C36.38144375,19.95018951171875,36.46474375,20.01852951171875,36.523343749999995,20.10621951171875C36.58204375,20.19391951171875,36.61334375,20.29704951171875,36.61344375,20.40254951171875L36.61344375,34.31794951171875C36.61344375,35.30824951171875,36.22014375,36.25804951171875,35.52014375,36.95834951171875C34.82024375,37.658549511718746,33.87084375,38.05204951171875,32.88094375,38.05204951171875L16.88478375,38.05204951171875C15.89488375,38.05204951171875,14.94551375,37.658549511718746,14.24555375,36.95834951171875C13.54558175,36.25804951171875,13.15234375,35.30824951171875,13.15234375,34.31794951171875L13.15234375,18.31480951171875C13.15234375,17.32447951171875,13.54558175,16.37469951171875,14.24555375,15.674429511718749C14.94551375,14.97415851171875,15.89488375,14.58074951171875,16.88478375,14.58074951171875L30.79414375,14.58074951171875C30.89954375,14.58079838691875,31.00264375,14.61213411171875,31.09034375,14.67079391171875C31.17794375,14.72945351171875,31.24624375,14.81280351171875,31.28664375,14.91030051171875C31.32694375,15.00779751171875,31.33744375,15.11506451171875,31.31674375,15.218534511718751C31.29614375,15.32200451171875,31.24534375,15.41703051171875,31.17074375,15.49159451171875L23.03064375,23.62051951171875C22.716373750000002,23.934789511718748,22.483273750000002,24.32085951171875,22.35147375,24.74544951171875ZM27.98154375,28.571049511718748L36.044743749999995,20.48844951171875L36.044743749999995,34.31794951171875Q36.044743749999995,35.62914951171875,35.117943749999995,36.55624951171875Q34.19134375,37.48334951171875,32.88094375,37.48334951171875L16.88478375,37.48334951171875Q15.574383749999999,37.48334951171875,14.64776375,36.55624951171875Q13.72103475,35.62914951171875,13.72103475,34.31794951171875L13.72103475,18.31480951171875Q13.72103475,17.00359951171875,14.64776375,16.07646951171875Q15.57439375,15.14944051171875,16.88478375,15.14944051171875L30.70854375,15.14944051171875L22.62852375,23.218389511718748Q22.05067375,23.79622951171875,21.81217375,24.56494951171875L21.23000375,26.30484951171875L21.22631375,26.31794951171875Q21.00769375,27.09234951171875,21.210673749999998,27.871149511718748Q21.41365375,28.64984951171875,21.98250375,29.218949511718748Q22.551413750000002,29.78814951171875,23.329943749999998,29.99124951171875Q24.108543750000003,30.194349511718748,24.88284375,29.97554951171875L24.89594375,29.97184951171875L26.62364375,29.39314951171875Q27.40424375,29.149949511718752,27.98154375,28.571049511718748Z"
          fill-rule="evenodd" fill="url(#master_svg3_9352_47264)" fill-opacity="1" />
      </g>
      <g filter="url(#master_svg4_9362_49434)">
        <path
          d="M40.608506250000005,10.663320421875C40.51110625,10.556260421875,40.39300625,10.470066421875,40.26140625,10.409947721875C40.12970625,10.349829121875,39.98730625,10.317033931875,39.84260625,10.313543739875C39.69800625,10.310053551875,39.554106250000004,10.335940821875,39.419706250000004,10.389641421875C39.28540625,10.443342421875,39.16330625,10.523741421875,39.06080625,10.625979421875C39.06080625,10.625979421875,38.23640625,11.446802421875,38.23640625,11.446802421875C38.13640625,11.546832421875,38.08030625,11.682462421875,38.08030625,11.823882421875C38.08030625,11.965292421875,38.13640625,12.100922421875,38.23640625,12.200952421875C38.23640625,12.200952421875,38.99220625,12.955772421875,38.99220625,12.955772421875C39.041706250000004,13.005562421875,39.10060625,13.045082421875,39.16550625,13.072042421875C39.23030625,13.099002421875,39.29990625,13.112882421875,39.37010625,13.112882421875C39.44030625,13.112882421875,39.50990625,13.099002421875,39.57470625,13.072042421875C39.63960625,13.045082421875,39.69850625,13.005562421875,39.74800625,12.955772421875C39.74800625,12.955772421875,40.55180625,12.155612421875,40.55180625,12.155612421875C40.958406249999996,11.749532421875,40.99640625,11.088070421875,40.608506250000005,10.663320421875ZM36.56940625,13.113802421875C36.56940625,13.113802421875,24.53764925,25.129432421875002,24.53764925,25.129432421875002C24.46470025,25.202132421875,24.41167725,25.292432421875,24.38368525,25.391532421875C24.38368525,25.391532421875,23.82715235,27.049832421875,23.82715235,27.049832421875C23.81381998,27.094832421875,23.81287564,27.142632421875,23.82441864,27.188132421875C23.83596165,27.233632421875,23.85956375,27.275132421875,23.89273525,27.308332421875C23.92590625,27.341532421875,23.96741725,27.365132421875,24.01288625,27.376632421875C24.05835625,27.388232421875,24.10609825,27.387232421875,24.15107525,27.373932421875C24.15107525,27.373932421875,25.80734625,26.817132421875,25.80734625,26.817132421875C25.90642625,26.789132421875,25.99662625,26.736132421875,26.06928625,26.663132421875C26.06928625,26.663132421875,38.07970625,14.624762421875001,38.07970625,14.624762421875001C38.19090625,14.512402421874999,38.25320625,14.360732421875,38.25320625,14.202682421875C38.25320625,14.044622421875001,38.19090625,13.892952421875,38.07970625,13.780592421875C38.07970625,13.780592421875,37.41660625,13.113802421875,37.41660625,13.113802421875C37.304106250000004,13.001622421875,37.15180625,12.938622421875,36.99300625,12.938622421875C36.83420625,12.938622421875,36.68190625,13.001622421875,36.56940625,13.113802421875Z"
          fill="url(#master_svg5_9352_47262)" fill-opacity="1" />
        <path
          d="M40.608506250000005,10.663320421875C40.51110625,10.556260421875,40.39300625,10.470066421875,40.26140625,10.409947721875C40.12970625,10.349829121875,39.98730625,10.317033931875,39.84260625,10.313543739875C39.69800625,10.310053551875,39.554106250000004,10.335940821875,39.419706250000004,10.389641421875C39.28540625,10.443342421875,39.16330625,10.523741421875,39.06080625,10.625979421875L38.23640625,11.446802421875C38.13640625,11.546832421875,38.08030625,11.682462421875,38.08030625,11.823882421875C38.08030625,11.965292421875,38.13640625,12.100922421875,38.23640625,12.200952421875L38.99220625,12.955772421875C39.041706250000004,13.005562421875,39.10060625,13.045082421875,39.16550625,13.072042421875C39.23030625,13.099002421875,39.29990625,13.112882421875,39.37010625,13.112882421875C39.44030625,13.112882421875,39.50990625,13.099002421875,39.57470625,13.072042421875C39.63960625,13.045082421875,39.69850625,13.005562421875,39.74800625,12.955772421875L40.55180625,12.155612421875C40.958406249999996,11.749532421875,40.99640625,11.088070421875,40.608506250000005,10.663320421875ZM40.18780625,11.046000421875Q40.11860625,10.969944421875,40.02510625,10.927239421875Q39.93160625,10.884548421875,39.82890625,10.882069421875Q39.726206250000004,10.879591421875,39.63080625,10.917723421875Q39.53530625,10.955866421875,39.46260625,11.028497421875L38.66360625,11.823922421875L39.37010625,12.529502421875L40.150606249999996,11.752572421875Q40.50750625,11.396092421875,40.18850625,11.046822421875L40.18780625,11.046000421875ZM26.06928625,26.663132421875C25.99662625,26.736132421875,25.90642625,26.789132421875,25.80734625,26.817132421875L24.15107525,27.373932421875C24.10609825,27.387232421875,24.05835625,27.388232421875,24.01288625,27.376632421875C23.96741725,27.365132421875,23.92590625,27.341532421875,23.89273525,27.308332421875C23.85956375,27.275132421875,23.83596165,27.233632421875,23.82441864,27.188132421875C23.81287564,27.142632421875,23.81381998,27.094832421875,23.82715235,27.049832421875L24.38368525,25.391532421875C24.41167725,25.292432421875,24.46470025,25.202132421875,24.53764925,25.129432421875002L36.56940625,13.113802421875C36.68190625,13.001622421875,36.83420625,12.938622421875,36.99300625,12.938622421875C37.15180625,12.938622421875,37.304106250000004,13.001622421875,37.41660625,13.113802421875L38.07970625,13.780592421875C38.19090625,13.892952421875,38.25320625,14.044622421875001,38.25320625,14.202682421875C38.25320625,14.360732421875,38.19090625,14.512402421874999,38.07970625,14.624762421875001L26.06928625,26.663132421875ZM25.63930625,26.273632421875L24.56647025,26.634332421875L24.92721625,25.559332421875L24.93097625,25.546132421875Q24.93321625,25.538132421874998,24.93950625,25.531832421875002L36.97110625,13.516402421875L36.97130625,13.516192421875001Q36.98030625,13.507312421875,36.99300625,13.507312421875Q37.00580625,13.507312421875,37.01330625,13.514832421875L37.67540625,14.180482421875Q37.68450625,14.189682421875,37.68450625,14.202682421875Q37.68450625,14.215672421875,37.67710625,14.223102421875L25.66625625,26.261932421875002Q25.66049625,26.267632421875,25.65266625,26.269932421874998L25.63930625,26.273632421875Z"
          fill-rule="evenodd" fill="url(#master_svg6_9352_47264)" fill-opacity="1" />
      </g>
    </g>
  </g>
</svg>