<svg xmlns="http://www.w3.org/2000/svg" xmlns:xlink="http://www.w3.org/1999/xlink" fill="none" version="1.1" width="64" height="64" viewBox="0 0 64 64"><defs><clipPath id="master_svg0_60_11057"><rect x="20.5" y="23" width="22" height="22" rx="0"/></clipPath></defs><g><g><g clip-path="url(#master_svg0_60_11057)"></g><g><path d="M44.1071,17.04328L40.0845,11L39.11,12.89972C36.9787,12.22091,34.7609,11.881508,32.5,11.881508C27.98291,11.881508,23.65783,13.24384,20,15.812940000000001L21.78572,18.2642C24.92512,16.06278,28.626150000000003,14.89844,32.5,14.89844C34.2761,14.89844,36.0186,15.14356,37.6987,15.629100000000001L36.7675,17.44397L44.1071,17.04328ZM45,48.1875L43.2144,45.7354C40.075,47.9368,36.3739,49.1016,32.5,49.1016C30.7239,49.1016,28.98138,48.8566,27.30127,48.3711L28.237299999999998,46.5557L20.897461,46.9619L24.91553,53L25.89014,51.1006C28.02147,51.7794,30.2391,52.1182,32.5,52.1182C37.0171,52.1182,41.3422,50.7566,45,48.1875Z" fill="#FFFFFF" fill-opacity="1"/></g></g><g><path d="M7.125,38L13.019,38L13.019,36.67L11.017,36.67L11.017,27.976L9.799,27.976C9.197,28.34,8.511,28.578,7.545,28.759999999999998L7.545,29.782L9.393,29.782L9.393,36.67L7.125,36.67L7.125,38ZM17.919,38.196C19.963,38.196,21.237000000000002,36.334,21.237000000000002,32.946C21.237000000000002,29.572,19.963,27.78,17.919,27.78C15.861,27.78,14.573,29.572,14.573,32.946C14.573,36.334,15.861,38.196,17.919,38.196ZM17.919,36.908C16.869,36.908,16.127000000000002,35.83,16.127000000000002,32.946C16.127000000000002,30.076,16.869,29.054000000000002,17.919,29.054000000000002C18.955,29.054000000000002,19.697,30.076,19.697,32.946C19.697,35.83,18.955,36.908,17.919,36.908ZM25.899,38.196C27.943,38.196,29.217,36.334,29.217,32.946C29.217,29.572,27.943,27.78,25.899,27.78C23.841,27.78,22.553,29.572,22.553,32.946C22.553,36.334,23.841,38.196,25.899,38.196ZM25.899,36.908C24.849,36.908,24.107,35.83,24.107,32.946C24.107,30.076,24.849,29.054000000000002,25.899,29.054000000000002C26.935,29.054000000000002,27.677,30.076,27.677,32.946C27.677,35.83,26.935,36.908,25.899,36.908ZM33.879000000000005,38.196C35.923,38.196,37.197,36.334,37.197,32.946C37.197,29.572,35.923,27.78,33.879000000000005,27.78C31.821,27.78,30.533,29.572,30.533,32.946C30.533,36.334,31.821,38.196,33.879000000000005,38.196ZM33.879000000000005,36.908C32.829,36.908,32.087,35.83,32.087,32.946C32.087,30.076,32.829,29.054000000000002,33.879000000000005,29.054000000000002C34.915,29.054000000000002,35.657,30.076,35.657,32.946C35.657,35.83,34.915,36.908,33.879000000000005,36.908ZM40.263,38L42.237,38L43.595,32.274C43.763,31.462,43.931,30.692,44.085,29.908L44.141,29.908C44.281,30.692,44.449,31.462,44.617,32.274L46.003,38L48.005,38L50.035,27.682000000000002L48.481,27.682000000000002L47.501,33.044C47.333,34.135999999999996,47.165,35.242000000000004,46.983,36.361999999999995L46.913,36.361999999999995C46.675,35.242000000000004,46.451,34.135999999999996,46.213,33.044L44.883,27.682000000000002L43.441,27.682000000000002L42.125,33.044C41.887,34.135999999999996,41.635,35.242000000000004,41.425,36.361999999999995L41.369,36.361999999999995C41.173,35.242000000000004,40.991,34.15,40.809,33.044L39.843,27.682000000000002L38.177,27.682000000000002L40.263,38ZM51.589,38L53.199,38L53.199,32.54C53.885,31.854,54.361,31.503999999999998,55.075,31.503999999999998C55.985,31.503999999999998,56.377,32.022,56.377,33.352000000000004L56.377,38L57.987,38L57.987,33.156C57.987,31.195999999999998,57.259,30.104,55.621,30.104C54.571,30.104,53.801,30.664,53.129,31.322L53.199,29.796L53.199,26.842L51.589,26.842L51.589,38Z" fill="#FFFFFF" fill-opacity="1"/></g></g></svg>