<svg xmlns="http://www.w3.org/2000/svg" xmlns:xlink="http://www.w3.org/1999/xlink" fill="none" version="1.1" width="64" height="64" viewBox="0 0 64 64"><defs><clipPath id="master_svg0_143_2592"><rect x="0" y="0" width="64" height="64" rx="0"/></clipPath><filter id="master_svg1_143_2596" filterUnits="objectBoundingBox" color-interpolation-filters="sRGB" x="-20" y="-20" width="55" height="61"><feFlood flood-opacity="0" result="BackgroundImageFix"/><feBlend mode="normal" in="SourceGraphic" in2="BackgroundImageFix" result="shape"/><feGaussianBlur stdDeviation="5" result="effect1_foregroundBlur"/></filter></defs><g clip-path="url(#master_svg0_143_2592)"><g><path d="M11.148109999999999,28.237498092651368Q11.01966,28.340198092651367,11.00227,28.505998092651367Q10.98464,28.673998092651367,11.089970000000001,28.80429809265137Q11.19598,28.93679809265137,11.36172,28.954198092651367Q11.52975,28.97179809265137,11.66004,28.866498092651366L14.721499999999999,26.392698092651365L14.721499999999999,47.04799809265137Q14.721499999999999,48.034598092651365,15.423210000000001,48.73629809265137Q16.12492,49.43799809265137,17.11146,49.43799809265137L23.1239,49.43799809265137L38.0269,49.43799809265137L43.8474,49.43799809265137Q44.834,49.43799809265137,45.5357,48.73629809265137Q46.2374,48.034598092651365,46.2374,47.04799809265137L46.2374,26.361198092651367L50.0967,29.629298092651368Q50.2089,29.72499809265137,50.3587,29.72499809265137Q50.5473,29.72499809265137,50.6699,29.58019809265137Q50.7805,29.451298092651367,50.7669,29.285698092651366Q50.7527,29.114298092651367,50.6219,29.001998092651366L32.397999999999996,13.566048092651368Q31.7414,13.010958092651368,30.8795,13.000188092651367Q30.0175,12.989411092651368,29.349,13.529608092651367L11.15194,28.234398092651368L11.148109999999999,28.237498092651368ZM9.894896,26.67879809265137L28.092,11.974019692651368Q29.3214,10.980558092651368,30.9045,11.000342092651367Q32.4842,11.020089092651368,33.6906,12.039921492651366L51.9248,27.484598092651368Q52.6786,28.13189809265137,52.7601,29.12139809265137Q52.8424,30.120098092651368,52.1967,30.872098092651367Q51.4749,31.72499809265137,50.3587,31.72499809265137Q49.4713,31.72499809265137,48.8042,31.155598092651367L46.5912,29.28149809265137L47.2374,28.518398092651367L48.2374,28.518398092651367L48.2374,47.04799809265137Q48.2374,48.86299809265137,46.9499,50.15049809265137Q45.6624,51.43799809265137,43.8474,51.43799809265137L38.0269,51.43799809265137L23.1239,51.43799809265137L17.11146,51.43799809265137Q15.29649,51.43799809265137,14.009,50.15049809265137Q12.721499999999999,48.86299809265137,12.721499999999999,47.04799809265137L12.721499999999999,28.486398092651367L13.721499999999999,28.486398092651367L14.35,29.264198092651366L12.91748,30.42169809265137Q12.14387,31.047198092651367,11.15304,30.943198092651368Q10.156245,30.838698092651367,9.534715,30.061698092651365Q8.90924,29.288098092651367,9.013186,28.297298092651367Q9.11776,27.300498092651367,9.898723,26.675698092651366L9.894896,26.67879809265137Z" fill="#FFFFFF" fill-opacity="1"/></g><g filter="url(#master_svg1_143_2596)"><path d="M32.12231,42.585499999999996C32.48249,42.585499999999996,32.77448,42.9022,32.77448,43.292699999999996C32.77448,43.677800000000005,32.49077,43.990899999999996,32.1377,43.9998L32.12229,44L28.91159,44C28.55142,44,28.25942,43.6833,28.25942,43.292699999999996C28.25942,42.9077,28.543129999999998,42.5946,28.8962,42.5857L28.91159,42.585499999999996L32.12231,42.585499999999996ZM33.0002,40.5901C33.3604,40.5901,33.6524,40.906800000000004,33.6524,41.297399999999996C33.6524,41.6824,33.368700000000004,41.9955,33.0156,42.004400000000004L33.0002,42.004599999999996L27.999769999999998,42.004599999999996C27.6396,42.004599999999996,27.3476,41.688,27.3476,41.297399999999996C27.3476,40.9123,27.63132,40.599199999999996,27.98438,40.5903L27.999769999999998,40.5901L33.0002,40.5901ZM30.5,23C34.6421,23,38,26.641469999999998,38,31.133409999999998C38,33.9741,36.6571,36.4746,34.622299999999996,37.9292L34.5742,38.1748C34.5411,38.3423,34.4972,38.5616,34.4427,38.8328C34.3135,39.4757,33.793,39.936,33.1881,39.946L27.80172,39.946C27.17992,39.946,26.64454,39.47,26.52267,38.8087L26.46256,38.4865C26.39015,38.1036,26.34862,37.9083,26.33796,37.9006C24.32539,36.442,23,33.9555,23,31.133409999999998C23,26.641469999999998,26.35786,23,30.5,23ZM29.1355,26.16745C26.92998,26.61392,25.84067,28.24007,25.71003,30.80505C25.690170000000002,31.195059999999998,25.9656,31.5287,26.32525,31.55022C26.68488,31.57178,26.99253,31.273049999999998,27.01239,30.88306C27.11225,28.92242,27.81472,27.87377,29.374850000000002,27.557949999999998C29.72892,27.48627,29.96236,27.1169,29.89627,26.73292C29.83017,26.34893,29.48957,26.09577,29.1355,26.16745Z" fill="#FFFFFF" fill-opacity="1"/></g><g><path d="M32.12231,42.585499999999996C32.48249,42.585499999999996,32.77448,42.9022,32.77448,43.292699999999996C32.77448,43.677800000000005,32.49077,43.990899999999996,32.1377,43.9998L32.12229,44L28.91159,44C28.55142,44,28.25942,43.6833,28.25942,43.292699999999996C28.25942,42.9077,28.543129999999998,42.5946,28.8962,42.5857L28.91159,42.585499999999996L32.12231,42.585499999999996ZM33.0002,40.5901C33.3604,40.5901,33.6524,40.906800000000004,33.6524,41.297399999999996C33.6524,41.6824,33.368700000000004,41.9955,33.0156,42.004400000000004L33.0002,42.004599999999996L27.999769999999998,42.004599999999996C27.6396,42.004599999999996,27.3476,41.688,27.3476,41.297399999999996C27.3476,40.9123,27.63132,40.599199999999996,27.98438,40.5903L27.999769999999998,40.5901L33.0002,40.5901ZM30.5,23C34.6421,23,38,26.641469999999998,38,31.133409999999998C38,33.9741,36.6571,36.4746,34.622299999999996,37.9292L34.5742,38.1748C34.5411,38.3423,34.4972,38.5616,34.4427,38.8328C34.3135,39.4757,33.793,39.936,33.1881,39.946L27.80172,39.946C27.17992,39.946,26.64454,39.47,26.52267,38.8087L26.46256,38.4865C26.39015,38.1036,26.34862,37.9083,26.33796,37.9006C24.32539,36.442,23,33.9555,23,31.133409999999998C23,26.641469999999998,26.35786,23,30.5,23ZM29.1355,26.16745C26.92998,26.61392,25.84067,28.24007,25.71003,30.80505C25.690170000000002,31.195059999999998,25.9656,31.5287,26.32525,31.55022C26.68488,31.57178,26.99253,31.273049999999998,27.01239,30.88306C27.11225,28.92242,27.81472,27.87377,29.374850000000002,27.557949999999998C29.72892,27.48627,29.96236,27.1169,29.89627,26.73292C29.83017,26.34893,29.48957,26.09577,29.1355,26.16745Z" fill="#FFFFFF" fill-opacity="1"/></g></g></svg>