<svg xmlns="http://www.w3.org/2000/svg" xmlns:xlink="http://www.w3.org/1999/xlink" fill="none" version="1.1" width="249" height="223" viewBox="0 0 249 223"><g><g><path d="M247.113,126.188C246.566,125.287,245.909,124.441,245.198,123.704L220.689,92.9622L220.689,78.738C220.689,76.8269,220.169,74.9704,219.212,73.3596L219.376,73.1958L154.821,3.38541L154.794,3.3581L153.153,1.5835L152.934,1.77461C151.211,0.627938,149.159,0,147.08,0L46.0361,0C37.0368,0,29.706,6.93462,29.706,15.4254L29.706,92.7711L3.96627,123.567C1.5318,125.97,0,129.328,0,133.014L0,209.704C0,217.048,5.99044,223,13.3212,223L235.679,223C243.037,223,249,217.021,249,209.704L249,133.041C249,130.611,248.371,128.263,247.113,126.188ZM220.689,108.77L229.442,119.718L220.689,119.718L220.689,108.77ZM150.828,13.5689L208.435,75.8713L151.676,75.8713C151.211,75.8713,150.828,75.4891,150.828,75.025L150.828,13.5689ZM39.5533,15.4527C39.5533,12.3677,42.4802,9.8559,46.0361,9.8559L140.981,9.8559L140.981,75.0523C140.981,80.9221,145.767,85.7272,151.676,85.7272L210.842,85.7272L210.842,119.745L39.5533,119.745L39.5533,15.4527ZM29.706,108.142L29.706,119.745L20.0229,119.745L29.706,108.142Z" fill="#3D3D3D" fill-opacity="1"/></g><g><path d="M52.9297,172.5156625Q51.7578,171.3437625,49.414100000000005,170.1718625Q52.7344,166.2656625,54.5898,161.4804725Q56.4453,156.6953125,57.0313,152.7890625Q58.9844,153.5703125,61.5234,154.3515625Q60.9375,154.9375025,60.3516,156.4023425Q59.7656,157.8671825,58.398399999999995,161.3828125L68.5547,161.3828125Q70.1172,161.3828125,72.2656,161.1875025L72.2656,165.0937625Q69.5313,164.8984625,68.75,164.8984625Q68.16409999999999,171.5390625,66.8945,177.3984625Q65.625,183.2578625,64.0625,186.9687625Q65.2344,188.7265625,67.67580000000001,191.0702625Q70.1172,193.4140625,73.2422,194.5859625Q71.6797,196.1484625,70.89840000000001,198.4921625Q66.9922,196.1484625,65.03909999999999,194.0976625Q63.0859,192.0468625,62.1094,190.4843625Q60.5469,192.4374625,58.9844,194.0976625Q57.4219,195.7578625,52.7344,199.2734625Q51.3672,196.5390625,50,195.3671625Q52.9297,194.1952625,55.4687,191.8515625Q58.0078,189.5078625,59.7656,186.9687625Q57.226600000000005,181.8906625,56.0547,178.2773625Q54.8828,174.6640625,53.9063,170.7578625Q53.710899999999995,171.5390625,52.9297,172.5156625ZM37.6953,168.6093625Q36.52344,170.1718625,36.13281,171.1484625L50.3906,171.1484625Q50.1953,174.6640625,50.1953,177.9843625L50.1953,191.4609625Q50.1953,195.1718625,48.3398,196.5390625Q46.4844,197.9062625,41.7969,198.2968625Q41.7969,196.3437625,40.0391,193.8046625Q44.1406,194.1952625,45.4102,193.5117625Q46.6797,192.8281625,46.6797,190.8749625L46.6797,174.4687625L34.375,174.4687625Q33.20312,176.2265625,31.83594,177.9843625L42.9687,177.9843625Q42.773399999999995,181.4999625,42.773399999999995,185.2109625Q42.773399999999995,188.9218625,42.9687,192.6328625L39.4531,192.6328625L39.4531,189.7031625L34.57031,189.7031625L34.57031,194.3906625L30.85938,194.3906625Q31.05469,190.4843625,31.05469,186.7734625L31.05469,179.1562625Q30.27344,180.3281625,29.49219,181.3046625Q27.539062,179.3515625,26.5625,178.7656625Q28.71094,176.8124625,30.66406,173.5898625Q32.61719,170.3671625,33.39844,167.0468625Q35.74219,168.2187625,37.6953,168.6093625ZM34.375,159.4296825Q34.375,155.5234425,34.17969,153.9609425L38.0859,153.9609425Q37.6953,155.5234425,37.6953,159.4296825L42.9687,159.4296825Q42.9687,156.5000025,42.773399999999995,153.9609425L46.6797,153.9609425Q46.289100000000005,155.7187525,46.289100000000005,159.4296825Q49.6094,159.4296825,52.539100000000005,159.2343725L52.539100000000005,162.7500025Q49.6094,162.5546825,46.289100000000005,162.5546825Q46.289100000000005,164.5078625,46.4844,167.4374625L42.9687,167.4374625L42.9687,162.5546825L37.6953,162.5546825L37.6953,167.0468625L34.17969,167.0468625Q34.375,163.7265625,34.375,162.5546825Q31.25,162.5546825,27.73438,162.7500025L27.73438,159.2343725Q30.46875,159.4296825,34.375,159.4296825ZM56.25,167.2421625Q57.6172,172.7109625,59.375,177.2031625Q61.1328,181.6952625,61.9141,183.4531625Q62.8906,179.5468625,63.6719,175.9335625Q64.4531,172.3202625,65.03909999999999,164.8984625L57.226600000000005,164.8984625L56.25,167.2421625ZM39.4531,186.7734625L39.4531,180.9140625L34.57031,180.9140625L34.57031,186.7734625L39.4531,186.7734625ZM95.8984,182.6718625Q95.8984,179.3515625,95.7031,174.8593625L118.3594,174.8593625Q118.1641,178.1796625,118.1641,181.4999625L118.1641,195.5624625Q118.1641,197.3202625,116.8945,197.8085625Q115.625,198.2968625,112.5,198.8828625Q112.1094,197.1249625,110.9375,195.3671625Q114.4531,195.3671625,114.4531,194.1952625L114.4531,190.2890625L99.6094,190.2890625L99.6094,198.4921625L95.7031,198.4921625Q95.8984,194.5859625,95.8984,190.8749625L95.8984,182.6718625ZM91.7969,169.3906625Q94.9219,169.5859625,105.0781,169.5859625L105.0781,165.8749625Q97.6563,165.8749625,94.5313,166.0702625L94.5313,163.1406625Q97.6563,163.3359625,105.0781,163.3359625L105.0781,160.4062525Q96.6797,160.4062525,93.3594,160.6015625L93.3594,157.4765625Q96.875,157.6718725,105.0781,157.6718725Q105.0781,155.5234425,104.8828,153.5703125L108.9844,153.5703125Q108.7891,155.7187525,108.7891,157.6718725Q117.9687,157.6718725,121.0937,157.4765625L121.0937,160.6015625Q117.9687,160.4062525,108.7891,160.4062525L108.7891,163.3359625Q117.3828,163.3359625,119.9219,163.1406625L119.9219,166.0702625Q116.9922,165.8749625,108.7891,165.8749625L108.7891,169.5859625Q119.9219,169.5859625,122.8516,169.3906625L122.8516,172.5156625Q120.3125,172.3202625,107.6172,172.3202625Q95.1172,172.3202625,91.7969,172.5156625L91.7969,169.3906625ZM93.75,187.5546625Q91.2109,189.5078625,88.47659999999999,191.9492625Q85.7422,194.3906625,83.9844,196.3437625Q82.6172,194.1952625,81.25,192.8281625Q83.2031,191.4609625,83.2031,189.1171625L83.2031,172.5156625Q80.27340000000001,172.5156625,77.14840000000001,172.7109625L77.14840000000001,169.1952625Q79.6875,169.3906625,81.25,169.3906625L86.91409999999999,169.3906625Q86.7187,172.5156625,86.7187,176.4218625L86.7187,189.1171625Q89.8437,186.3828625,91.6016,184.2343625Q92.3828,186.1874625,93.75,187.5546625ZM114.4531,187.5546625L114.4531,183.8437625L99.6094,183.8437625L99.6094,187.5546625L114.4531,187.5546625ZM114.4531,181.1093625L114.4531,177.7890625L99.6094,177.7890625L99.6094,181.1093625L114.4531,181.1093625ZM87.3047,164.7031625Q84.375,160.4062525,80.66409999999999,157.0859425Q82.0313,156.1093725,83.2031,154.9375025Q87.6953,158.8437525,90.2344,162.1640625Q88.47659999999999,163.7265625,87.3047,164.7031625ZM163.2815,194.1952625Q167.7735,194.7812625,167.3825,192.6328625L167.3825,181.6952625L158.7895,181.6952625Q158.3985,186.3828625,156.6405,190.6796625Q154.8825,194.9765625,151.5625,198.6874625Q150.19549999999998,196.9296625,147.8515,196.1484625Q151.17149999999998,192.8281625,152.83249999999998,189.1171625Q154.4925,185.4062625,154.7855,181.6952625Q155.0785,177.9843625,155.0785,169.5859625Q155.0785,160.9921825,154.8825,155.9140625L171.4845,155.9140625Q171.2895,159.6250025,171.2895,164.8984625L171.2895,193.6093625Q171.2895,196.3437625,169.5315,197.3202625Q167.7735,198.2968625,164.8435,198.6874625Q164.8435,196.5390625,163.2815,194.1952625ZM132.42149999999998,160.4062525Q132.42149999999998,157.4765625,132.2265,153.9609425L136.32850000000002,153.9609425Q136.1325,157.8671825,136.1325,160.4062525L144.92149999999998,160.4062525Q144.92149999999998,156.6953125,144.7265,153.9609425L149.0235,153.9609425Q148.82850000000002,157.2812525,148.82850000000002,160.4062525Q150.19549999999998,160.4062525,152.3435,160.2109425L152.3435,163.5312625Q150.3905,163.3359625,148.82850000000002,163.3359625L148.82850000000002,181.8906625Q150.3905,181.8906625,152.3435,181.6952625L152.3435,185.0156625Q148.6325,184.8202625,145.1175,184.8202625L134.57049999999998,184.8202625Q130.2735,184.8202625,127.1485,185.0156625L127.1485,181.6952625Q130.07850000000002,181.8906625,132.42149999999998,181.8906625L132.42149999999998,163.3359625Q130.6645,163.3359625,128.32049999999998,163.5312625L128.32049999999998,160.2109425Q130.4685,160.4062525,132.42149999999998,160.4062525ZM167.3825,167.6328625L167.3825,158.8437525L158.9845,158.8437525L158.9845,167.6328625L167.3825,167.6328625ZM167.3825,178.7656625L167.3825,170.5624625L158.9845,170.5624625L158.9845,178.7656625L167.3825,178.7656625ZM137.5005,188.3359625Q136.1325,188.9218625,134.08249999999998,191.7538625Q132.0315,194.5859625,130.07850000000002,196.7343625Q128.1245,195.3671625,126.7575,194.5859625Q128.5155,193.2187625,130.4685,190.7773625Q132.42149999999998,188.3359625,133.5935,185.9921625L137.5005,188.3359625ZM144.92149999999998,167.6328625L144.92149999999998,163.3359625L136.1325,163.3359625L136.1325,167.6328625L144.92149999999998,167.6328625ZM144.92149999999998,181.8906625L144.92149999999998,177.5937625L136.1325,177.5937625L136.1325,181.8906625L144.92149999999998,181.8906625ZM144.92149999999998,174.6640625L144.92149999999998,170.5624625L136.1325,170.5624625L136.1325,174.6640625L144.92149999999998,174.6640625ZM147.2655,194.5859625Q144.1405,189.8984625,142.3825,188.3359625Q143.55450000000002,187.5546625,144.92149999999998,185.9921625Q147.2655,188.3359625,150.3905,191.8515625Q148.82850000000002,193.0234625,147.2655,194.5859625ZM204.1015,170.1718625L204.1015,163.7265625Q199.2185,163.7265625,194.5315,163.9218625L194.5315,160.4062525Q198.6325,160.6015625,204.1015,160.6015625Q204.1015,155.5234425,203.9065,153.1796875L208.0075,153.1796875Q207.8125,155.7187525,207.8125,160.6015625L212.1095,160.6015625Q216.0155,160.4062525,218.1645,160.2109425L218.1645,163.9218625Q216.2105,163.7265625,212.1095,163.7265625L207.8125,163.7265625L207.8125,170.1718625L216.4065,170.1718625Q220.3125,170.1718625,222.4605,169.9765625L222.4605,173.4921625Q218.3595,173.2968625,214.8435,173.2968625L214.8435,178.7656625Q218.9455,178.7656625,221.8745,178.5702625L221.8745,182.2812625Q218.9455,182.0859625,214.8435,182.0859625L214.8435,192.2421625Q214.8435,195.7578625,213.1835,196.5390625Q211.5235,197.3202625,207.0315,198.2968625Q206.6405,195.9531625,205.2735,193.6093625Q208.5935,193.8046625,209.8635,193.4140625Q211.1325,193.0234625,211.1325,190.8749625L211.1325,182.0859625L199.2185,182.0859625Q196.2895,182.0859625,192.1875,182.2812625L192.1875,178.5702625Q196.2895,178.7656625,199.2185,178.7656625L211.1325,178.7656625L211.1325,173.2968625L200.5855,173.2968625Q196.6795,173.2968625,192.5785,173.6874625L192.5785,169.9765625Q196.6795,170.1718625,200.5855,170.1718625L204.1015,170.1718625ZM193.3595,167.2421625Q190.6245,169.9765625,188.4765,173.4921625L188.4765,190.4843625Q188.4765,193.9999625,188.6715,198.6874625L184.5705,198.6874625Q184.7655,193.9999625,184.7655,190.6796625L184.7655,177.7890625Q182.4215,180.3281625,179.6875,183.6484625Q178.3205,182.0859625,176.9535,180.7187625Q180.4685,177.9843625,184.2775,173.0038625Q188.0855,168.0234625,189.8435,164.3124625Q191.2105,165.6796625,193.3595,167.2421625ZM192.5785,155.7187525Q191.0155,156.8906225,188.2815,160.4062525Q185.5465,163.9218625,180.6645,168.8046625Q179.6875,167.4374625,177.9295,166.0702625Q186.1325,158.4531225,188.6715,153.1796875Q190.4295,154.5468725,192.5785,155.7187525ZM199.4145,183.2578625Q202.3435,187.1640625,204.2965,189.8984625Q202.5395,190.8749625,200.5855,192.4374625Q198.4375,188.5312625,195.8985,185.7968625Q197.8515,184.6249625,199.4145,183.2578625Z" fill="#FFFFFF" fill-opacity="1"/></g></g></svg>