<?xml version="1.0" encoding="UTF-8"?>
<svg width="34px" height="34px" viewBox="0 0 34 34" version="1.1" xmlns="http://www.w3.org/2000/svg" xmlns:xlink="http://www.w3.org/1999/xlink">
    <title>bg-3d-shidianbukeyong</title>
    <g id="页面-1" stroke="none" stroke-width="1" fill="none" fill-rule="evenodd">
        <g id="3D交互切图10.27" transform="translate(-1263.000000, -134.000000)">
            <g id="编组-9" transform="translate(1263.000000, 134.000000)">
                <g id="编组">
                    <circle id="椭圆形" stroke="#FFFFFF" stroke-width="1.2" fill="#E60A0A" cx="17" cy="17" r="16.4"></circle>
                    <g id="断电" transform="translate(8.500000, 3.642857)" fill="#FFFFFF" fill-rule="nonzero">
                        <path d="M2.89180754,11.5233421 L11.0737314,20.2570777 L7.35158018,26.4888862 C7.24353359,26.6710776 7.03565069,26.7551286 6.84159985,26.6950808 C6.64754902,26.635033 6.51404893,26.4453433 6.51409615,26.2297321 L6.51409615,15.4324517 L1.38479022,15.4324517 C1.21928619,15.4324779 1.06688631,15.336375 0.987072433,15.1816522 C0.907258555,15.0269295 0.912682414,14.8381127 1.00122707,14.6888974 L2.89180754,11.5233421 L2.89180754,11.5233421 Z M10.2771002,0.0769654793 C10.4069943,0.16589918 10.4856467,0.319169412 10.4859038,0.483861645 L10.4859038,11.281142 L15.6152098,11.281142 C15.7807138,11.2811159 15.9331137,11.3772188 16.0129276,11.5319415 C16.0927414,11.6866643 16.0873176,11.875481 15.9987729,12.0246963 L13.9243545,15.4905798 L5.74016105,6.7592662 L9.64841982,0.224707539 C9.71319854,0.115860935 9.8159705,0.0390677302 9.93397284,0.0113367732 C10.0519752,-0.0163941837 10.1754685,0.00722591552 10.2771002,0.0769654793 L10.2771002,0.0769654793 Z M0.381625072,5.17043355 C0.89970492,4.65615759 1.70496224,4.66681922 2.21092622,5.19465356 L16.6365318,20.1844177 C17.0526866,20.6178079 17.1195135,21.3064984 16.7954041,21.8216903 L16.6183749,22.0445144 C16.100897,22.5594577 15.2956476,22.5498624 14.7890738,22.0227164 L0.363468237,7.03537431 C-0.0526866479,6.60198406 -0.11951354,5.9132936 0.204595929,5.39810164 L0.381625072,5.17527755 L0.381625072,5.17043355 Z" id="形状"></path>
                    </g>
                </g>
                <g id="#meaxure-overlay-FA678AF9-B340-4B30-890C-D79D12E5C741"></g>
            </g>
        </g>
    </g>
</svg>