<svg xmlns="http://www.w3.org/2000/svg" xmlns:xlink="http://www.w3.org/1999/xlink" fill="none" version="1.1" width="64" height="64" viewBox="11 0 64 64"><g><g><path d="M7.06,70.36L7.06,78.18L11.68,78.18C11.5,79.0613,11.16,79.9225,10.5,80.6634C9.5,80.1028,8.68,79.4019,8.08,78.5806L6.44,79.16159999999999C7.16,80.2028,8.06,81.0841,9.14,81.8053C8.22,82.3659,7,82.8266,5.4,83.1872C5.78,83.5475,6.32,84.3088,6.56,84.7291C8.38,84.2084,9.76,83.5275,10.8,82.7466C12.88,83.7278,15.44,84.3088,18.4,84.56909999999999C18.64,84.0481,19.12,83.2272,19.54,82.8066C16.68,82.6262,14.16,82.2056,12.14,81.4247C12.92,80.4431,13.34,79.3419,13.54,78.18L18.38,78.18L18.38,70.36L13.74,70.36L13.74,68.88L18.98,68.88L18.98,67.22L6.64,67.22L6.64,68.88L11.86,68.88L11.86,70.36L7.06,70.36ZM8.82,74.92L11.86,74.92L11.86,75.8L11.84,76.76L8.82,76.76L8.82,74.92ZM13.74,74.92L16.54,74.92L16.54,76.76L13.72,76.76L13.74,75.8L13.74,74.92ZM8.82,71.78L11.86,71.78L11.86,73.58L8.82,73.58L8.82,71.78ZM13.74,71.78L16.54,71.78L16.54,73.58L13.74,73.58L13.74,71.78ZM4.96,66.1947C3.98,69.14,2.34,72.06,0.6,73.98C0.94,74.42,1.48,75.44,1.66,75.9C2.12,75.36,2.6,74.78,3.04,74.12L3.04,84.6691L4.84,84.6691L4.84,71.12C5.58,69.7,6.22,68.2,6.74,66.7175L4.96,66.1947ZM29.81,77.76C29.49,80.28,28.67,82.38,27.17,83.72C27.57,83.94,28.31,84.48,28.61,84.76310000000001C29.41,83.98,30.05,82.98,30.55,81.8C32.03,83.94,34.17,84.5,37.11,84.5L40.55,84.5C40.61,84.03999999999999,40.85,83.24,41.09,82.86C40.35,82.88,37.75,82.88,37.21,82.88C36.59,82.88,35.99,82.84,35.43,82.78L35.43,80.46000000000001L39.89,80.46000000000001L39.89,78.94L35.43,78.94L35.43,77.46000000000001L39.73,77.46000000000001L39.73,74.62L41.09,74.62L41.09,73.12L39.73,73.12L39.73,70.42L35.43,70.42L35.43,69.28L40.61,69.28L40.61,67.78L35.43,67.78L35.43,66.09309999999999L33.65,66.09309999999999L33.65,67.78L28.85,67.78L28.85,69.28L33.65,69.28L33.65,70.42L29.73,70.42L29.73,71.88L33.65,71.88L33.65,73.12L28.55,73.12L28.55,74.62L33.65,74.62L33.65,76L29.73,76L29.73,77.46000000000001L33.65,77.46000000000001L33.65,82.34C32.59,81.9,31.75,81.16,31.15,79.92C31.31,79.32,31.45,78.68,31.55,78L29.81,77.76ZM37.99,74.62L37.99,76L35.43,76L35.43,74.62L37.99,74.62ZM37.99,73.12L35.43,73.12L35.43,71.88L37.99,71.88L37.99,73.12ZM24.79,66.1331L24.79,70.03999999999999L22.47,70.03999999999999L22.47,71.8L24.79,71.8L24.79,75.62L22.17,76.36L22.61,78.18L24.79,77.5L24.79,82.6C24.79,82.88,24.69,82.94,24.45,82.94C24.21,82.96000000000001,23.47,82.96000000000001,22.67,82.94C22.91,83.44,23.13,84.24,23.17,84.7C24.47,84.7,25.27,84.64,25.81,84.34C26.35,84.03999999999999,26.55,83.53999999999999,26.55,82.6L26.55,76.96000000000001L28.61,76.3L28.37,74.58L26.55,75.12L26.55,71.8L28.55,71.8L28.55,70.03999999999999L26.55,70.03999999999999L26.55,66.1331L24.79,66.1331ZM52.38,66.3906L52.38,82.2C52.38,82.6,52.24,82.72,51.82,82.74C51.4,82.76,49.94,82.76,48.52,82.7C48.84,83.24,49.18,84.14,49.3,84.68C51.2,84.68,52.5,84.64,53.32,84.32C54.12,84,54.44,83.46000000000001,54.44,82.2L54.44,66.3906L52.38,66.3906ZM57.2,71.5538C58.86,74.4553,60.44,78.2175,60.88,80.6191L62.94,79.7984C62.42,77.3572,60.74,73.695,59.04,70.8734L57.2,71.5538ZM47.14,71.0334C46.68,73.695,45.6,77.1769,43.9,79.2581C44.42,79.4784,45.26,79.9384,45.72,80.25880000000001C47.48,78.0375,48.62,74.3753,49.28,71.3938L47.14,71.0334ZM65.55,79.4L65.97,81.34C68.07,80.88,70.87,80.28,73.53,79.66L73.35,77.86L70.55,78.44L70.55,70.56L73.09,70.56L73.09,68.7L65.79,68.7L65.79,70.56L68.63,70.56L68.63,78.82L65.55,79.4ZM73.29,67.32L73.29,69.22L76.01,69.22C75.59,71.52,74.99,74.1,74.47,75.82L81.73,75.82C81.43,79.9,81.11,81.84,80.53,82.32C80.27,82.52,79.97,82.56,79.51,82.56C78.89,82.56,77.31,82.53999999999999,75.71,82.4C76.11,82.96000000000001,76.43,83.78,76.47,84.34C77.95,84.4209,79.39,84.4412,80.17,84.3806C81.07,84.3,81.65,84.14,82.21,83.53999999999999C83.01,82.68,83.37,80.46000000000001,83.73,74.86C83.75,74.6,83.79,73.98,83.79,73.98L76.95,73.98C77.29,72.52,77.65,70.82,77.97,69.22L84.27,69.22L84.27,67.32L73.29,67.32Z" fill="#FFFFFF" fill-opacity="1"/></g><g><path d="M57.7813,15L28.18429,15C27.52271,15,26.9829997,15.549495,27.000409722,16.20202L27.000409722,33L59,33L59,16.20202C59,15.532323,58.460300000000004,15,57.7813,15ZM59,34L27.000409722,34L27.000409722,47.798C27.000409722,48.4677,27.54012,49,28.21911,49L57.7813,49C58.460300000000004,49,59,48.4677,59,47.798L59,34ZM32.45508,16.59277L53.5625,16.59277L53.5625,16.62922C53.5531,19.16257,51.496700000000004,21.1748,48.963300000000004,21.1748L35.98107,21.1748C34.03372,21.1748,32.45508,19.59616,32.45508,17.64881L32.45508,16.59277Z" fill-rule="evenodd" fill="#FFFFFF" fill-opacity="1"/></g></g></svg>