<svg xmlns="http://www.w3.org/2000/svg" xmlns:xlink="http://www.w3.org/1999/xlink" fill="none" version="1.1" width="46" height="46" viewBox="0 0 46 46"><g><g><path d="M22.9663,0C10.2821,0,0,10.2821,0,22.9663C0,35.6506,10.2821,45.9327,22.9663,45.9327C35.6506,45.9327,45.9327,35.6506,45.9327,22.9663C45.9327,10.2821,35.6506,0,22.9663,0ZM22.9663,38.0976C20.4878,38.0976,18.0677,37.3163,15.9709,35.8436C14.3949,34.7346,13.452,33.5492,13.1961,33.2125C12.7202,32.5794,12.8504,31.6769,13.4835,31.201C14.1165,30.725,15.019,30.8552,15.495,31.4883C15.7823,31.87,18.4269,35.224,22.9663,35.224C23.4423,35.224,27.7167,35.1207,30.4377,31.4883C30.9136,30.8552,31.8161,30.725,32.4492,31.201C33.0823,31.6769,33.2125,32.5794,32.7366,33.2125C31.2504,35.1971,29.1715,36.6653,26.7334,37.4555C24.9015,38.0527,23.3884,38.0976,22.9663,38.0976ZM11.8311,15.8272C13.6182,15.8272,15.0639,17.273,15.0639,19.06C15.0639,20.847,13.6182,22.2928,11.8311,22.2928C10.0441,22.2928,8.59834,20.847,8.59834,19.06C8.59834,17.273,10.0441,15.8272,11.8311,15.8272ZM34.1015,22.2928C32.3145,22.2928,30.8687,20.847,30.8687,19.06C30.8687,17.273,32.3145,15.8272,34.1015,15.8272C35.8885,15.8272,37.3343,17.273,37.3343,19.06C37.3343,20.847,35.8885,22.2928,34.1015,22.2928Z" fill="#1761FF" fill-opacity="1"/></g></g></svg>