<svg xmlns="http://www.w3.org/2000/svg" xmlns:xlink="http://www.w3.org/1999/xlink" fill="none" version="1.1" width="68" height="68" viewBox="0 0 68 68"><g><g style="opacity:0.5;"><ellipse cx="34" cy="34" rx="34" ry="34" fill="#000000" fill-opacity="1"/></g><g transform="matrix(0,1,-1,0,67,-39)"><path d="M87.7224,39.5Q87.7715,39.5851,87.815,39.673100000000005Q87.8584,39.7612,87.896,39.852000000000004Q87.9336,39.9427,87.9651,40.0357Q87.9967,40.128699999999995,88.0221,40.2235Q88.0476,40.3184,88.0667,40.414699999999996Q88.08590000000001,40.5111,88.09870000000001,40.6084Q88.1115,40.705799999999996,88.11789999999999,40.803799999999995Q88.12440000000001,40.9018,88.12440000000001,41Q88.12440000000001,41.0982,88.11789999999999,41.196200000000005Q88.1115,41.294200000000004,88.09870000000001,41.3916Q88.08590000000001,41.489000000000004,88.0667,41.585300000000004Q88.0476,41.6816,88.0221,41.7765Q87.9967,41.871300000000005,87.96520000000001,41.9643Q87.9336,42.0573,87.896,42.1481Q87.8584,42.2388,87.815,42.326899999999995Q87.7715,42.4149,87.7224,42.5Q87.6733,42.5851,87.6188,42.6667Q87.5642,42.748400000000004,87.5044,42.8263Q87.44460000000001,42.9042,87.37989999999999,42.978Q87.3151,43.0519,87.2457,43.121300000000005Q87.1762,43.190799999999996,87.1024,43.2555Q87.0286,43.3203,86.95060000000001,43.3801Q86.87270000000001,43.439800000000005,86.7911,43.4944Q86.7094,43.549,86.62440000000001,43.5981Q86.5393,43.6472,86.4512,43.6906Q86.3631,43.7341,86.2724,43.7716Q86.1817,43.809200000000004,86.0887,43.8408Q85.9957,43.8724,85.9008,43.897800000000004Q85.806,43.9232,85.7096,43.9424Q85.61330000000001,43.9615,85.5159,43.9743Q85.4186,43.9872,85.3206,43.9936Q85.2226,44,85.12440000000001,44L60.87564,44Q60.77743,44,60.67944,43.9936Q60.58144,43.9872,60.48407,43.9743Q60.3867,43.9615,60.29037,43.9424Q60.19405,43.9232,60.09919,43.897800000000004Q60.00432,43.8724,59.91133,43.8408Q59.81833,43.809200000000004,59.72759,43.7716Q59.63686,43.7341,59.54878,43.6906Q59.4607,43.6472,59.37565,43.5981Q59.29059,43.549,59.20893,43.4944Q59.12728,43.439800000000005,59.04936,43.3801Q58.97145,43.3203,58.89761,43.2555Q58.823769999999996,43.190799999999996,58.75432,43.121300000000005Q58.68488,43.0519,58.62013,42.978Q58.555369999999996,42.9042,58.495580000000004,42.8263Q58.4358,42.748400000000004,58.38124,42.6667Q58.32667,42.5851,58.27757,42.5Q58.22846,42.4149,58.18503,42.326899999999995Q58.14159,42.2388,58.10401,42.1481Q58.06642,42.0573,58.03485,41.9643Q58.00329,41.871300000000005,57.97787,41.7765Q57.95245,41.6816,57.93329,41.585300000000004Q57.91413,41.489000000000004,57.90131,41.3916Q57.88849,41.294200000000004,57.88207,41.196200000000005Q57.87564,41.0982,57.87564,41Q57.87564,40.9018,57.88207,40.803799999999995Q57.88849,40.705799999999996,57.90131,40.6084Q57.91413,40.5111,57.93329,40.414699999999996Q57.95245,40.3184,57.97787,40.2235Q58.00329,40.128699999999995,58.03485,40.0357Q58.06642,39.9427,58.10401,39.852000000000004Q58.14159,39.7612,58.18503,39.673100000000005Q58.22846,39.5851,58.27757,39.5L70.4019,18.5Q70.451,18.41495,70.5056,18.333289999999998Q70.5602,18.25163,70.6199,18.17372Q70.6797,18.0958,70.7445,18.02196Q70.8092,17.94812,70.8787,17.87868Q70.9481,17.80923,71.02199999999999,17.74448Q71.0958,17.67973,71.1737,17.61994Q71.2516,17.56015,71.33330000000001,17.50559Q71.4149,17.45103,71.5,17.40192Q71.5851,17.35282,71.6731,17.30938Q71.7612,17.26594,71.852,17.22836Q71.9427,17.19078,72.03569999999999,17.15921Q72.1287,17.12764,72.2235,17.10222Q72.3184,17.0768,72.4147,17.05764Q72.5111,17.03848,72.6084,17.025669999999998Q72.7058,17.01285,72.8038,17.00642Q72.90180000000001,17,73,17Q73.09819999999999,17,73.1962,17.00642Q73.2942,17.01285,73.3916,17.025669999999998Q73.489,17.03848,73.5853,17.05764Q73.6816,17.0768,73.7765,17.10222Q73.8713,17.12764,73.96430000000001,17.15921Q74.0573,17.19078,74.1481,17.22836Q74.2388,17.26595,74.3269,17.30938Q74.41499999999999,17.35282,74.5,17.40192Q74.5851,17.45103,74.66669999999999,17.50559Q74.7484,17.56015,74.8263,17.61994Q74.9042,17.67973,74.97800000000001,17.74448Q75.0519,17.80924,75.1213,17.87868Q75.1908,17.94813,75.2555,18.02196Q75.3203,18.0958,75.3801,18.17372Q75.4398,18.25163,75.4944,18.333289999999998Q75.549,18.41495,75.5981,18.5L87.7224,39.5Z" fill="#FFFFFF" fill-opacity="1"/></g></g></svg>