<svg xmlns="http://www.w3.org/2000/svg" xmlns:xlink="http://www.w3.org/1999/xlink" fill="none" version="1.1" width="64" height="64" viewBox="0 0 64 64"><g><g><g><g><path d="M50.9752,16C51.6852,16,52.1586,16.478528,52.1586,17.19632L52.1586,18.39264C52.632,18.87117,52.8686,19.34969,52.8686,19.82822L52.8686,24.613500000000002C52.8686,25.33129,52.3953,25.809820000000002,51.6852,25.809820000000002L49.7918,25.809820000000002L49.7918,33.227000000000004C49.7918,35.1411,48.1351,36.816,46.2416,36.816L45.5316,36.816C44.821600000000004,36.816,44.3482,37.2945,44.3482,38.012299999999996L44.3482,49.0184C44.3482,50.9325,42.6914,52.6074,40.798,52.6074L38.9046,52.6074L38.9046,53.0859C38.9046,54.2822,37.957899999999995,55,37.0111,55L16.89343,55C15.710037,55,15,54.0429,15,53.0859L15,18.6319C15,17.43558,15.946716,16.717791,16.89343,16.717791L37.0111,16.717791C38.194500000000005,16.717791,38.9046,17.67485,38.9046,18.6319L38.9046,49.7362L40.798,49.7362C41.5081,49.7362,41.9814,49.2577,41.9814,48.5399L41.9814,37.772999999999996C41.9814,35.8589,43.6382,34.184,45.5316,34.184L46.2416,34.184C46.9517,34.184,47.425,33.7055,47.425,32.987700000000004L47.425,25.57055L45.5316,25.57055C44.821600000000004,25.57055,44.3482,25.092019999999998,44.3482,24.37423L44.3482,19.58896C44.3482,19.11043,44.584900000000005,18.6319,45.0582,18.39264L45.0582,17.19632C45.0582,16.478528,45.5316,16,46.2416,16C46.9517,16,47.425,16.478528,47.425,17.19632L47.425,18.39264L49.7918,18.39264L49.7918,17.19632C49.7918,16.478528,50.2652,16,50.9752,16ZM29.200699999999998,37.5816L24.46716,37.5816C21.4211,37.5816,18.83898,39.9266,18.78764,43.2237L18.78686,43.323899999999995L18.78686,44.0417C18.78686,47.120999999999995,21.33852,49.7314,24.375,49.7833L24.46716,49.7841L29.200699999999998,49.7841C32.2468,49.7841,34.828900000000004,47.439,34.8803,44.1419L34.881,44.0417L34.881,43.323899999999995C34.881,40.213499999999996,32.5142,37.5816,29.200699999999998,37.5816ZM29.4374,39.749300000000005C31.31,39.749300000000005,32.9512,41.3876,32.986999999999995,43.2753L32.9876,43.338300000000004L32.9876,44.0561C32.9876,45.949200000000005,31.3671,47.6082,29.4998,47.644400000000005L29.4374,47.644999999999996L24.70384,47.644999999999996C22.83121,47.644999999999996,21.1901,46.0068,21.15425,44.1191L21.153660000000002,44.0561L21.153660000000002,43.338300000000004C21.153660000000002,41.4452,22.7742,39.7862,24.64151,39.7499L24.70384,39.749300000000005L29.4374,39.749300000000005ZM29.200699999999998,42.141999999999996C28.4907,42.141999999999996,28.0173,42.6205,28.0173,43.338300000000004L28.0173,44.0561C28.253999999999998,44.5346,28.7274,45.2524,29.200699999999998,45.2524C29.910800000000002,45.2524,30.3841,44.7739,30.3841,44.0561L30.3841,43.338300000000004C30.3841,42.6205,29.910800000000002,42.141999999999996,29.200699999999998,42.141999999999996ZM24.70384,42.141999999999996C23.9938,42.141999999999996,23.52044,42.6205,23.52044,43.338300000000004L23.52044,44.0561C23.52044,44.5346,23.9938,45.2524,24.70384,45.2524C25.413899999999998,45.2524,25.8872,44.7739,25.8872,44.0561L25.8872,43.338300000000004C25.8872,42.6205,25.413899999999998,42.141999999999996,24.70384,42.141999999999996ZM29.200699999999998,21.9816L24.46716,21.9816C21.4211,21.9816,18.83898,24.32662,18.78764,27.6237L18.78686,27.7239L18.78686,28.4417C18.78686,31.521,21.33852,34.1314,24.375,34.1833L24.46716,34.184L29.200699999999998,34.184C32.2468,34.184,34.828900000000004,31.839,34.8803,28.5419L34.881,28.4417L34.881,27.7239C34.881,24.613500000000002,32.5142,21.9816,29.200699999999998,21.9816ZM29.4374,24.13497C31.31,24.13497,32.9512,25.77321,32.986999999999995,27.660899999999998L32.9876,27.7239L32.9876,28.4417C32.9876,30.3348,31.3671,31.9938,29.4998,32.030100000000004L29.4374,32.030699999999996L24.70384,32.030699999999996C22.83121,32.030699999999996,21.1901,30.392400000000002,21.15425,28.5047L21.153660000000002,28.4417L21.153660000000002,27.7239C21.153660000000002,25.830849999999998,22.7742,24.17181,24.64151,24.13557L24.70384,24.13497L29.4374,24.13497ZM29.4374,26.5276C28.7432,26.5276,28.275199999999998,26.9851,28.2547,27.6764L28.253999999999998,27.7239L28.253999999999998,28.4417C28.253999999999998,28.9202,28.7274,29.637999999999998,29.4374,29.637999999999998C30.131700000000002,29.637999999999998,30.5997,29.180500000000002,30.6201,28.4892L30.6208,28.4417L30.6208,27.7239C30.6208,27.0061,30.1475,26.5276,29.4374,26.5276ZM24.70384,26.5276C23.9938,26.5276,23.52044,27.0061,23.52044,27.7239L23.52044,28.4417C23.52044,28.9202,23.9938,29.637999999999998,24.70384,29.637999999999998C25.413899999999998,29.637999999999998,25.8872,29.1595,25.8872,28.4417L25.8872,27.7239C25.8872,27.0061,25.413899999999998,26.5276,24.70384,26.5276ZM50.5019,21.024540000000002L46.715,21.024540000000002L46.715,23.417180000000002L50.5019,23.417180000000002L50.5019,21.024540000000002Z" fill="#FFFFFF" fill-opacity="1"/></g></g></g></g></svg>