<svg xmlns="http://www.w3.org/2000/svg" xmlns:xlink="http://www.w3.org/1999/xlink" fill="none" version="1.1" width="46"
  height="46" viewBox="0 0 46 46">
  <g>
    <g>
      <ellipse cx="23" cy="23" rx="23" ry="23" fill="#000000" fill-opacity="0.10000000149011612" />
    </g>
    <g transform="matrix(0,-1,1,0,-15,51)">
      <path
        d="M35.3401,33.601985Q35.9649,33,36.8464,33Q37.727900000000005,33,38.3528,33.601985Q39,34.20397,39,35.04245Q39,35.88093,38.3528,36.48291L30.0064,44.4807Q29.738599999999998,44.7817,29.3369,44.8999Q28.935200000000002,45.0182,28.488799999999998,44.996700000000004Q28.0425,44.9752,27.607329999999997,44.813900000000004Q27.172159999999998,44.652699999999996,26.85972,44.3517L18.647184,36.48291Q18,35.88093,18,35.04245Q18,34.20397,18.647184,33.601985Q18.959617,33.300993,19.35016,33.150497Q19.7407,33.0000009611,20.15356,33.0000009611Q20.56642,33.0000009611,20.96812,33.150497Q21.36982,33.300993,21.68225,33.601985L28.511200000000002,40.09482L35.3401,33.601985Z"
        fill="#FFFFFF" fill-opacity="1" />
    </g>
  </g>
</svg>