<svg t="1713416819371" class="icon" viewBox="0 0 1024 1024" version="1.1" xmlns="http://www.w3.org/2000/svg"
  p-id="11195" width="200" height="200">
  <path
    d="M475.904 164.0448L123.7504 502.2208a44.4416 44.4416 0 0 0 0 64.5632 48.9984 48.9984 0 0 0 67.2256 0l271.0528-260.1984v658.944c0 25.1904 21.1968 45.6704 47.5648 45.6704 26.2144 0 47.5136-20.48 47.5136-45.6704V306.5856l270.848 260.1984a48.9984 48.9984 0 0 0 67.2768 0 44.4416 44.4416 0 0 0 0-64.5632l-352.1024-338.176a48.4352 48.4352 0 0 0-33.536-13.312 48.4864 48.4864 0 0 0-33.6896 13.312z m442.8288-59.904c26.2144 0 47.5136-20.48 47.5136-45.6704S944.9472 12.8 918.7328 12.8H100.3008c-26.368 0-47.5648 20.48-47.5648 45.6704s21.1968 45.6704 47.5648 45.6704h818.432z"
    fill="#303133" p-id="11196"></path>
</svg>