<svg xmlns="http://www.w3.org/2000/svg" xmlns:xlink="http://www.w3.org/1999/xlink" fill="none" version="1.1" width="50" height="50" viewBox="0 0 50 50"><g><g><g><path d="M29.4449,10.33333L21.4996,10.33333C21.1023,10.33333,20.8375,10.06667,20.8375,9.66667L20.8375,7.533329999999999C20.8375,7,20.969900000000003,6.46667,21.3672,6.06667L21.8968,5.533333C22.2941,5.266667,22.8238,5,23.3535,5L27.591,5C28.1207,5,28.6503,5.266667,29.0476,5.533333L29.5773,6.06667C29.8421,6.46667,30.107,7,30.107,7.533329999999999L30.107,9.66667C30.107,10.06667,29.8421,10.33333,29.4449,10.33333ZM32.7554,18.4667C32.623000000000005,18.333399999999997,32.4906,18.2001,32.4906,18.0667C32.0933,16.333399999999997,31.1664,11.66675,28.5179,11.66675L22.4265,11.66675C19.645699999999998,11.66675,18.71871,16.333399999999997,18.453870000000002,18.0667C18.453870000000002,18.2001,18.32145,18.333399999999997,18.18902,18.4667C15.67301,20.4667,14.216370000000001,23.4001,14.216370000000001,26.4667C14.216370000000001,32.3334,19.116,37.0001,25.3398,37.0001L25.4722,37.0001C28.6503,37.0001,31.696,35.5334,33.947199999999995,33.2667C35.933499999999995,31.2667,36.8605,28.6001,36.7281,26.0667C36.5957,23.1334,35.138999999999996,20.333399999999997,32.7554,18.4667ZM9.316793,33.8001L13.28945,31.8001C13.55429,31.5334,13.95156,31.6668,14.08398,32.0668C14.2164,32.4668,14.08398,32.8668,13.819130000000001,33.0001L9.84648,35.0001C9.84648,35.1334,9.714059,35.1334,9.581637,35.1334C9.449215,35.1334,9.184372,35.0001,9.0519497,34.7334C8.9195279,34.3334,9.0519497,33.9334,9.316793,33.8001ZM37.655100000000004,31.8001L41.6277,33.8001C42.025,33.9334,42.1574,34.3334,41.7601,34.7334C41.7601,35.0001,41.4953,35.1334,41.2304,35.1334C41.098,35.1334,41.098,35.0001,40.965599999999995,35.0001L36.9929,33.0001C36.7281,32.7334,36.5957,32.3334,36.7281,32.0668C36.9929,31.8001,37.3902,31.6668,37.655100000000004,31.8001ZM15.67305,41.2667L18.32148,37.2667C18.45391,37.0001,18.98359,36.8667,19.2484,37.1334C19.5133,37.4001,19.645699999999998,37.8001,19.3809,38.0667L16.73242,42.0667C16.6,42.2001,16.467579999999998,42.3334,16.20274,42.3334C16.07031,42.3334,15.93789,42.3334,15.80547,42.2001C15.54063,41.9334,15.40821,41.5334,15.67305,41.2667ZM31.6961,37.1334C31.9609,36.8667,32.3582,37.0001,32.623000000000005,37.2667L35.2715,41.2667C35.5363,41.5334,35.4039,41.9334,35.1391,42.2001C35.0066,42.3334,34.8742,42.3334,34.7418,42.3334C34.6094,42.3334,34.3445,42.2001,34.2121,42.0667L31.5637,38.0667C31.2988,37.8001,31.4313,37.4001,31.6961,37.1334ZM24.8101,38.9999C24.8101,38.5999,25.075,38.3333,25.4722,38.3333C25.8695,38.3333,26.1343,38.5999,26.1343,38.9999L26.1343,44.3333C26.1343,44.7333,25.8695,44.9999,25.4722,44.9999C25.075,44.9999,24.8101,44.7333,24.8101,44.3333L24.8101,38.9999Z" fill-rule="evenodd" fill="#FFFFFF" fill-opacity="1"/></g></g></g></svg>