<?xml version="1.0" encoding="UTF-8"?>
<svg width="45px" height="25px" viewBox="0 0 45 25" version="1.1" xmlns="http://www.w3.org/2000/svg"
    xmlns:xlink="http://www.w3.org/1999/xlink">
    <title>L-dianchi-08</title>
    <g id="页面-1" stroke="none" stroke-width="1" fill="none" fill-rule="evenodd">
        <g id="3D交互切图10.27" transform="translate(-1151.000000, -340.000000)">
            <g id="编组-47" transform="translate(1151.000000, 340.000000)">
                <g id="电池电量备份-14" fill-rule="nonzero" fill="#ffffff">
                    <path
                        d="M43.2551615,9.14656259 C43.0354137,9.02067276 42.8947751,8.79059823 42.8947751,8.54315958 L42.8947751,4.23251792 C42.8947751,1.90572645 40.9653892,7.37647339e-06 38.6096925,7.37647339e-06 L4.28508255,7.37647339e-06 C1.92938589,-0.00432625072 0,1.90138542 0,4.22817689 L0,20.7631558 C0,23.0942883 1.92938589,25.0000074 4.28508255,25.0000074 L38.6052976,25.0000074 C40.9609942,25.0000074 42.8903801,23.0942883 42.8903801,20.7674969 L42.8903801,16.4568552 C42.8903801,16.2050755 43.0310187,15.979342 43.2507665,15.8534522 C44.2967662,15.2500492 44.9999797,14.1300637 44.9999797,12.8494602 L44.9999797,12.1548956 C45.0043542,10.8699511 44.3011611,9.74562458 43.2551615,9.14656259 Z M40.0820029,20.7674969 C40.0820029,21.2884203 39.8095156,21.6313616 39.6469022,21.7919797 C39.4842889,21.9525977 39.1326923,22.2217415 38.6096925,22.2217415 L4.28508255,22.2217415 C3.76208273,22.2217415 3.41048622,21.9525977 3.24787283,21.7919797 C3.08525944,21.6313616 2.81277214,21.2840793 2.81277214,20.7674969 L2.81277214,4.22817689 C2.81277214,3.71159446 3.08525944,3.36431215 3.24787283,3.20369408 C3.41048622,3.04307601 3.76208273,2.77393222 4.28508255,2.77393222 L38.6052976,2.77393222 C39.1282974,2.77393222 39.4798939,3.04307601 39.6425073,3.20369408 C39.8051207,3.36431215 40.077608,3.71159446 40.077608,4.22817689 L40.077608,20.7674969 L40.0820029,20.7674969 Z"
                        id="形状"></path>
                    <path class="icon-path"
                        d="M37.6428571,5.32608696 L37.6428571,19.673913 C37.6428571,20.0496894 37.2716071,20.3571429 36.8178571,20.3571429 L5.46785714,20.3571429 C5.01410714,20.3571429 4.64285714,20.0496894 4.64285714,19.673913 L4.64285714,5.32608696 C4.64285714,4.95031056 5.01410714,4.64285714 5.46785714,4.64285714 L36.8178571,4.64285714 C37.2716071,4.64285714 37.6428571,4.95031056 37.6428571,5.32608696 Z"
                        id="路径"></path>
                </g>
                <g id="#meaxure-overlay-4C1A46B6-D72F-4F55-BE5A-A596B7246DEF"></g>
            </g>
        </g>
    </g>
</svg>