<svg xmlns="http://www.w3.org/2000/svg" xmlns:xlink="http://www.w3.org/1999/xlink" fill="none" version="1.1" width="50" height="50" viewBox="0 0 50 50"><g><g><g><path d="M30.9011,15.873328942017555L32.874300000000005,12.513688942017556C33.1567,12.032888942017555,32.9891,11.418090942017555,32.5,11.139812942017555C32.265,11.006566792017555,31.9858,10.970544542017555,31.7238,11.039672942017555C31.4618,11.108800942017556,31.2385,11.277415942017555,31.103,11.508414942017556L28.5386,15.873328942017555L21.4607,15.873328942017555L18.89705,11.508414942017556C18.71565,11.194817942017556,18.37722,11.000796856017555,18.01022,11.000003807507555C17.64322,10.999210759017556,17.303919999999998,11.191766942017555,17.12113,11.504577942017555C16.93834,11.817387942017556,16.94007,12.202488942017556,17.12568,12.513688942017556L19.09818,15.873328942017555L14.090910000000001,15.873328942017555C11.83156,15.873328942017555,10,17.673638942017554,10,19.894438942017555L10,35.97889894201755C10,38.199698942017555,11.83156,39.999998942017555,14.090910000000001,39.999998942017555L35.909099999999995,39.999998942017555C38.1684,39.999998942017555,40,38.199698942017555,40,35.97889894201755L40,19.894438942017555C40,17.673638942017554,38.1684,15.873328942017555,35.909099999999995,15.873328942017555L30.9011,15.873328942017555ZM28.7809,26.666098942017555L23.3824,23.279998942017556C23.177,23.150898942017555,22.9439,23.083298942017556,22.7061,23.083298942017556C21.9581,23.083298942017556,21.351399999999998,23.743298942017553,21.351399999999998,24.558098942017555L21.351399999999998,31.274298942017555C21.351,31.527898942017554,21.4116,31.777798942017554,21.5277,32.00199894201755C21.8966,32.710398942017555,22.723,32.95969894201755,23.3736,32.557798942017556L28.7721,29.226998942017556C28.9829,29.097198942017556,29.1572,28.907998942017556,29.2782,28.680198942017554C29.6518,27.974498942017554,29.4295,27.072798942017556,28.7809,26.666098942017555Z" fill-rule="evenodd" fill="#FFFFFF" fill-opacity="1"/></g></g></g></svg>