<svg xmlns="http://www.w3.org/2000/svg" xmlns:xlink="http://www.w3.org/1999/xlink" fill="none" version="1.1" width="28" height="28" viewBox="0 0 28 28"><defs><clipPath id="master_svg0_432_01719"><rect x="0" y="0" width="28" height="28" rx="0"/></clipPath></defs><g clip-path="url(#master_svg0_432_01719)"><g><path d="M25.631875390625,11.591C23.334975390625,11.591,21.101075390625,10.8445,19.263475390625,9.46367L19.263475390625,19.0969C19.263475390625,24.016,15.473675390625,28,10.797895390625,28C6.122115390625,28,2.332275390625,24.016,2.332275390625,19.0969C2.332275390625,14.1777,6.122115390625,10.1938,10.797905390625,10.1938C11.265475390625,10.1938,11.719385390625,10.2348,12.162355390625,10.3113L12.162355390625,15.4137C11.738525390625,15.2469,11.287355390625,15.1621,10.833445390625,15.1621C8.747115390625,15.1621,7.054545390625,16.9395,7.054545390625,19.1352C7.054545390625,21.3281,8.747115390625,23.1082,10.833445390625,23.1082C12.917075390625,23.1082,14.609575390625,21.3281,14.609575390625,19.1352L14.609575390625,0L19.331875390625,0C19.331875390625,3.67773,22.167475390625,6.6582,25.664675390625,6.6582L25.664675390625,11.5883L25.631875390625,11.591Z" fill="#FFFFFF" fill-opacity="1"/></g></g></svg>