<svg xmlns="http://www.w3.org/2000/svg" xmlns:xlink="http://www.w3.org/1999/xlink" fill="none" version="1.1" width="28" height="28" viewBox="0 0 28 28"><defs><clipPath id="master_svg0_328_02302"><rect x="0" y="0" width="27.995105743408203" height="28" rx="0"/></clipPath></defs><g clip-path="url(#master_svg0_328_02302)"><g><path d="M18.9492,9.49546484375C19.2711,9.49546484375,19.5878,9.51996484375,19.9063,9.55496484375C19.0489,5.5614648437500005,14.7814,2.59521484375,9.90852,2.59521484375C4.46172,2.59521484375,0,6.30696484375,0,11.02321484375C0,13.74441484375,1.48374,15.97921484375,3.96481,17.715214843749997L2.97448,20.69551484375L6.43887,18.95951484375C7.67766,19.20271484375,8.67148,19.45471484375,9.90852,19.45471484375C10.22,19.45471484375,10.5279,19.44071484375,10.8324,19.41801484375C10.6399,18.75471484375,10.5262,18.06171484375,10.5262,17.33901484375C10.5279,13.00941484375,14.2443,9.49546484375,18.9492,9.49546484375ZM13.6231,6.80921484375C14.372,6.80921484375,14.8637,7.30096484375,14.8637,8.04646484375C14.8637,8.788464843749999,14.372,9.285464843749999,13.6231,9.285464843749999C12.883,9.285464843749999,12.1376,8.788464843749999,12.1376,8.04646484375C12.1376,7.29921484375,12.8812,6.80921484375,13.6231,6.80921484375ZM6.68908,9.285464843749999C5.94546,9.285464843749999,5.19659,8.788464843749999,5.19659,8.04646484375C5.19659,7.30096484375,5.94546,6.80921484375,6.68908,6.80921484375C7.4327,6.80921484375,7.92611,7.29921484375,7.92611,8.04646484375C7.92611,8.788464843749999,7.4327,9.285464843749999,6.68908,9.285464843749999ZM27.9951,17.21991484375C27.9951,13.25801484375,24.0303,10.029214843750001,19.5773,10.029214843750001C14.8619,10.029214843750001,11.1508,13.25971484375,11.1508,17.21991484375C11.1508,21.19241484375,14.8637,24.41071484375,19.5773,24.41071484375C20.5642,24.41071484375,21.5597,24.16391484375,22.5501,23.91541484375L25.2673,25.40651484375L24.522,22.92841484375C26.5114,21.43391484375,27.9951,19.45471484375,27.9951,17.21991484375ZM16.8443,15.97921484375C16.3526,15.97921484375,15.854,15.48921484375,15.854,14.98871484375C15.854,14.49521484375,16.3526,13.99821484375,16.8443,13.99821484375C17.5967,13.99821484375,18.0848,14.49521484375,18.0848,14.98871484375C18.0848,15.48921484375,17.5967,15.97921484375,16.8443,15.97921484375ZM22.2946,15.97921484375C21.8064,15.97921484375,21.3095,15.48921484375,21.3095,14.98871484375C21.3095,14.49521484375,21.8047,13.99821484375,22.2946,13.99821484375C23.04,13.99821484375,23.5351,14.49521484375,23.5351,14.98871484375C23.5351,15.48921484375,23.04,15.97921484375,22.2946,15.97921484375Z" fill="#FFFFFF" fill-opacity="1"/></g></g></svg>