<svg xmlns="http://www.w3.org/2000/svg" xmlns:xlink="http://www.w3.org/1999/xlink" fill="none" version="1.1" width="32" height="32" viewBox="0 0 32 32"><defs><clipPath id="master_svg0_9146_89733"><rect x="0" y="0" width="32" height="32" rx="0"/></clipPath></defs><g clip-path="url(#master_svg0_9146_89733)"><g><path d="M23.19645,16.4587890625C26.56005,16.4587890625,29.28545,19.195489062500002,29.28545,22.5697890625L29.28545,22.6670890625C29.28545,25.8910890625,26.36105,28.6170890625,23.33545,28.6170890625L21.91545,28.6170890625C21.88915,28.6170890625,21.86295,28.6159890625,21.83675,28.6137890625C17.02745,28.2144890625,12.07842,26.1097890625,8.96442,23.1797890625C5.28908,19.7217890625,2.71875,14.4204890625,2.71875,9.4947890625C2.71875,5.9384590625,5.35642,3.3837890625,8.80775,3.3837890625C12.17108,3.3837890625,14.89645,6.1204590625,14.89645,9.4947890625C14.89645,11.8707890625,13.51575,13.8314890625,11.40575,14.7797890625C12.11875,15.9285890625,12.97565,16.9815890625,13.95575,17.9130890625C15.08975,18.9897890625,16.347749999999998,19.8610890625,17.66675,20.4697890625C18.48875,18.0894890625,20.61005,16.4587890625,23.19675,16.4587890625L23.19645,16.4587890625Z" fill="#FFFFFF" fill-opacity="1" style="mix-blend-mode:passthrough"/></g></g></svg>