<svg xmlns="http://www.w3.org/2000/svg" xmlns:xlink="http://www.w3.org/1999/xlink" fill="none" version="1.1" width="28" height="28" viewBox="1 1 28 28"><defs><clipPath id="master_svg0_328_02309"><rect x="0" y="0" width="30" height="30" rx="0"/></clipPath></defs><g clip-path="url(#master_svg0_328_02309)"><g><path d="M15.00006103515625,1.875C7.75201103515625,1.875,1.87506103515625,7.75195,1.87506103515625,15C1.87506103515625,22.248,7.75201103515625,28.125,15.00006103515625,28.125C22.24806103515625,28.125,28.12506103515625,22.248,28.12506103515625,15C28.12506103515625,7.75195,22.24806103515625,1.875,15.00006103515625,1.875ZM19.89266103515625,20.4375C18.70316103515625,21.5332,17.08016103515625,22.1777,15.14366103515625,22.1777C12.33986103515625,22.1777,9.91412103515625,20.5693,8.73346103515625,18.2256C8.24713103515625,17.2559,7.96881103515625,16.1602,7.96881103515625,15C7.96881103515625,13.8398,8.24713103515625,12.7441,8.73346103515625,11.77441C9.91412103515625,9.42773,12.33986103515625,7.81934,15.14366103515625,7.81934C17.07716103515625,7.81934,18.70026103515625,8.53125,19.94536103515625,9.68848L17.88876103515625,11.74805C17.14456103515625,11.03613,16.19826103515625,10.67578,15.14656103515625,10.67578C13.27736103515625,10.67578,11.69537103515625,11.9385,11.12994103515625,13.6348C10.98639103515625,14.0654,10.90436103515625,14.5254,10.90436103515625,15C10.90436103515625,15.4746,10.98639103515625,15.9346,11.12994103515625,16.3652C11.69537103515625,18.0615,13.27736103515625,19.3242,15.14366103515625,19.3242C16.11046103515625,19.3242,16.93076103515625,19.0693,17.57236103515625,18.6387C18.33406103515625,18.1289,18.83796103515625,17.3701,19.00496103515625,16.4707L15.14366103515625,16.4707L15.14366103515625,13.6934L21.90236103515625,13.6934C21.98736103515625,14.165,22.03136103515625,14.6543,22.03136103515625,15.1611C22.03136103515625,17.349600000000002,21.24906103515625,19.1865,19.89266103515625,20.4375Z" fill="#FFFFFF" fill-opacity="1"/></g></g></svg>