<svg xmlns="http://www.w3.org/2000/svg" xmlns:xlink="http://www.w3.org/1999/xlink" fill="none" version="1.1" width="28" height="28" viewBox="0 1 28 28"><defs><clipPath id="master_svg0_328_02311"><rect x="0" y="0" width="28" height="28.00489616394043" rx="0"/></clipPath></defs><g clip-path="url(#master_svg0_328_02311)"><g><path d="M25.1492,9.83341C25.1492,9.57072,25.1441,9.31098,25.1325,9.05303C26.2553,8.21629,27.2294,7.16886,27.9999,5.97028C26.9536,6.44117,25.8402,6.74583,24.6999,6.87327C25.8867,6.14283,26.7968,4.97463,27.2269,3.57273C26.1157,4.24676,24.8866,4.72863,23.5797,4.97972C22.5326,3.788004,21.0383,3.0289627,19.3863,3.000756783C16.2137,2.9482967,13.6418,5.62984,13.6418,8.98936C13.6418,9.46688,13.6917,9.92998,13.7908,10.37718C9.01326,10.06968,4.7797,7.58242,1.9478,3.832856C1.45366,4.7312,1.17017,5.78109,1.17017,6.906219999999999C1.17017,9.03426,2.18437,10.92564,3.72535,12.04172C2.78197,11.99904,1.89826,11.71328,1.12315,11.24475L1.12315,11.32289C1.12315,14.2971,3.10394,16.789099999999998,5.73221,17.3705C5.25038,17.5076,4.74217,17.5789,4.21948,17.5763C3.85633,17.5744,3.49435,17.5348,3.1394,17.458C3.86971,19.8953,5.99225,21.676,8.5051,21.7353C6.53844,23.3663,4.06104,24.3405,1.37133,24.3337C0.907569,24.3337,0.44929,24.3026,0,24.2462C2.54328,25.991,5.56222,27.0073,8.80756,27.0073C19.3718,27.0098,25.1492,17.8129,25.1492,9.83341Z" fill="#FFFFFF" fill-opacity="1"/></g></g></svg>