<?xml version="1.0" encoding="UTF-8"?>
<svg width="36px" height="20px" viewBox="0 0 36 20" version="1.1" xmlns="http://www.w3.org/2000/svg"
    xmlns:xlink="http://www.w3.org/1999/xlink">
    <title>im-dianchi</title>
    <g id="页面-1" stroke="none" stroke-width="1" fill="none" fill-rule="evenodd">
        <g id="3D交互切图10.27" transform="translate(-799.000000, -434.000000)">
            <g id="编组-39" transform="translate(799.000000, 434.000000)">
                <g id="电池电量" opacity="0.600000024" fill="#FFFFFF" fill-rule="nonzero">
                    <path
                        d="M34.6041292,7.31724791 C34.4283309,7.21653608 34.3158201,7.03247651 34.3158201,6.83452565 L34.3158201,3.38601334 C34.3158201,1.52458071 32.7723114,5.90117687e-06 30.887754,5.90117687e-06 L3.42806604,5.90117687e-06 C1.54350871,-0.00346099956 0,1.52110789 0,3.38254051 L0,16.6105198 C0,18.4754252 1.54350871,19.9999941 3.42806604,19.9999941 L30.8842381,19.9999941 C32.7687954,19.9999941 34.3123041,18.4754252 34.3123041,16.6139926 L34.3123041,13.1654803 C34.3123041,12.9640566 34.424815,12.7834698 34.6006132,12.682758 C35.4374129,12.2000357 35.9999838,11.3040476 35.9999838,10.2795651 L35.9999838,9.72391361 C36.0034833,8.69595827 35.4409289,7.79649736 34.6041292,7.31724791 Z M32.0656024,16.6139926 C32.0656024,17.0307312 31.8476125,17.3050842 31.7175218,17.4335786 C31.5874311,17.562073 31.3061539,17.777388 30.887754,17.777388 L3.42806604,17.777388 C3.00966619,17.777388 2.72838897,17.562073 2.59829826,17.4335786 C2.46820755,17.3050842 2.25021771,17.0272584 2.25021771,16.6139926 L2.25021771,3.38254051 C2.25021771,2.96927469 2.46820755,2.69144892 2.59829826,2.56295451 C2.72838897,2.43446009 3.00966619,2.21914512 3.42806604,2.21914512 L30.8842381,2.21914512 C31.3026379,2.21914512 31.5839151,2.43446009 31.7140058,2.56295451 C31.8440965,2.69144892 32.0620864,2.96927469 32.0620864,3.38254051 L32.0620864,16.6139926 L32.0656024,16.6139926 Z"
                        id="形状"></path>
                    <path
                        d="M21,4.26086831 L21,15.7391258 C21,16.0397468 21,16.2857095 21,16.2857095 L4.27142857,16.2857095 C3.965,16.2857095 3.71428571,16.0397468 3.71428571,15.7391258 L3.71428571,4.26086831 C3.71428571,3.96024728 3.965,3.71428462 4.27142857,3.71428462 L21,3.71428462 C21,3.71428462 21,3.96024728 21,4.26086831 Z"
                        id="路径"></path>
                </g>
                <g id="#meaxure-overlay-F9394203-2837-40B1-B104-00EF8AB4F5DD"></g>
            </g>
        </g>
    </g>
</svg>