<svg xmlns="http://www.w3.org/2000/svg" xmlns:xlink="http://www.w3.org/1999/xlink" fill="none" version="1.1" width="50" height="50" viewBox="268 25 50 50"><defs><clipPath id="master_svg0_425_4880"><rect x="0" y="0" width="636" height="381" rx="0"/></clipPath></defs><g clip-path="url(#master_svg0_425_4880)"><g><g style="opacity:0.800000011920929;"><g><path d="M301.00260000000003,68L284.00936,68C282.3501,68,281,66.6186,281,64.922L281,36.07759C281,34.38071,282.3501,33,284.00936,33L301.00260000000003,33C302.66179999999997,33,304.012,34.38075,304.012,36.07759L304.012,64.922C304.0119,66.6186,302.66179999999997,68,301.00260000000003,68ZM284.00966,34.81036C283.32624,34.81036,282.77051,35.37871,282.77051,36.07761L282.77051,64.9221C282.77051,65.62100000000001,283.32628,66.1896,284.00966,66.1896L301.0029,66.1896C301.6863,66.1896,302.2421,65.62100000000001,302.2421,64.9221L302.2421,36.07761C302.2421,35.37871,301.6864,34.81036,301.0029,34.81036L284.00966,34.81036ZM283.9502,60.1552L301.0616,60.1552L301.0616,36.01721L283.9502,36.01721L283.9502,60.1552ZM299.2918,58.344899999999996L285.7207,58.344899999999996L285.7207,37.827510000000004L299.2918,37.827510000000004L299.2918,58.344899999999996ZM294.0709,63.1359C294.0709,63.9538,293.4223,64.61619999999999,292.6229,64.61619999999999C291.8234,64.61619999999999,291.1748,63.9538,291.1748,63.1359C291.1748,62.318,291.8233,61.654399999999995,292.6229,61.654399999999995C293.4223,61.654399999999995,294.0709,62.318,294.0709,63.1359Z" fill-rule="evenodd" fill="#FFFFFF" fill-opacity="1"/></g></g></g></g></svg>