<svg xmlns="http://www.w3.org/2000/svg" xmlns:xlink="http://www.w3.org/1999/xlink" fill="none" version="1.1" width="50" height="50" viewBox="107 25 50 50"><defs><clipPath id="master_svg0_425_4880"><rect x="0" y="0" width="636" height="381" rx="0"/></clipPath></defs><g clip-path="url(#master_svg0_425_4880)"><g><g style="opacity:0.800000011920929;"><g><path d="M115,57.0951C115,59.486999999999995,116.90188,61.4467,119.2233,61.4467L145.7937,61.4467C146.9404,61.4467,148.0032,60.985600000000005,148.8143,60.1499C149.5975,59.314099999999996,150.04500000000002,58.2478,150.017,57.0951L150.017,40.35158C150.017,37.959649999999996,148.11509999999998,36,145.7937,36L119.2233,36C116.90188,36,115,37.959649999999996,115,40.35158L115,57.0951ZM116.95801,40.3516C116.95801,39.05477,117.96489,38.0173,119.22348,38.0173L145.7939,38.0173C147.0525,38.0173,148.05939999999998,39.05477,148.05939999999998,40.3516L148.05939999999998,57.0951C148.05939999999998,58.3919,147.0525,59.4294,145.7939,59.4294L119.22348,59.4294C117.96489,59.4294,116.95801,58.3919,116.95801,57.0951L116.95801,40.3516Z" fill-rule="evenodd" fill="#FFFFFF" fill-opacity="1"/></g><g><path d="M132.87209127563477,64.96253977966309C132.48052727563476,64.96253977966309,132.14490127563477,64.61670977966308,132.14490127563477,64.21325977966309L132.14490127563477,61.187319779663085C132.14490127563477,60.78386077966309,132.48052727563476,60.438039779663086,132.87209127563477,60.438039779663086C133.26365127563477,60.438039779663086,133.59928127563475,60.78386077966309,133.59928127563475,61.187319779663085L133.59928127563475,64.18443977966308C133.59928127563475,64.61670977966308,133.29162127563475,64.96253977966309,132.87209127563477,64.96253977966309Z" fill="#FFFFFF" fill-opacity="1"/></g><g><path d="M124.67721966540527,66.0000024066162C124.17378066540527,66.0000024066162,123.75424766540527,65.56772240661621,123.75424766540527,65.04899140661621C123.75424766540527,64.50144040661621,124.14581166540528,64.09798240661621,124.67721966540527,64.09798240661621L140.33974766540527,64.09798240661621C140.84324766540527,64.09798240661621,141.26274766540527,64.53025940661621,141.26274766540527,65.04899140661621C141.29074766540526,65.27954240661622,141.20684766540526,65.5100824066162,141.03894766540526,65.68299240661621C140.87114766540526,65.8847224066162,140.6194476654053,66.0000024066162,140.33974766540527,66.0000024066162L124.67721966540527,66.0000024066162Z" fill="#FFFFFF" fill-opacity="1"/></g><g><path d="M139.01279532470704,53.99864C138.54859532470704,54.0208,138.11662532470703,53.77149,137.92011532470704,53.36808L134.11716432470703,45.5568C133.85056132470703,45.00909,134.09802102470704,44.358085,134.66988132470703,44.102739C135.24174532470704,43.847394,135.92145532470704,44.0844044,136.18805532470702,44.632116L139.01279532470704,50.43333L141.83721532470702,44.632116C142.00967532470702,44.277809,142.36638532470704,44.0385373,142.77298532470704,44.00443311C143.17958532470703,43.9703289,143.57429532470704,44.146573,143.80843532470703,44.466776C144.04259532470704,44.78698,144.08059532470702,45.2025,143.90810532470704,45.5568L140.10547532470704,53.36777C139.90896532470703,53.77118,139.47699532470702,54.0205,139.01279532470704,53.998329999999996L139.01279532470704,53.99864Z" fill="#FFFFFF" fill-opacity="1"/></g><g><path d="M128.06758589691162,46.12118L128.06758589691162,52.94138C128.06758589691162,53.52604,127.59247589691162,54,127.00640589691162,54C126.42032589691162,54,125.94521589691162,53.52604,125.94521589691162,52.94138L125.94521589691162,46.12118L123.06680589691162,46.12118C122.47963689691161,46.12118,122.00364589691162,45.64634,122.00364589691162,45.06059C122.00364589691162,44.474842,122.47963689691161,44.0000000246874,123.06680589691162,44L130.94569589691162,44C131.53286589691163,44,132.00884589691162,44.474842,132.00884589691162,45.06059C132.00884589691162,45.64634,131.53286589691163,46.12118,130.94569589691162,46.12118L128.06758589691162,46.12118L128.06758589691162,46.12118Z" fill="#FFFFFF" fill-opacity="1"/></g></g></g></g></svg>