<svg xmlns="http://www.w3.org/2000/svg" xmlns:xlink="http://www.w3.org/1999/xlink" fill="none" version="1.1" width="50" height="50" viewBox="32 25 50 50"><defs><clipPath id="master_svg0_425_4880"><rect x="0" y="0" width="636" height="381" rx="0"/></clipPath></defs><g clip-path="url(#master_svg0_425_4880)"><g><g style="opacity:0.800000011920929;"><g><path d="M57.726600000000005,38.13202C57.726600000000005,38.87135,57.135000000000005,39.4691,56.4033,39.4691C55.6717,39.4691,55.0801,38.86742,55.0801,38.13202L55.0801,34.33708C55.0801,33.597753,55.6717,33,56.4033,33C57.135000000000005,33,57.726600000000005,33.597753,57.726600000000005,34.33708L57.726600000000005,38.13202ZM48.54137,41.02248C48.12493,41.02248,47.712379999999996,40.82191,47.455510000000004,40.45225L45.30326,37.34551C44.88293,36.73989,45.02693,35.90618,45.62629,35.48146C46.22565,35.05675,47.05075,35.20225,47.47108,35.80787L49.623329999999996,38.914609999999996C50.0437,39.52023,49.89966,40.35394,49.3003,40.77866C49.06678,40.94382,48.80213,41.02248,48.54137,41.02248ZM64.479,41.655609999999996C64.21430000000001,41.655609999999996,63.9497,41.57696,63.72,41.411789999999996C63.1207,40.98707,62.9767,40.15336,63.397,39.54775L65.5493,36.44101C65.9696,35.83932,66.7947,35.68988,67.394,36.1146C67.98949999999999,36.539320000000004,68.1374,37.37303,67.7171,37.97865L65.5648,41.085390000000004C65.30799999999999,41.45505,64.8954,41.655609999999996,64.479,41.655609999999996ZM48.8293,43.126400000000004C50.8531,41.08148,53.5424,39.95676,56.403,39.95676C59.2636,39.95676,61.953,41.08148,63.9768,43.126400000000004C66.00059999999999,45.1714,67.1137,47.8888,67.1137,50.7792C67.1137,53.6697,66.00059999999999,56.387100000000004,63.9768,58.432C61.953,60.477000000000004,59.2636,61.6017,56.403,61.6017C53.5424,61.6017,50.8531,60.477000000000004,48.8293,58.432C46.80548,56.387100000000004,45.69238,53.6697,45.69238,50.7792C45.69238,47.8888,46.80548,45.1714,48.8293,43.126400000000004ZM56.403,58.9236C51.9584,58.9236,48.33887,55.2702,48.33887,50.7753C48.33887,46.2803,51.954499999999996,42.62695,56.403,42.62695C60.8476,42.62695,64.4671,46.2803,64.4671,50.7753C64.4671,55.2702,60.8515,58.9236,56.403,58.9236ZM45.30733,44.4949C45.98842,44.7545,46.3387,45.5253,46.08183,46.2174C45.88334,46.7562,45.37739,47.0865,44.8403,47.0865C44.68462,47.0865,44.52894,47.059,44.37715,47L40.85883,45.6708C40.177738,45.4112,39.827463,44.6404,40.0843316,43.9483C40.3412,43.2601,41.10402,42.90617,41.78901,43.1657L45.30733,44.4949ZM71.2282,43.8028C71.9132,43.5433,72.676,43.893299999999996,72.93289999999999,44.5854C73.1897,45.2775,72.8434,46.0483,72.1584,46.307900000000004L68.64,47.637100000000004C68.4883,47.6961,68.3326,47.7236,68.1769,47.7236C67.63980000000001,47.7236,67.1339,47.393299999999996,66.9354,46.8545C66.6785,46.1624,67.0249,45.3916,67.7099,45.132L71.2282,43.8028ZM61.2525,62.124700000000004L51.5537,62.124700000000004C50.822,62.124700000000004,50.2305,62.7225,50.2305,63.4618C50.2305,64.2011,50.822,64.7989,51.5537,64.7989L61.2525,64.7989C61.9842,64.7989,62.5757,64.2011,62.5757,63.4618C62.5757,62.7225,61.9842,62.124700000000004,61.2525,62.124700000000004ZM53.4961,65.3258L59.3146,65.3258C60.0463,65.3258,60.6378,65.9236,60.6378,66.66290000000001C60.6378,67.4022,60.0463,68,59.3146,68L53.4961,68C52.7644,68,52.1729,67.4022,52.1729,66.66290000000001C52.1729,65.9236,52.7644,65.3258,53.4961,65.3258Z" fill-rule="evenodd" fill="#FFFFFF" fill-opacity="1"/></g></g></g></g></svg>