<svg xmlns="http://www.w3.org/2000/svg" xmlns:xlink="http://www.w3.org/1999/xlink" fill="none" version="1.1" width="28" height="28" viewBox="0 0 28 28"><g><g><path d="M7.875,8.75C7.39175,8.75,7,8.35825,7,7.875C7,7.39175,7.39175,7,7.875,7L20.125,7C20.6082,7,21,7.39175,21,7.875C21,8.35825,20.6082,8.75,20.125,8.75L7.875,8.75ZM7.875,14.875C7.39175,14.875,7,14.48325,7,14C7,13.51675,7.39175,13.125,7.875,13.125L20.125,13.125C20.6082,13.125,21,13.51675,21,14C21,14.48325,20.6082,14.875,20.125,14.875L7.875,14.875ZM7.875,21C7.39175,21,7,20.6082,7,20.125C7,19.6418,7.39175,19.25,7.875,19.25L11.375,19.25C11.85825,19.25,12.25,19.6418,12.25,20.125C12.25,20.6082,11.85825,21,11.375,21L7.875,21Z" fill="#000000" fill-opacity="1"/></g><g><path d="M22.0929,21.9362C22.4577,21.6192,23.0105,21.658,23.3275,22.0229C23.6445,22.3877,23.6057,22.9405,23.2409,23.2575L19.0339,26.9106C18.8746,27.0489,18.6708,27.1251,18.459899999999998,27.125L5.33312,27.125C3.8325,27.125,2.625,25.8843,2.625,24.3652L2.625,3.63475C2.625,2.1157500000000002,3.8325,0.875,5.33312,0.875L22.6669,0.875C24.1675,0.875,25.375,2.1157500000000002,25.375,3.63475L25.375,19.0654C25.375,19.5486,24.9832,19.9404,24.5,19.9404C24.0168,19.9404,23.625,19.5486,23.625,19.0654L23.625,3.63475C23.625,3.07125,23.1901,2.625,22.6669,2.625L5.33312,2.625C4.80988,2.625,4.375,3.07125,4.375,3.63475L4.375,24.3652C4.375,24.9287,4.80988,25.375,5.33312,25.375L18.1326,25.375L22.0929,21.9362Z" fill="#000000" fill-opacity="1"/></g><g><path d="M19.25,26.22637C19.25,26.70962,18.858249999999998,27.10137,18.375,27.10137C17.891751,27.10137,17.5,26.70962,17.5,26.22637L17.5,21.13387C17.5,19.61663,18.7075,18.375,20.20812,18.375L24.51837,18.375C25.00162,18.375,25.39337,18.766751,25.39337,19.25C25.39337,19.733249999999998,25.00162,20.125,24.51837,20.125L20.20812,20.125C19.68487,20.125,19.25,20.57125,19.25,21.13475L19.25,26.227249999999998L19.25,26.22637Z" fill="#000000" fill-opacity="1"/></g></g></svg>