<svg xmlns="http://www.w3.org/2000/svg" xmlns:xlink="http://www.w3.org/1999/xlink" fill="none" version="1.1" width="64" height="64" viewBox="10.935005187988281 0 64 64"><g><g><path d="M55.54240518798828,16L29.41822518798828,16C27.502455187988282,16,25.93500518798828,17.5762,25.93500518798828,19.502679999999998L25.93500518798828,45.772800000000004C25.93500518798828,47.699200000000005,27.502455187988282,49.2754,29.41822518798828,49.2754L55.54240518798828,49.2754C57.45810518798828,49.2754,59.02560518798828,47.699200000000005,59.02560518798828,45.772800000000004L59.02560518798828,19.502679999999998C59.02560518798828,17.5762,57.45810518798828,16,55.54240518798828,16ZM29.853625187988282,23.00535L38.12630518798828,23.00535L38.12630518798828,25.63236L29.853625187988282,25.63236C29.15698518798828,25.63236,28.547415187988282,25.01939,28.547415187988282,24.31886C28.547415187988282,23.61832,29.15698518798828,23.00535,29.853625187988282,23.00535ZM29.853625187988282,31.762L32.03063518798828,31.762L32.03063518798828,34.3891L29.853625187988282,34.3891C29.15698518798828,34.3891,28.547415187988282,33.7761,28.547415187988282,33.0756C28.547415187988282,32.375,29.15698518798828,31.762,29.853625187988282,31.762ZM43.35110518798828,43.145700000000005L29.853625187988282,43.145700000000005C29.15698518798828,43.145700000000005,28.547415187988282,42.5328,28.547415187988282,41.8322C28.547415187988282,41.131699999999995,29.15698518798828,40.518699999999995,29.853625187988282,40.518699999999995L43.35110518798828,40.518699999999995L43.35110518798828,43.145700000000005ZM55.10700518798828,43.145700000000005L50.31750518798828,43.145700000000005C50.31750518798828,44.109,49.53380518798828,44.897099999999995,48.57590518798828,44.897099999999995L47.70510518798828,44.897099999999995C46.747205187988286,44.897099999999995,45.96350518798828,44.109,45.96350518798828,43.145700000000005L45.96350518798828,40.518699999999995C45.96350518798828,39.555499999999995,46.747205187988286,38.767399999999995,47.70510518798828,38.767399999999995L48.57590518798828,38.767399999999995C49.53380518798828,38.767399999999995,50.31750518798828,39.555499999999995,50.31750518798828,40.518699999999995L55.10700518798828,40.518699999999995C55.80360518798828,40.518699999999995,56.41320518798828,41.131699999999995,56.41320518798828,41.8322C56.41320518798828,42.5328,55.80360518798828,43.145700000000005,55.10700518798828,43.145700000000005ZM55.10700518798828,34.3891L38.99710518798828,34.3891C38.99710518798828,35.3523,38.21330518798828,36.1404,37.25550518798828,36.1404L36.38470518798828,36.1404C35.426775187988284,36.1404,34.64305518798828,35.3523,34.64305518798828,34.3891L34.64305518798828,31.762C34.64305518798828,30.7988,35.426775187988284,30.0107,36.38470518798828,30.0107L37.25550518798828,30.0107C38.21330518798828,30.0107,38.99710518798828,30.7988,38.99710518798828,31.762L55.10700518798828,31.762C55.80360518798828,31.762,56.41320518798828,32.375,56.41320518798828,33.0756C56.41320518798828,33.7761,55.80360518798828,34.3891,55.10700518798828,34.3891ZM55.10700518798828,25.63236L45.09270518798828,25.63236C45.09270518798828,26.595599999999997,44.30900518798828,27.383699999999997,43.35110518798828,27.383699999999997L42.48030518798828,27.383699999999997C41.522405187988284,27.383699999999997,40.73870518798828,26.595599999999997,40.73870518798828,25.63236L40.73870518798828,23.00536C40.73870518798828,22.04212,41.522405187988284,21.25402,42.48030518798828,21.25402L43.35110518798828,21.25402C44.30900518798828,21.25402,45.09270518798828,22.04212,45.09270518798828,23.00536L55.10700518798828,23.00536C55.80360518798828,23.00536,56.41320518798828,23.61832,56.41320518798828,24.31886C56.41320518798828,25.019399999999997,55.80360518798828,25.63236,55.10700518798828,25.63236Z" fill="#FFFFFF" fill-opacity="1"/></g><g><path d="M13.075,71.36L16.735,71.36L16.735,75.24L13.075,75.24L13.075,71.36ZM11.315,69.68L11.315,76.94L18.615,76.94L18.615,69.68L11.315,69.68ZM6.095,82.82L14.955,82.82L14.955,84.44L6.095,84.44L6.095,82.82ZM6.095,81.4L6.095,79.84L14.955,79.84L14.955,81.4L6.095,81.4ZM4.235,78.32L4.235,86.6853L6.095,86.6853L6.095,85.96000000000001L14.955,85.96000000000001L14.955,86.645L16.895,86.645L16.895,78.32L4.235,78.32ZM5.435,71.2L5.435,72.24L5.415,72.86L2.875,72.86C3.295,72.4,3.695,71.82,4.055,71.2L5.435,71.2ZM3.575,68.01281C3.155,69.51938,2.375,71.02,1.335,72C1.735,72.2,2.435,72.6,2.775,72.86L1.415,72.86L1.415,74.36L5.075,74.36C4.595,75.4809,3.555,76.6619,1.215,77.5828C1.635,77.8828,2.175,78.46340000000001,2.415,78.8638C4.395,77.9628,5.575,76.8822,6.275,75.7812C7.255,76.4419,8.555,77.4025,9.155,77.8828L10.475,76.64189999999999C9.915,76.2616,7.675,74.9406,6.875,74.5403L6.935,74.36L10.535,74.36L10.535,72.86L7.215,72.86L7.235,72.28L7.235,71.2L10.035,71.2L10.035,69.7L4.795,69.7C4.975,69.27844,5.135,68.81625,5.275,68.37438L3.575,68.01281ZM29.545,76.86L29.545,78.3L25.845,78.3L25.845,76.86L29.545,76.86ZM24.085,75.28L24.085,86.66L25.845,86.66L25.845,82.72L29.545,82.72L29.545,84.62C29.545,84.86,29.465,84.94,29.225,84.94C28.945,84.96000000000001,28.125,84.96000000000001,27.265,84.92C27.525,85.4,27.805,86.14,27.905,86.64C29.125,86.64,30.025,86.6,30.625,86.32C31.245,86.03999999999999,31.405,85.53999999999999,31.405,84.64L31.405,75.28L24.085,75.28ZM25.845,79.74L29.545,79.74L29.545,81.26L25.845,81.26L25.845,79.74ZM39.225,69.51281C38.165,70.09375,36.565,70.77437,35.005,71.33530999999999L35.005,68.15125L33.145,68.15125L33.145,74.5394C33.145,76.42,33.665,76.98,35.785,76.98C36.205,76.98,38.465,76.98,38.925,76.98C40.625,76.98,41.145,76.3,41.365,73.7981C40.845,73.6781,40.065,73.3978,39.705,73.0975C39.605,74.9797,39.465,75.3,38.745,75.3C38.245,75.3,36.385,75.3,36.005,75.3C35.145,75.3,35.005,75.2,35.005,74.5191L35.005,72.85719C36.865,72.31625,38.905,71.63562,40.465,70.89469L39.225,69.51281ZM39.425,78.4616C38.365,79.15690000000001,36.685,79.8972,35.025,80.4975L35.025,77.4959L33.165,77.4959L33.165,84.05969999999999C33.165,85.96000000000001,33.705,86.52,35.825,86.52C36.265,86.52,38.565,86.52,39.025,86.52C40.805,86.52,41.325,85.78,41.545,83.01910000000001C41.025,82.8991,40.265,82.6187,39.865,82.3188C39.785,84.48,39.645,84.86,38.865,84.86C38.345,84.86,36.445,84.86,36.065,84.86C35.205,84.86,35.025,84.74,35.025,84.05969999999999L35.025,82.0584C36.985,81.4781,39.125,80.7378,40.685,79.8572L39.425,78.4616ZM23.865,74.0738C24.325,73.8938,25.065,73.7738,30.265,73.3734C30.445,73.7537,30.585,74.0941,30.685,74.4141L32.365,73.6938C31.985,72.47313,30.905,70.67188,29.905,69.31125L28.325,69.93156C28.745,70.55188,29.185,71.25219,29.565,71.95281L25.805,72.19281C26.645,71.15219,27.505,69.87156,28.145,68.61063L26.145,68.05031C25.545,69.57125,24.505,71.09219,24.185,71.4925C23.845,71.93281,23.545,72.21281,23.225,72.29281C23.445,72.79313,23.765,73.6938,23.865,74.0738ZM52.675,77.08L52.675,79.52L48.175,79.52L48.175,77.08L52.675,77.08ZM54.695,77.08L59.295,77.08L59.295,79.52L54.695,79.52L54.695,77.08ZM52.675,75.32L48.175,75.32L48.175,72.86L52.675,72.86L52.675,75.32ZM54.695,75.32L54.695,72.86L59.295,72.86L59.295,75.32L54.695,75.32ZM46.215,71.02L46.215,82.56L48.175,82.56L48.175,81.36L52.675,81.36L52.675,83.02C52.675,85.68,53.375,86.38,55.855,86.38C56.415,86.38,59.435,86.38,60.015,86.38C62.295,86.38,62.895,85.28,63.175,82.2C62.595,82.06,61.775,81.7,61.295,81.36C61.135,83.86,60.935,84.48,59.875,84.48C59.235,84.48,56.595,84.48,56.035,84.48C54.875,84.48,54.695,84.26,54.695,83.06L54.695,81.36L61.235,81.36L61.235,71.02L54.695,71.02L54.695,68.17219L52.675,68.17219L52.675,71.02L46.215,71.02ZM69.585,76.24L69.585,86.705L71.505,86.705L71.505,86.08L80.665,86.08L80.665,86.68469999999999L82.545,86.68469999999999L82.545,81.64L71.505,81.64L71.505,80.46000000000001L81.485,80.46000000000001L81.485,76.24L69.585,76.24ZM80.665,84.66L71.505,84.66L71.505,83.06L80.665,83.06L80.665,84.66ZM74.145,72.49813C74.345,72.87875,74.565,73.3194,74.725,73.72L67.285,73.72L67.285,77.12L69.105,77.12L69.105,75.16L82.025,75.16L82.025,77.12L83.965,77.12L83.965,73.72L76.645,73.72C76.445,73.21940000000001,76.145,72.61843999999999,75.825,72.15781L74.145,72.49813ZM71.505,77.64L79.625,77.64L79.625,79.06L71.505,79.06L71.505,77.64ZM68.785,67.99281C68.265,69.72,67.365,71.44,66.245,72.53999999999999C66.705,72.74,67.505,73.16,67.865,73.4C68.445,72.76,69.005,71.92,69.505,71L70.605,71C71.085,71.74,71.525,72.62,71.725,73.2L73.325,72.64C73.165,72.2,72.825,71.58,72.465,71L75.285,71L75.285,69.66L70.145,69.66C70.325,69.23844,70.485,68.79625,70.625,68.35438L68.785,67.99281ZM77.305,68.01281C76.945,69.45938,76.245,70.9,75.325,71.82063C75.765,72.04063,76.545,72.44094,76.885,72.70125C77.305,72.22094,77.685,71.66063,78.045,71.02L79.185,71.02C79.785,71.76062,80.405,72.68125,80.645,73.2616L82.185,72.56125C81.985,72.14094,81.605,71.56063,81.165,71.02L84.405,71.02L84.405,69.66L78.685,69.66C78.865,69.23844,79.025,68.79625,79.145,68.35438L77.305,68.01281Z" fill="#FFFFFF" fill-opacity="1"/></g></g></svg>