<svg xmlns="http://www.w3.org/2000/svg" xmlns:xlink="http://www.w3.org/1999/xlink" fill="none" version="1.1" width="44"
  height="44" viewBox="0 0 44 44">
  <defs>
    <clipPath id="master_svg0_9377_45937">
      <rect x="0" y="0" width="44" height="44" rx="0" />
    </clipPath>
  </defs>
  <g>
    <g clip-path="url(#master_svg0_9377_45937)">
      <g>
        <path
          d="M41.48750625,35.4021546875L41.48750625,10.6650346875L41.38870625,10.4330046875C41.32420625,10.2826146875,40.06950625,7.4208946875,35.32150625,6.2908196875L35.32150625,6.2564446875L35.18830625,6.2564446875C34.041006249999995,5.9943356875,32.70040625,5.8310546875,31.12340625,5.8310546875C26.04020625,5.8310546875,23.36330625,7.4982446875,22.03120625,8.830274687500001C20.69920625,7.5025346875,18.01800625,5.8310546875,12.93480625,5.8310546875C4.66757625,5.8310546875,2.74257825,10.2482446875,2.66523435,10.4330046875L2.56640625,10.6650346875L2.56640625,35.2302546875C2.56640625,36.1841546875,2.86289025,36.8845546875,3.4515622500000003,37.3142546875C4.37538625,37.9931546875,5.5570362499999995,37.6193546875,5.999606249999999,37.481854687500004L6.132816249999999,37.430254687499996C10.42539625,35.5224546875,17.437906249999997,36.8673546875,19.55190625,37.490454687500005C19.83980625,37.5763546875,20.44140625,37.7525546875,21.09020625,37.7525546875C21.42970625,37.7525546875,21.77770625,37.6923546875,22.10430625,37.5591546875C22.92500625,37.8685546875,23.81440625,37.5978546875,24.18830625,37.481854687500004L24.32150625,37.430254687499996C28.61840625,35.5181546875,35.62230625,36.8673546875,37.74060625,37.486154687500004C38.02850625,37.5720546875,38.63010625,37.7482546875,39.27890625,37.7482546875C39.85470625,37.7482546875,40.47340625,37.606454687500005,40.94180625,37.1423546875C41.47460625,36.6267546875,41.56910625,35.9263546875,41.48750625,35.4021546875ZM28.78590625,8.5208946875C29.48200625,8.4263646875,30.25120625,8.3705046875,31.11910625,8.3705046875C32.06020625,8.3705046875,32.88940625,8.434964687499999,33.62850625,8.5423846875L33.62850625,14.6095746875L31.27380625,13.2087846875L28.78590625,14.6353546875L28.78590625,8.5208946875ZM11.86913625,33.9154546875C9.55312625,33.9154546875,7.16405625,34.2162546875,5.17460625,35.0798546875C5.15312625,35.088454687500004,5.12734625,35.092754687500005,5.11015625,35.0970546875L5.11015625,11.2408246875C5.5355462499999994,10.5705046875,7.35741625,8.3705046875,12.93480625,8.3705046875C18.512106250000002,8.3705046875,20.33400625,10.5662146875,20.75940625,11.2408246875L20.75940625,35.1744546875C20.63050625,35.1529546875,20.47150625,35.1142546875,20.27380625,35.0540546875C18.75700625,34.6115546875,15.39690625,33.9154546875,11.86913625,33.9154546875ZM38.94800625,35.1744546875C38.81910625,35.1529546875,38.66020625,35.1142546875,38.45820625,35.0540546875C36.94570625,34.6115546875,33.58550625,33.9154546875,30.05780625,33.9154546875C27.74180625,33.9154546875,25.35270625,34.2162546875,23.36330625,35.0798546875C23.34180625,35.088454687500004,23.32030625,35.092754687500005,23.29880625,35.0970546875L23.29880625,11.2408246875C23.59960625,10.7681646875,24.59650625,9.5435546875,27.09300625,8.8560546875L27.09300625,17.5615546875L31.25660625,15.1681646875L35.32150625,17.5872546875L35.32150625,8.9033246875C37.70200625,9.5994146875,38.65160625,10.7810546875,38.94800625,11.2408246875L38.94800625,35.1744546875ZM15.50860625,16.1005546875L9.02460625,16.1005546875C8.32421625,16.1005546875,7.75273625,16.6677546875,7.75273625,17.3724546875C7.75273625,18.072854687499998,8.31991625,18.644354687499998,9.02460625,18.644354687499998L15.50860625,18.644354687499998C16.20900625,18.644354687499998,16.780506250000002,18.0771546875,16.780506250000002,17.3724546875C16.780506250000002,16.6677546875,16.20900625,16.1005546875,15.50860625,16.1005546875ZM15.50860625,21.4158546875L9.02460625,21.4158546875C8.32421625,21.4158546875,7.75273625,21.9830546875,7.75273625,22.6876546875C7.75273625,23.3880546875,8.31991625,23.9595546875,9.02460625,23.9595546875L15.50860625,23.9595546875C16.20900625,23.9595546875,16.780506250000002,23.3923546875,16.780506250000002,22.6876546875C16.780506250000002,21.9830546875,16.20900625,21.4158546875,15.50860625,21.4158546875Z"
          fill="#3D3D3D" fill-opacity="1" style="mix-blend-mode:passthrough" />
      </g>
    </g>
  </g>
</svg>