<svg xmlns="http://www.w3.org/2000/svg" xmlns:xlink="http://www.w3.org/1999/xlink" fill="none" version="1.1" width="44"
  height="44" viewBox="0 0 44 44">
  <defs>
    <clipPath id="master_svg0_9377_45954">
      <rect x="0" y="2" width="40" height="40" rx="0" />
    </clipPath>
  </defs>
  <g>
    <g clip-path="url(#master_svg0_9377_45954)">
      <g>
        <path
          d="M22.4291,41.4594L22.010199999999998,41.2971C8.55586,36.0968,7,29.2995,7,24.6391L7,6.83953L8.20109,6.8807C17.5532,7.19914,21.5354,2.978359,21.573,2.9371869999999998L22.4302,2L23.2862,2.937109C23.3177,2.971094,27.0918,6.89758,35.6592,6.89758L35.6605,6.89758C35.9862,6.89758,36.3191,6.89266,36.657,6.88062L37.858000000000004,6.83945L37.858000000000004,24.6391C37.858000000000004,29.2995,36.3022,36.0967,22.848,41.297L22.4291,41.4594ZM9.32234,9.21984L9.32234,24.6391C9.32234,27.1455,9.32352,33.7624,22.4291,38.9676C35.535799999999995,33.7624,35.535799999999995,27.1455,35.535799999999995,24.6391L35.535799999999995,9.21984C28.2784,9.192029999999999,24.1023,6.60938,22.4291,5.27508C20.7545,6.6082,16.578519999999997,9.18961,9.32234,9.21984ZM15.39039,12.7419C15.84609,12.373,16.54047,12.6985,16.54047,13.306L16.54047,30.6647C16.54047,31.077,16.215,31.3808,15.82453,31.3808L15.80273,31.3808C15.41226,31.3808,15.08672,31.077,15.08672,30.6647L15.08672,14.89C14.50086,15.3891,13.91492,15.8448,13.329139999999999,16.3221C13.00367,16.5608,12.56961,16.5173,12.3093,16.2137L12.2875,16.1702C12.048829999999999,15.8664,12.09227,15.4109,12.417729999999999,15.172L15.39039,12.7419ZM21.639499999999998,24.6326C21.466,25.6524,21.249000000000002,26.6504,20.9451,27.6486C20.6414,28.6684,20.1857,29.6882,19.599800000000002,30.6864C19.512999999999998,30.8599,19.3395,30.9685,19.1659,31.0119C18.970599999999997,31.077,18.775199999999998,31.0335,18.6017,30.9251L18.579900000000002,30.9033C18.2545,30.6864,18.146,30.2741,18.3413,29.9703C18.8403,29.059,19.2527,28.1477,19.512900000000002,27.2147C19.7949,26.3033,20.012,25.3703,20.185499999999998,24.3939C20.229,24.025,20.5978,23.7646,20.9667,23.808L21.010199999999998,23.808C21.4226,23.8514,21.6829,24.2419,21.639499999999998,24.6326ZM18.753700000000002,14.5429C18.753700000000002,14.2174,18.8187,13.9136,18.927300000000002,13.6315C19.2962,12.7852,20.0989,12.2212,21.0537,12.2212L28.6915,12.2212C29.6462,12.2212,30.4273,12.7853,30.8179,13.6315C30.9263,13.9135,30.9914,14.2174,30.9914,14.5429L30.9914,17.276899999999998C30.9914,18.5354,29.95,19.5552,28.6915,19.5552L25.6103,19.5552L25.6103,21.3779L30.7745,21.3779C31.165,21.3779,31.4905,21.7034,31.4905,22.0938L31.4905,22.1373C31.4905,22.5277,31.165,22.8532,30.7745,22.8532L25.6103,22.8532L25.6103,30.6646C25.6103,31.0552,25.2848,31.3807,24.8943,31.3807L24.8726,31.3807C24.4821,31.3807,24.1566,31.0552,24.1566,30.6646L24.1566,22.8532L18.9923,22.8532C18.58,22.8532,18.2763,22.5277,18.2763,22.1373L18.2763,22.0938C18.2763,21.7034,18.58,21.3779,18.9923,21.3779L24.1565,21.3779L24.1565,19.5552L21.0536,19.5552C19.773400000000002,19.5552,18.753500000000003,18.5353,18.753500000000003,17.276899999999998L18.753700000000002,14.5429ZM20.2073,17.276899999999998C20.2073,17.7542,20.5546,18.123,21.0537,18.123L28.6915,18.123C29.1905,18.123,29.5159,17.7541,29.5159,17.276899999999998L29.5159,14.5429C29.5159,14.3042,29.4509,14.0872,29.2991,13.9136C29.1471,13.7617,28.9519,13.6749,28.6916,13.6749L21.053800000000003,13.6749C20.793300000000002,13.6749,20.598,13.7617,20.446199999999997,13.9136C20.2727,14.0872,20.2074,14.3042,20.2074,14.5429L20.2074,17.276899999999998L20.2073,17.276899999999998ZM31.2302,30.2089C31.3603,30.5996,31.1434,30.9901,30.7745,31.1203C30.5791,31.1854,30.4056,31.1638,30.1886,31.0987C30.0367,30.9901,29.9281,30.8599,29.8415,30.6646L27.9103,24.6542C27.8017,24.2853,28.0188,23.8731,28.3877,23.7646L28.4095,23.743C28.7566,23.6344,29.1905,23.8296,29.2991,24.2203L31.2302,30.2089Z"
          fill="#3D3D3D" fill-opacity="1" style="mix-blend-mode:passthrough" />
      </g>
    </g>
  </g>
</svg>