<svg xmlns="http://www.w3.org/2000/svg" xmlns:xlink="http://www.w3.org/1999/xlink" fill="none" version="1.1" width="44"
  height="44" viewBox="0 0 44 44">
  <defs>
    <clipPath id="master_svg0_9377_45923">
      <rect x="2" y="2" width="40" height="40" rx="0" />
    </clipPath>
  </defs>
  <g>
    <g clip-path="url(#master_svg0_9377_45923)">
      <g>
        <path
          d="M21.748240625,24.500244140625C20.998240625,24.500244140625,20.498240625,24.000244140625,20.498240625,23.250244140625C20.498240625,22.750244140625,20.498240625,21.250244140625,21.998240625,20.250244140625C22.248240625,20.000244140625,22.498240625,20.000244140625,22.748240625,19.750244140625C23.748240625,19.250244140625,24.998240625,18.500244140625,25.498240625,16.750244140625C25.748240625,15.500244140625,25.498240625,14.500244140625,24.748240625,13.500244140625C24.248240625,12.750244140625,23.248240625,12.250244140625,21.748240625,12.250244140625C19.748240625,12.250244140625,18.748240625,13.000244140625,18.248240625,13.750244140625C17.748240625,14.750244140625,17.498240625,15.750244140625,17.748240625,16.500244140625C17.998240625,17.250244140625,17.498240625,17.750244140625,16.748240625,18.000244140625C15.998241625,18.250244140625,15.248242625,17.750244140625,15.248242625,17.250244140625C14.748242625,15.750244140625,15.248242625,13.750244140625,16.498240625,12.250244140625C17.748240625,10.750244140625,19.748240625,9.750244140625,21.998240625,9.750244140625C24.248240625,9.750244140625,25.998240625,10.500244140625,27.248240625,12.000244140625C28.498240625,13.500244140625,28.748240625,15.500244140625,28.248240625,17.250244140625C27.498240625,20.250244140625,25.248240625,21.500244140625,23.998240625,22.000244140625C23.748240625,22.000244140625,23.748240625,22.250244140625,23.498240625,22.250244140625C22.998240625,22.500244140625,22.998240625,22.750244140625,22.998240625,23.000244140625L22.998240625,23.250244140625C22.998240625,24.000244140625,22.498240625,24.500244140625,21.748240625,24.500244140625Z"
          fill="#3D3D3D" fill-opacity="1" style="mix-blend-mode:passthrough" />
      </g>
      <g>
        <path
          d="M22,42C21.5,42,21,41.75,20.5,41.75L6.5,34.5C5.25,33.75,4.5,32.75,4.5,31.5L4.5,7.25C4.5,4.25,6.75,2,9.75,2L34.25,2C35.75,2,37,2.5,38,3.5C39,4.5,39.5,5.75,39.5,7.25L39.5,31.5C39.5,32.75,38.75,34,37.75,34.5L23.75,41.75C23,41.75,22.5,42,22,42ZM9.75,4.5C8.25,4.5,7,5.75,7,7.25L7,31.5C7,31.75,7.25,32.25,7.5,32.25L21.5,39.5C21.75,39.5,22.25,39.5,22.5,39.5L36.5,32.25C36.75,32,37,31.75,37,31.5L37,7.25C37,6.5,36.75,5.75,36.25,5.25C35.75,4.75,35,4.5,34.25,4.5L9.75,4.5Z"
          fill="#3D3D3D" fill-opacity="1" style="mix-blend-mode:passthrough" />
      </g>
      <g>
        <path
          d="M22,29.5C21.25,29.5,20.75,29,20.75,28.25C20.75,27.5,21.25,27,22,27C22.75,27,23.25,27.5,23.25,28.25C23.25,29,22.75,29.5,22,29.5Z"
          fill="#3D3D3D" fill-opacity="1" style="mix-blend-mode:passthrough" />
      </g>
    </g>
  </g>
</svg>