<svg xmlns="http://www.w3.org/2000/svg" xmlns:xlink="http://www.w3.org/1999/xlink" fill="none" version="1.1" width="46"
  height="47" viewBox="0 0 46 47">
  <g>
    <g transform="matrix(-1,-5.2146120310681e-8,5.2146120310681e-8,-1,91.99999754913553,93.99988032840903)">
      <ellipse cx="69" cy="69.99993896484375" rx="23" ry="23" fill="#000000" fill-opacity="0.10000000149011612" />
    </g>
    <g transform="matrix(0,1,-1,0,41.99993896484375,-14.00006103515625)">
      <path
        d="M45.3401,14.601923964843749Q45.9649,13.99993896484375,46.8464,13.99993896484375Q47.727900000000005,13.99993896484375,48.3528,14.601923964843749Q49,15.20390896484375,49,16.04238896484375Q49,16.88086896484375,48.3528,17.48284896484375L40.0064,25.48063896484375Q39.7386,25.78163896484375,39.3369,25.899838964843752Q38.9352,26.01813896484375,38.4888,25.99663896484375Q38.042500000000004,25.97513896484375,37.60733,25.81383896484375Q37.17216,25.65263896484375,36.859719999999996,25.35163896484375L28.647184,17.48284896484375Q28,16.88086896484375,28,16.04238896484375Q28,15.20390896484375,28.647184,14.601923964843749Q28.959617,14.30093196484375,29.35016,14.15043596484375Q29.7407,13.99993992594375,30.15356,13.99993992594375Q30.56642,13.99993992594375,30.96812,14.15043596484375Q31.36982,14.30093196484375,31.68225,14.601923964843749L38.5112,21.09475896484375L45.3401,14.601923964843749Z"
        fill="#FFFFFF" fill-opacity="1" />
    </g>
  </g>
</svg>