<?xml version="1.0" encoding="UTF-8"?>
<svg width="40px" height="40px" viewBox="0 0 40 40" version="1.1" xmlns="http://www.w3.org/2000/svg"
    xmlns:xlink="http://www.w3.org/1999/xlink">
    <title>ic-tb-dengguang</title>
    <g id="页面-1" stroke="none" stroke-width="1" fill="none" fill-rule="evenodd">
        <g id="网页切图-10.26" transform="translate(-2274.000000, -1555.000000)">
            <g id="编组-22" transform="translate(2274.000000, 1555.000000)">
                <g id="编组-3" transform="translate(4.000000, 3.000000)" fill="#FFFFFF" fill-rule="nonzero"
                    opacity="0.800000012">
                    <g id="灯泡">
                        <path
                            d="M16.3947459,6.95674157 C13.5356506,6.95674157 10.8477119,8.08146067 8.82495061,10.1264045 C6.80218927,12.1713483 5.68967054,14.888764 5.68967054,17.7792135 C5.68967054,20.6696629 6.80218927,23.3870787 8.82495061,25.4320225 C10.8477119,27.4769663 13.5356506,28.6016854 16.3947459,28.6016854 C19.2538413,28.6016854 21.9417799,27.4769663 23.9645412,25.4320225 C25.9873026,23.3870787 27.0998213,20.6696629 27.0998213,17.7792135 C27.0998213,14.888764 25.9873026,12.1713483 23.9645412,10.1264045 C21.9417799,8.08146067 19.2538413,6.95674157 16.3947459,6.95674157 Z M16.3947459,25.9235955 C11.9524508,25.9235955 8.33481997,22.2702247 8.33481997,17.7752809 C8.33481997,13.2803371 11.9485609,9.62696629 16.3947459,9.62696629 C20.837041,9.62696629 24.4546718,13.2803371 24.4546718,17.7752809 C24.4546718,22.2702247 20.8409309,25.9235955 16.3947459,25.9235955 Z M21.2415933,29.1247191 L11.5478986,29.1247191 C10.8165925,29.1247191 10.2253238,29.7224719 10.2253238,30.4617978 C10.2253238,31.2011236 10.8165925,31.7988764 11.5478986,31.7988764 L21.2415933,31.7988764 C21.9728993,31.7988764 22.564168,31.2011236 22.564168,30.4617978 C22.564168,29.7224719 21.9728993,29.1247191 21.2415933,29.1247191 Z M19.3044103,32.3258427 L13.4889715,32.3258427 C12.7576654,32.3258427 12.1663967,32.9235955 12.1663967,33.6629213 C12.1663967,34.4022472 12.7576654,35 13.4889715,35 L19.3044103,35 C20.0357163,35 20.626985,34.4022472 20.626985,33.6629213 C20.626985,32.9235955 20.0357163,32.3258427 19.3044103,32.3258427 Z M16.3947459,6.46910112 C17.1260519,6.46910112 17.7173206,5.87134831 17.7173206,5.13202247 L17.7173206,1.33707865 C17.7173206,0.597752809 17.1260519,0 16.3947459,0 C15.6634399,0 15.0721712,0.597752809 15.0721712,1.33707865 L15.0721712,5.13202247 C15.0721712,5.86741573 15.6634399,6.46910112 16.3947459,6.46910112 Z M23.7078061,8.41179775 C23.9373117,8.57696629 24.2018267,8.65561798 24.4663416,8.65561798 C24.8825637,8.65561798 25.2948958,8.45505618 25.5516309,8.08539326 L27.7027598,4.97865169 C28.1228717,4.37303371 27.9750546,3.53932584 27.3798959,3.11460674 C26.7808474,2.68988764 25.9561831,2.83932584 25.5360712,3.44101124 L23.3849423,6.54775281 C22.9648303,7.15337079 23.1087576,7.98707865 23.7078061,8.41179775 Z M32.9152601,11.5853933 C32.658525,10.8932584 31.8960996,10.5432584 31.2114727,10.802809 L27.6949799,12.1320225 C27.010353,12.391573 26.6641496,13.1623596 26.9208847,13.8544944 C27.1192709,14.3932584 27.6249613,14.7235955 28.161771,14.7235955 C28.317368,14.7235955 28.472965,14.6960674 28.6246721,14.6370787 L32.1411649,13.3078652 C32.8257918,13.0483146 33.1719952,12.2775281 32.9152601,11.5853933 L32.9152601,11.5853933 Z M7.45180685,7.45224719 C7.70854195,7.82191011 8.12087406,8.02247191 8.53709611,8.02247191 C8.79772113,8.02247191 9.06223607,7.94382022 9.29563161,7.77865169 C9.89468016,7.35393258 10.0386074,6.52022472 9.61849544,5.91460674 L7.46736656,2.80786517 C7.04725459,2.20224719 6.22259035,2.05674157 5.6235418,2.48146067 C5.02449325,2.90617978 4.880566,3.73988764 5.30067797,4.34550562 L7.45180685,7.45224719 L7.45180685,7.45224719 Z M6.0786631,13.2174157 C6.33539819,12.5252809 5.98530488,11.7544944 5.3045679,11.4949438 L1.78807511,10.1657303 C1.1034482,9.90617978 0.341022773,10.2601124 0.0842876799,10.9483146 C-0.172447413,11.6404494 0.177645895,12.411236 0.858382883,12.6707865 L4.37487567,14 C4.52658277,14.0589888 4.68217979,14.0865169 4.83777682,14.0865169 C5.37458656,14.0865169 5.88027689,13.7561798 6.0786631,13.2174157 L6.0786631,13.2174157 Z"
                            id="形状"></path>
                    </g>
                </g>
                <g id="#meaxure-overlay-467CA8C3-ED95-4F89-800A-D651C5C11D8D备份-2"></g>
            </g>
        </g>
    </g>
</svg>