<svg xmlns="http://www.w3.org/2000/svg" xmlns:xlink="http://www.w3.org/1999/xlink" fill="none" version="1.1" width="20"
  height="20" viewBox="0 0 20 20">
  <g>
    <g>
      <path
        d="M20,14.20814L20,6L15.6597,10.28382L20,14.20687M12.6745,13.228C11.9668,13.930299999999999,11.0037,14.3241,10,14.32166C8.99003,14.32166,8.03886,13.93314,7.32421,13.228L4.99617,10.929680000000001L0,15.44812L0,16.205C0,17.1952,0.815648,18,1.81795,18L18.182,18C19.1844,18,20,17.1952,20,16.206200000000003L20,15.42416L15.0153,10.91832L12.6758,13.22674"
        fill="#333333" fill-opacity="1" />
    </g>
    <g>
      <path
        d="M18.1843,2L1.85147,2C0.852367,2,0.0395559,2.830369,0.0395559,3.85076L0.0395559,4.23731L7.9903,12.3497C8.5326,12.9015,9.25354,13.2061,10.0191,13.2061C10.786,13.2061,11.507,12.9015,12.048,12.3497L20,4.23731L20,3.85076C20,2.830369,19.1834,2,18.1843,2ZM0,5.50759L0,14L4.3435,9.93926L0,5.50759Z"
        fill="#333333" fill-opacity="1" />
    </g>
  </g>
</svg>