<svg xmlns="http://www.w3.org/2000/svg" xmlns:xlink="http://www.w3.org/1999/xlink" fill="none" version="1.1" width="64" height="64" viewBox="11 0 64 64"><g><g><path d="M12.22,73.56L16,73.56C15.62,75.96000000000001,15.04,77.98,14.14,79.68C13.26,77.9,12.64,75.84,12.2,73.6L12.22,73.56ZM1.58,77.1L1.58,85.8047L3.34,85.8047L3.34,84.52L8.96,84.52L8.96,77.26C9.3,77.52,9.66,77.82,9.84,78C10.26,77.46000000000001,10.66,76.86,11.02,76.2C11.52,78.16,12.16,79.92,12.98,81.46000000000001C11.78,82.98,10.16,84.14,8.04,85.0019C8.36,85.4031,8.92,86.2463,9.1,86.6875C11.14,85.7644,12.74,84.5803,14.02,83.12C15.12,84.6206,16.46,85.8247,18.16,86.6875C18.44,86.1859,19.04,85.4434,19.48,85.06190000000001C17.72,84.28,16.32,83.06,15.22,81.48C16.52,79.38,17.36,76.78,17.9,73.56L19.3,73.56L19.3,71.76L12.82,71.76C13.14,70.6778,13.42,69.555,13.64,68.4125L11.72,68.0919C11.12,71.5197,10,74.78,8.24,76.76L8.74,77.1L6.24,77.1L6.24,73.68L9.7,73.68L9.7,71.92L6.24,71.92L6.24,68.1119L4.34,68.1119L4.34,71.92L0.74,71.92L0.74,73.68L4.34,73.68L4.34,77.1L1.58,77.1ZM3.34,78.88L7.16,78.88L7.16,82.74L3.34,82.74L3.34,78.88ZM31.89,78.74L37.69,78.74L37.69,79.86L31.89,79.86L31.89,78.74ZM31.89,76.52L37.69,76.52L37.69,77.62L31.89,77.62L31.89,76.52ZM30.13,75.28L30.13,81.1L33.99,81.1L33.99,82.32L28.85,82.32L28.85,83.9L33.99,83.9L33.99,86.6681L35.85,86.6681L35.85,83.9L40.85,83.9L40.85,82.32L35.85,82.32L35.85,81.1L39.51,81.1L39.51,75.28L30.13,75.28ZM33.45,68.435C33.59,68.7966,33.75,69.2184,33.87,69.62L29.63,69.62L29.63,71.12L32.43,71.12L31.31,71.42C31.49,71.84,31.67,72.36,31.81,72.78L28.81,72.78L28.81,74.28L40.77,74.28L40.77,72.78L37.79,72.78L38.47,71.48L36.63,71.12C36.49,71.58,36.23,72.24,36.01,72.78L33.11,72.78L33.57,72.64C33.45,72.26,33.19,71.62,32.95,71.12L40.09,71.12L40.09,69.62L35.75,69.62C35.61,69.1178,35.37,68.495,35.13,67.99281L33.45,68.435ZM22.97,68.92L22.97,86.62780000000001L24.65,86.62780000000001L24.65,70.62L27.01,70.62C26.59,71.96000000000001,26.05,73.66,25.53,74.98C26.93,76.5,27.27,77.84,27.27,78.88C27.27,79.48,27.15,79.98,26.87,80.18C26.69,80.3,26.47,80.34,26.25,80.36C25.95,80.38,25.57,80.38,25.15,80.32C25.41,80.8,25.57,81.52,25.59,81.98C26.05,82,26.57,82,26.97,81.94C27.41,81.88,27.77,81.78,28.09,81.53999999999999C28.69,81.1,28.95,80.24,28.95,79.08C28.93,77.84,28.63,76.4,27.21,74.78C27.87,73.22,28.59,71.22,29.17,69.56L27.95,68.8397L27.67,68.92L22.97,68.92ZM48.06,68.2325C47.32,70.4591,46.08,72.7,44.6,74.1C45.08,74.34,45.94,74.84,46.34,75.12C46.94,74.44,47.56,73.58,48.12,72.62L52.82,72.62L52.82,75.38L44.54,75.38L44.54,77.16L62.2,77.16L62.2,75.38L54.8,75.38L54.8,72.62L60.82,72.62L60.82,70.88L54.8,70.88L54.8,68.1122L52.82,68.1122L52.82,70.88L49.06,70.88C49.4,70.1781,49.7,69.4359,49.96,68.6938L48.06,68.2325ZM46.94,78.9L46.94,86.8266L48.86,86.8266L48.86,85.74L58.04,85.74L58.04,86.7663L60.04,86.7663L60.04,78.9L46.94,78.9ZM48.86,84L48.86,80.64L58.04,80.64L58.04,84L48.86,84ZM68.73,81.08L68.73,82.1L81.37,82.1L81.37,81.08L68.73,81.08ZM68.73,79.34L68.73,80.36L81.37,80.36L81.37,79.34L68.73,79.34ZM68.55,82.84L68.55,86.68469999999999L70.35,86.68469999999999L70.35,86.08L79.75,86.08L79.75,86.6647L81.61,86.6647L81.61,82.84L68.55,82.84ZM70.35,85.03999999999999L70.35,83.88L79.75,83.88L79.75,85.03999999999999L70.35,85.03999999999999ZM73.65,76.49940000000001C73.81,76.7597,73.99,77.08,74.13,77.38L66.31,77.38L66.31,78.6L83.71,78.6L83.71,77.38L76.07,77.38C75.89,76.9597,75.61,76.4391,75.33,76.0387L73.65,76.49940000000001ZM67.87,70.62C67.47,71.58,66.73,72.64,65.57,73.44C65.91,73.64,66.39,74.1,66.63,74.44L67.29,73.86L67.29,76.42060000000001L68.59,76.42060000000001L68.59,75.9L71.45,75.9C71.53,76.1603,71.57,76.42060000000001,71.59,76.6206C72.17,76.6609,72.75,76.6409,73.07,76.6006C73.49,76.5806,73.81,76.4606,74.07,76.1403C74.41,75.74,74.59,74.76,74.73,72.44C75.09,72.68,75.67,73.14,75.93,73.4C76.33,73.03999999999999,76.71,72.64,77.07,72.2C77.47,72.88,77.93,73.5,78.49,74.06C77.61,74.62,76.59,75.03999999999999,75.41,75.34C75.71,75.66,76.19,76.3206,76.35,76.6609C77.59,76.2603,78.71,75.74,79.65,75.08C80.69,75.86,81.93,76.4606,83.31,76.8409C83.53,76.4006,83.99,75.76,84.35,75.42C83.05,75.14,81.87,74.68,80.87,74.03999999999999C81.65,73.24,82.25,72.26,82.63,71.06L84.01,71.06L84.01,69.76L78.59,69.76C78.79,69.33840000000001,78.97,68.8966,79.13,68.43469999999999L77.63,68.0731C77.07,69.78,76.03,71.36,74.73,72.4L74.75,71.92C74.77,71.7,74.77,71.32,74.77,71.32L69.11,71.32L69.31,70.86L68.83,70.78L69.87,70.78L69.87,70.12L71.83,70.12L71.83,70.78059999999999L73.43,70.78059999999999L73.43,70.12L75.57,70.12L75.57,68.96000000000001L73.43,68.96000000000001L73.43,68.155L71.83,68.155L71.83,68.96000000000001L69.87,68.96000000000001L69.87,68.155L68.27,68.155L68.27,68.96000000000001L66.05,68.96000000000001L66.05,70.12L68.27,70.12L68.27,70.6803L67.87,70.62ZM80.97,71.06C80.67,71.8606,80.23,72.5409,79.65,73.1216C78.99,72.5209,78.43,71.8206,78.03,71.06L80.97,71.06ZM73.15,72.38C73.01,74.26,72.89,75.02,72.71,75.24C72.61,75.38,72.47,75.42,72.29,75.42L71.93,75.4L71.93,72.96000000000001L68.09,72.96000000000001L68.51,72.38L73.15,72.38ZM68.59,73.9L70.61,73.9L70.61,74.94L68.59,74.94L68.59,73.9Z" fill="#FFFFFF" fill-opacity="1"/></g><g><path d="M55.5964,35.3952C55.807900000000004,35.5304,55.9878,35.7093,56.1238,35.919799999999995L62.8555,46.3504C63.3181,47.0671,63.3509,47.9783,62.9409,48.7262C62.531,49.474,61.7437,49.9392,60.8881,49.9392L48.408100000000005,49.9392C47.5526,49.9393,46.765299999999996,49.474,46.3553,48.7262C45.9453,47.9783,45.9781,47.0671,46.4407,46.3504L53.172399999999996,35.919799999999995C53.6965,35.1084,54.7817,34.8738,55.5964,35.3958L55.5964,35.3952ZM54.6481,45.2806C54.002300000000005,45.2806,53.4788,45.802099999999996,53.4788,46.4453C53.4788,47.0885,54.002300000000005,47.6099,54.6481,47.6099C55.2939,47.6099,55.8174,47.0885,55.8174,46.4453C55.8174,45.802099999999996,55.2939,45.2806,54.6481,45.2806ZM54.0634,32.4696C54.4534,32.4696,54.8217,32.564499999999995,55.1451,32.7334C54.1936,32.528099999999995,53.213899999999995,32.9309,52.684799999999996,33.7449L44.433,46.4453L28.33862,46.4453C27.04704,46.4453,26.000000313633,45.4024,26.000000627267,44.116L26.000000627267,34.7989C26.000000313633,33.5125,27.04704,32.4696,28.33862,32.4696L54.0634,32.4696ZM54.6481,38.2928C54.002300000000005,38.2928,53.4788,38.8142,53.4788,39.4574L53.4788,42.9514C53.4788,43.5946,54.002300000000005,44.116,54.6481,44.116C55.2939,44.116,55.8174,43.5946,55.8174,42.9514L55.8174,39.4574C55.8174,38.8142,55.2939,38.2928,54.6481,38.2928ZM54.0634,15C55.355000000000004,15,56.402100000000004,16.04285,56.402100000000004,17.32928L56.402100000000004,26.6464C56.402100000000004,27.9328,55.355000000000004,28.9757,54.0634,28.9757L28.33862,28.9757C27.04704,28.9757,26.000000313633,27.9328,26.000000627267,26.6464L26.000000627267,17.32928C26.000000313633,16.04285,27.04704,15,28.33862,15L54.0634,15ZM35.93914,17.9116L31.2619,17.9116C30.6161,17.9116,30.09259,18.43303,30.09259,19.07624C30.09259,19.719450000000002,30.6161,20.24088,31.2619,20.24088L35.93914,20.24088C36.5849,20.24088,37.1084,19.719450000000002,37.1084,19.07624C37.1084,18.43303,36.5849,17.9116,35.93914,17.9116Z" fill="#FFFFFF" fill-opacity="1"/></g></g></svg>