<svg xmlns="http://www.w3.org/2000/svg" xmlns:xlink="http://www.w3.org/1999/xlink" fill="none" version="1.1" width="50" height="50" viewBox="0 0 50 50"><g><g><path d="M13.7629237890625,25.75569453125C11.7914937890625,24.63859453125,9.9514937890625,24.70429453125,8.3086437890625,26.01859453125C6.7314957890625,27.20139453125,6.0743527890625,28.84429453125,6.3372102890625,30.81569453125C6.6000667890625,32.52429453125,7.1914957890625,34.167194531250004,8.1772137890625,35.67859453125C9.1629237890625,37.25569453125,10.280063789062499,38.37289453125,11.594353789062499,39.02999453125C15.1429237890625,40.86999453125,18.2314837890625,40.34429453125,20.9257837890625,37.452894531249996C21.780083789062502,36.53289453125,22.4371837890625,35.481394531250004,23.0286837890625,34.167194531250004C23.6857837890625,32.72139453125,24.0800837890625,31.40719453125,24.1457837890625,30.09289453125C24.1457837890625,29.43569453125,24.4743837890625,29.10719453125,25.0000837890625,29.10719453125C25.5257837890625,29.10719453125,25.8543837890625,29.36999453125,26.1171837890625,29.82999453125C26.9057837890625,32.12999453125,26.7743837890625,34.298594531250004,25.6571837890625,36.26999453125C24.5400837890625,38.241394531249995,24.6714837890625,40.08139453125,25.8543837890625,41.65859453125C27.0371837890625,43.23569453125,28.6800837890625,43.89289453125,30.6514837890625,43.56429453125C32.3600837890625,43.30139453125,34.0028837890625,42.70999453125,35.5143837890625,41.72429453125C37.0914837890625,40.73859453125,38.208683789062505,39.62139453125,38.8657837890625,38.307194531250005C40.7057837890625,34.75859453125,40.1800837890625,31.66999453125,37.2228837890625,29.04139453125C36.3028837890625,28.18719453125,35.251483789062505,27.46429453125,33.9371837890625,26.87289453125C32.4914837890625,26.21569453125,31.1771837890625,25.82139453125,29.8628837890625,25.75569453125C29.2057837890625,25.75569453125,28.8771837890625,25.42719453125,28.8771837890625,24.90139453125C28.8771837890625,24.37569453125,29.1400837890625,23.98139453125,29.6657837890625,23.84999453125C30.5857837890625,23.52139453125,31.5057837890625,23.32429453125,32.4914837890625,23.32429453125C33.740083789062496,23.32429453125,34.922883789062496,23.65289453125,36.0400837890625,24.24429453125C38.011483789062495,25.36139453125,39.8514837890625,25.29569453125,41.4943837890625,24.04719453125C43.0714837890625,22.86429453125,43.7285837890625,21.22139453125,43.4657837890625,19.24999453125C43.2028837890625,17.54139453125,42.6114837890625,15.89857453125,41.6257837890625,14.38715453125C40.6400837890625,12.81000453125,39.5228837890625,11.692864531249999,38.208683789062505,11.03572453125C34.6600837890625,9.19572453125,31.5714837890625,9.72143453125,28.8771837890625,12.61286453125C28.0228837890625,13.53286453125,27.3657837890625,14.65000453125,26.7743837890625,15.89857453125C26.1171837890625,17.34429453125,25.7228837890625,18.724294531250003,25.6571837890625,19.97289453125C25.6571837890625,20.56429453125,25.3286837890625,20.89289453125,24.8028837890625,20.95859453125C24.2771837890625,21.02429453125,23.8828837890625,20.69569453125,23.6857837890625,20.235694531249997C23.3571837890625,19.31569453125,23.2257837890625,18.39569453125,23.2257837890625,17.34429453125C23.2257837890625,16.09572453125,23.5543837890625,14.91286453125,24.1457837890625,13.79572453125C25.2628837890625,11.82429453125,25.1314837890625,9.98429453125,23.9486837890625,8.40715453125C22.7657837890625,6.83000653125,21.1886837890625,6.17286353125,19.2171837890625,6.43572103125C17.508683789062502,6.69857753125,15.8657737890625,7.29000653125,14.3543537890625,8.27572453125C12.7772037890625,9.26143453125,11.6600637890625,10.378574531249999,10.937203789062501,11.692864531249999C9.097203789062501,15.24143453125,9.6229237890625,18.32999453125,12.5800637890625,21.02429453125C13.5000637890625,21.878594531250002,14.6172037890625,22.60139453125,15.8657737890625,23.19289453125C17.3114837890625,23.84999453125,18.625783789062503,24.17859453125,19.9400837890625,24.24429453125C20.5971837890625,24.24429453125,20.9257837890625,24.57289453125,20.9257837890625,25.09859453125C20.9257837890625,25.62429453125,20.662883789062498,26.01859453125,20.137183789062497,26.21569453125C17.9028837890625,27.00429453125,15.7343537890625,26.87289453125,13.7629237890625,25.75569453125ZM26.3143837890625,23.65289453125C26.7086837890625,24.04719453125,26.8400837890625,24.44139453125,26.8400837890625,24.96719453125C26.8400837890625,25.49289453125,26.6428837890625,25.95289453125,26.3143837890625,26.34719453125C25.9200837890625,26.67569453125,25.5257837890625,26.87289453125,25.0000837890625,26.87289453125C24.4743837890625,26.87289453125,24.0143837890625,26.67569453125,23.6200837890625,26.34719453125C23.2257837890625,25.95289453125,23.0943837890625,25.49289453125,23.0943837890625,24.96719453125C23.0943837890625,24.44139453125,23.2914837890625,23.98139453125,23.6200837890625,23.65289453125C24.0143837890625,23.25859453125,24.4743837890625,23.06139453125,25.0000837890625,23.06139453125C25.5257837890625,23.12719453125,25.9200837890625,23.25859453125,26.3143837890625,23.65289453125Z" fill="#FFFFFF" fill-opacity="1"/></g></g></svg>