<?xml version="1.0" encoding="UTF-8"?>
<svg width="37px" height="38px" viewBox="0 0 37 38" version="1.1" xmlns="http://www.w3.org/2000/svg" xmlns:xlink="http://www.w3.org/1999/xlink">
    <title>ic-gaojing02</title>
    <g id="页面-1" stroke="none" stroke-width="1" fill="none" fill-rule="evenodd">
        <g id="3D交互切图10.27" transform="translate(-1006.000000, -791.000000)">
            <g id="编组-35" transform="translate(1006.000000, 791.000000)">
                <path d="M18.5001272,7.6 C25.3909768,7.6 30.996301,13.1054904 31.1596733,19.9589101 L31.1633378,20.2666667 L31.1633378,34.2 L35.5954614,34.2 C35.9133568,34.2 36.1765338,34.4343413 36.2217569,34.739744 L36.228622,34.8333333 L36.228622,37.3666667 C36.228622,37.6846488 35.9943446,37.9478976 35.6890253,37.993133 L35.5954614,38 L1.40479306,38 C1.08689769,38 0.823720741,37.7656587 0.77849762,37.460256 L0.771632534,37.3666667 L0.771632534,34.8333333 C0.771632534,34.5153512 1.00590991,34.2521024 1.31122924,34.206867 L1.40479306,34.2 L5.83691674,34.2 L5.83691674,20.2666667 C5.83691674,13.2710598 11.5064292,7.6 18.5001272,7.6 Z M19.6968006,14.1233333 L13.2448949,21.6473333 C13.1665866,21.7413662 13.149458,21.8721172 13.2009014,21.983157 C13.2523448,22.0941969 13.3631501,22.1656453 13.4854959,22.1666667 L17.5060652,22.1666667 L16.7526042,27.4296667 C16.7367653,27.5668451 16.8116207,27.6984727 16.9375949,27.7549593 C17.0635692,27.8114459 17.2116117,27.7797653 17.3034539,27.6766667 L23.7553596,20.1526667 C23.8336679,20.0586338 23.8507965,19.9278828 23.7993531,19.816843 C23.7479096,19.7058031 23.6371044,19.6343547 23.5147586,19.6333333 L19.4941893,19.6333333 L20.2476503,14.3703333 C20.2634891,14.2331549 20.1886338,14.1015273 20.0626595,14.0450407 C19.9366853,13.9885541 19.7886428,14.0202347 19.6968006,14.1233333 Z M1.89948158,8.48664114 L6.28614639,11.0199745 L4.38666481,14.310871 L0,11.7775377 L1.89948158,8.48664114 Z M35.1005184,8.48513657 L37,11.7760331 L32.6133352,14.3093664 L30.7138537,11.0184699 L35.1005184,8.48513657 Z M10.0169045,1.76682805 L12.5495466,6.15469011 L9.25954799,8.05469011 L6.72690589,3.66682805 L10.0169045,1.76682805 Z M26.9819201,1.76292656 L30.2719187,3.66292656 L27.7392766,8.05078862 L24.449278,6.15078862 L26.9819201,1.76292656 Z M20.3996088,0 L20.3996088,5.06666667 L16.6006457,5.06666667 L16.6006457,0 L20.3996088,0 Z" id="形状结合" fill="#FF6515" fill-rule="nonzero"></path>
                <g id="#meaxure-overlay-339E2E56-28C8-4304-AF08-2BB7283E9A30"></g>
            </g>
        </g>
    </g>
</svg>