<?xml version="1.0" encoding="UTF-8"?>
<svg width="42px" height="42px" viewBox="0 0 42 42" version="1.1" xmlns="http://www.w3.org/2000/svg" xmlns:xlink="http://www.w3.org/1999/xlink">
    <title>ic-guangfu</title>
    <g id="页面-1" stroke="none" stroke-width="1" fill="none" fill-rule="evenodd">
        <g id="3D交互切图10.27" transform="translate(-626.000000, -790.000000)">
            <g id="编组-29" transform="translate(626.000000, 790.000000)">
                <path d="M21.867134,27.5716667 L21.867134,33.5716667 L28.4293032,33.5716667 L28.4293032,37 L12.0242968,37 L12.0242968,33.5716667 L18.5856327,33.5716667 L18.5856327,27.5716667 L21.867134,27.5716667 L21.867134,27.5716667 Z M9.06277942,21.9991667 L7.92950319,27.0000001 L4.66716763,27.0000001 C4.14371916,27.0001792 3.65059927,26.7544063 3.3355874,26.3363352 C3.02057554,25.9182641 2.92027659,25.3764752 3.0647484,24.8733333 L3.88970682,22 L9.06277942,22 L9.06277942,21.9991667 Z M19.4064247,21.9991667 L19.4064247,27 L9.61441826,27 L10.7468612,21.9991667 L19.4064247,21.9991667 L19.4064247,21.9991667 Z M30.7666854,21.9991667 L31.8991283,27 L21.0471753,27 L21.0471753,21.9991667 L30.7666854,21.9991667 L30.7666854,21.9991667 Z M37.1105323,21.9991667 L37.9354907,24.8741667 C38.0796068,25.3770557 37.9792552,25.9184351 37.6644744,26.3362531 C37.3496936,26.7540712 36.8570121,26.9998425 36.3339048,27 L33.5832101,27 L32.4499339,21.9991667 L37.1105323,21.9991667 L37.1105323,21.9991667 Z M10.1952223,16.9991667 L9.44026039,20.3325 L4.36801607,20.3325 L5.32546781,16.9991667 L10.1952223,16.9991667 Z M19.4064247,16.9991667 L19.4064247,20.3325 L11.1235089,20.3325 L11.8793041,16.9991667 L19.4064247,16.9991667 Z M29.6342425,16.9991667 L30.3892044,20.3325 L21.0471753,20.3325 L21.0471753,16.9991667 L29.6334092,16.9991667 L29.6342425,16.9991667 Z M35.6747713,16.9991667 L36.6313898,20.3325 L32.0724529,20.3325 L31.317491,16.9991667 L35.6747713,16.9991667 L35.6747713,16.9991667 Z M11.3276653,11.9991667 L10.5727033,15.3325 L5.80377702,15.3325 L6.76039548,11.9991667 L11.3268319,11.9991667 L11.3276653,11.9991667 Z M19.4064247,11.9991667 L19.4064247,15.3325 L12.2567851,15.3325 L13.011747,11.9991667 L19.4064247,11.9991667 L19.4064247,11.9991667 Z M28.5017996,11.9991667 L29.2567615,15.3325 L21.0471753,15.3325 L21.0471753,11.9991667 L28.5017996,11.9991667 L28.5017996,11.9991667 Z M34.2390104,11.9991667 L35.1956288,15.3325 L30.94001,15.3325 L30.185048,11.9991667 L34.2390104,11.9991667 Z M12.4601082,7 L11.7051462,10.3325 L7.23953797,10.3325 L7.85034054,8.2075 C8.0550647,7.49311988 8.70799214,7.00059539 9.45109317,7 L12.4592749,7 L12.4601082,7 Z M19.4064247,7 L19.4064247,10.3325 L13.389228,10.3325 L14.1441899,7 L19.4064247,7 Z M27.3693566,7 L28.1243186,10.3325 L21.0471753,10.3325 L21.0471753,7 L27.3693566,7 Z M31.549146,7 C32.2923232,7.00011718 32.9456149,7.49232017 33.1507319,8.20666668 L33.7607011,10.3333333 L29.8075671,10.3333333 L29.0526051,7 L31.549146,7 Z" id="形状" fill="#1AE622" fill-rule="nonzero"></path>
                <g id="#meaxure-overlay-CD6841CA-0281-4DE6-912A-49CA7E2D6E75"></g>
            </g>
        </g>
    </g>
</svg>