<svg xmlns="http://www.w3.org/2000/svg" xmlns:xlink="http://www.w3.org/1999/xlink" fill="none" version="1.1" width="32" height="32" viewBox="0 0 32 32"><g><g><path d="M31.3321,8.436630000000001C30.9643,7.08439,29.8786,6.01943,28.5036,5.658599Q26.0071,5,16,5Q5.99286,5,3.49643,5.655096C2.11786,6.0159199999999995,1.03571,7.08089,0.667857,8.43312Q0,10.885349999999999,0,16Q0,21.1147,0.667857,23.5634C1.03571,24.9156,2.12143,25.9806,3.49643,26.3414Q5.99286,27,16,27Q26.0071,27,28.5036,26.3414C29.8821,25.9806,30.9643,24.9156,31.3321,23.5634Q32,21.1147,32,16Q32,10.885349999999999,31.3321,8.436630000000001ZM12.8214,20.6943L12.8214,11.30573L21.1071,15.965L12.8214,20.6943Z" fill="#FFFFFF" fill-opacity="1"/></g></g></svg>