<svg xmlns="http://www.w3.org/2000/svg" xmlns:xlink="http://www.w3.org/1999/xlink" fill="none" version="1.1" width="28"
  height="28" viewBox="0 0 28 28">
  <g>
    <g>
      <path
        d="M13.9962,9.33117C11.4255,9.33117,9.32767,11.4291,9.32767,13.9997C9.32767,16.5704,11.4255,18.6683,13.9962,18.6683C16.5669,18.6683,18.6648,16.5704,18.6648,13.9997C18.6648,11.429,16.5669,9.33117,13.9962,9.33117ZM27.9984,13.9997C27.9984,12.0665,28.0159,10.1507,27.9074,8.22094C27.7988,5.97947,27.2875,3.99016,25.6484,2.35109C24.0058,0.708507,22.02,0.200673,19.7785,0.0921016C17.8453,-0.0164697,15.9295,0.00104183,13.9997,0.00104183C12.0665,0.00104183,10.1507,-0.0164697,8.22094,0.0921016C5.97947,0.200673,3.99016,0.712009,2.35108,2.35109C0.708507,3.99367,0.200673,5.97947,0.0921016,8.22094C-0.0164697,10.1542,0.00104183,12.07,0.00104183,13.9997C0.00104183,15.9295,-0.0164697,17.8488,0.0921016,19.7785C0.200673,22.02,0.712009,24.0093,2.35109,25.6484C3.99366,27.291,5.97947,27.7988,8.22094,27.9074C10.1542,28.0159,12.07,27.9984,13.9997,27.9984C15.933,27.9984,17.8488,28.0159,19.7785,27.9074C22.02,27.7988,24.0093,27.2875,25.6484,25.6484C27.291,24.0058,27.7988,22.02,27.9074,19.7785C28.0194,17.8488,27.9984,15.933,27.9984,13.9997ZM13.9962,21.183C10.0211,21.183,6.81302,17.9749,6.81302,13.9997C6.81302,10.0246,10.0211,6.81652,13.9962,6.81652C17.9713,6.81652,21.1795,10.0246,21.1795,13.9997C21.1795,17.9749,17.9713,21.183,13.9962,21.183ZM21.4737,8.19993C20.5455,8.19993,19.796,7.45044,19.796,6.52233C19.796,5.59422,20.5455,4.84472,21.4737,4.84472C22.4018,4.84472,23.1513,5.59422,23.1513,6.52233C23.1478,7.45394,22.4018,8.19993,21.4737,8.19993Z"
        fill="#FFFFFF" fill-opacity="1" />
    </g>
  </g>
</svg>