<svg xmlns="http://www.w3.org/2000/svg" xmlns:xlink="http://www.w3.org/1999/xlink" fill="none" version="1.1" width="28" height="28" viewBox="0 0 28 28"><defs><clipPath id="master_svg0_328_02313"><rect x="0" y="0" width="28" height="28" rx="0"/></clipPath></defs><g clip-path="url(#master_svg0_328_02313)"><g><path d="M25.1128,0L2.8599,0C1.28186,0,0,1.28003,0,2.86269L0,25.1373C0,26.72,1.28186,28,2.8599,28L25.1128,28C26.6939,28,27.9758,26.7215,27.9758,25.1373L27.9758,2.86269C27.9758,1.28003,26.6939,0,25.1128,0ZM24.6253,6.16543Q20.4836,4.65226,20.4836,7.73111L20.4836,10.0565L24.5235,10.0565L24.1657,13.8981L20.4836,13.8981L20.4836,26.9902L15.5351,26.9902L15.5351,13.8981L13.1102,13.8981L13.1102,10.0565L15.5351,10.0565L15.5351,7.73111L15.5351,6.01566Q15.4842,2.89511,19.5503,1.99647Q22.4041,1.36341,25.1791,2.27595L24.6253,6.16543Z" fill="#FFFFFF" fill-opacity="1"/></g></g></svg>