<svg xmlns="http://www.w3.org/2000/svg" xmlns:xlink="http://www.w3.org/1999/xlink" fill="none" version="1.1" width="64" height="64" viewBox="11 0 64 64"><defs><clipPath id="master_svg0_60_09529"><rect x="24" y="16" width="39" height="39" rx="0"/></clipPath></defs><g><g><path d="M12.58,73.36L16.24,73.36L16.24,77.24L12.58,77.24L12.58,73.36ZM10.82,71.68L10.82,78.94L18.12,78.94L18.12,71.68L10.82,71.68ZM5.6,84.82L14.46,84.82L14.46,86.44L5.6,86.44L5.6,84.82ZM5.6,83.4L5.6,81.84L14.46,81.84L14.46,83.4L5.6,83.4ZM3.74,80.32L3.74,88.6853L5.6,88.6853L5.6,87.96000000000001L14.46,87.96000000000001L14.46,88.645L16.4,88.645L16.4,80.32L3.74,80.32ZM4.94,73.2L4.94,74.24L4.92,74.86L2.38,74.86C2.8,74.4,3.2,73.82,3.56,73.2L4.94,73.2ZM3.08,70.0128C2.66,71.5194,1.88,73.02,0.84,74C1.24,74.2,1.94,74.6,2.28,74.86L0.92,74.86L0.92,76.36L4.58,76.36C4.1,77.48089999999999,3.06,78.6619,0.72,79.58279999999999C1.14,79.8828,1.68,80.46340000000001,1.92,80.8638C3.9,79.9628,5.08,78.8822,5.78,77.7812C6.76,78.4419,8.06,79.4025,8.66,79.8828L9.98,78.64189999999999C9.42,78.2616,7.18,76.9406,6.38,76.5403L6.44,76.36L10.04,76.36L10.04,74.86L6.72,74.86L6.74,74.28L6.74,73.2L9.54,73.2L9.54,71.7L4.3,71.7C4.48,71.2784,4.64,70.8162,4.78,70.3744L3.08,70.0128ZM29.05,78.86L29.05,80.3L25.35,80.3L25.35,78.86L29.05,78.86ZM23.59,77.28L23.59,88.66L25.35,88.66L25.35,84.72L29.05,84.72L29.05,86.62C29.05,86.86,28.97,86.94,28.73,86.94C28.45,86.96000000000001,27.63,86.96000000000001,26.77,86.92C27.03,87.4,27.31,88.14,27.41,88.64C28.63,88.64,29.53,88.6,30.13,88.32C30.75,88.03999999999999,30.91,87.53999999999999,30.91,86.64L30.91,77.28L23.59,77.28ZM25.35,81.74L29.05,81.74L29.05,83.26L25.35,83.26L25.35,81.74ZM38.73,71.5128C37.67,72.0938,36.07,72.7744,34.51,73.3353L34.51,70.1513L32.65,70.1513L32.65,76.5394C32.65,78.42,33.17,78.98,35.29,78.98C35.71,78.98,37.97,78.98,38.43,78.98C40.13,78.98,40.65,78.3,40.87,75.7981C40.35,75.6781,39.57,75.3978,39.21,75.0975C39.11,76.97970000000001,38.97,77.3,38.25,77.3C37.75,77.3,35.89,77.3,35.51,77.3C34.65,77.3,34.51,77.2,34.51,76.51910000000001L34.51,74.8572C36.37,74.3162,38.41,73.6356,39.97,72.8947L38.73,71.5128ZM38.93,80.4616C37.87,81.15690000000001,36.19,81.8972,34.53,82.4975L34.53,79.4959L32.67,79.4959L32.67,86.05969999999999C32.67,87.96000000000001,33.21,88.52,35.33,88.52C35.77,88.52,38.07,88.52,38.53,88.52C40.31,88.52,40.83,87.78,41.05,85.01910000000001C40.53,84.8991,39.77,84.6187,39.37,84.3188C39.29,86.48,39.15,86.86,38.37,86.86C37.85,86.86,35.95,86.86,35.57,86.86C34.71,86.86,34.53,86.74,34.53,86.05969999999999L34.53,84.0584C36.49,83.4781,38.63,82.7378,40.19,81.8572L38.93,80.4616ZM23.37,76.0737C23.83,75.8938,24.57,75.7738,29.77,75.3734C29.95,75.7537,30.09,76.0941,30.19,76.4141L31.87,75.6938C31.49,74.4731,30.41,72.6719,29.41,71.3113L27.83,71.9316C28.25,72.5519,28.69,73.2522,29.07,73.9528L25.31,74.1928C26.15,73.1522,27.01,71.8716,27.65,70.6106L25.65,70.0503C25.05,71.5712,24.01,73.0922,23.69,73.4925C23.35,73.9328,23.05,74.2128,22.73,74.2928C22.95,74.7931,23.27,75.6938,23.37,76.0737ZM47.42,78.24L47.42,88.705L49.34,88.705L49.34,88.08L58.5,88.08L58.5,88.68469999999999L60.38,88.68469999999999L60.38,83.64L49.34,83.64L49.34,82.46000000000001L59.32,82.46000000000001L59.32,78.24L47.42,78.24ZM58.5,86.66L49.34,86.66L49.34,85.06L58.5,85.06L58.5,86.66ZM51.98,74.4981C52.18,74.8787,52.4,75.3194,52.56,75.72L45.12,75.72L45.12,79.12L46.94,79.12L46.94,77.16L59.86,77.16L59.86,79.12L61.8,79.12L61.8,75.72L54.48,75.72C54.28,75.21940000000001,53.98,74.6184,53.66,74.1578L51.98,74.4981ZM49.34,79.64L57.46,79.64L57.46,81.06L49.34,81.06L49.34,79.64ZM46.62,69.99281C46.1,71.72,45.2,73.44,44.08,74.53999999999999C44.54,74.74,45.34,75.16,45.7,75.4C46.28,74.76,46.84,73.92,47.34,73L48.44,73C48.92,73.74,49.36,74.62,49.56,75.2L51.16,74.64C51,74.2,50.66,73.58,50.3,73L53.12,73L53.12,71.66L47.98,71.66C48.16,71.2384,48.32,70.7963,48.46,70.3544L46.62,69.99281ZM55.14,70.0128C54.78,71.4594,54.08,72.9,53.16,73.8206C53.6,74.0406,54.38,74.4409,54.72,74.7013C55.14,74.2209,55.52,73.6606,55.88,73.02L57.02,73.02C57.62,73.7606,58.24,74.6813,58.48,75.2616L60.02,74.5613C59.82,74.1409,59.44,73.5606,59,73.02L62.24,73.02L62.24,71.66L56.52,71.66C56.7,71.2384,56.86,70.7963,56.98,70.3544L55.14,70.0128ZM74.85,76.32L77.49,76.32L77.49,78.52L74.85,78.52L74.85,76.32ZM79.11,76.32L81.69,76.32L81.69,78.52L79.11,78.52L79.11,76.32ZM74.85,72.62L77.49,72.62L77.49,74.8L74.85,74.8L74.85,72.62ZM79.11,72.62L81.69,72.62L81.69,74.8L79.11,74.8L79.11,72.62ZM71.47,86.32L71.47,88.03999999999999L84.41,88.03999999999999L84.41,86.32L79.25,86.32L79.25,83.92L83.75,83.92L83.75,82.2L79.25,82.2L79.25,80.14L83.49,80.14L83.49,71L73.13,71L73.13,80.14L77.33,80.14L77.33,82.2L72.95,82.2L72.95,83.92L77.33,83.92L77.33,86.32L71.47,86.32ZM65.61,84.78L66.07,86.72C67.89,86.12,70.25,85.32,72.43,84.58L72.11,82.78L70.01,83.46000000000001L70.01,78.9L71.95,78.9L71.95,77.16L70.01,77.16L70.01,73.14L72.25,73.14L72.25,71.38L65.83,71.38L65.83,73.14L68.21,73.14L68.21,77.16L66.03,77.16L66.03,78.9L68.21,78.9L68.21,84.025C67.25,84.32,66.35,84.58,65.61,84.78Z" fill="#FFFFFF" fill-opacity="1"/></g><g clip-path="url(#master_svg0_60_09529)"><g><path d="M50.866659375,17.041015625L35.440029375,17.041015625C33.100029375,17.041015625,31.193359375,18.947685625,31.193359375,21.287685625L31.193359375,49.281015625C31.193359375,51.621015625,33.100029375,53.527715625,35.440029375,53.527715625L50.866659375,53.527715625C53.206659375,53.527715625,55.113359375,51.621015625,55.113359375,49.281015625L55.113359375,21.287685625C55.113359375,18.947685625,53.206659375,17.04101534605,50.866659375,17.041015625ZM41.766659375,18.427685625L44.540059375,18.427685625C44.886659375,18.427685625,45.233359375,18.774345625,45.233359375,19.121015625C45.233359375,19.467685625,44.886659375,19.814345625,44.540059375,19.814345625L41.766659375,19.814345625C41.420059375,19.814345625,41.073359375,19.467685625,41.073359375,19.121015625C41.073359375,18.774345625,41.420059375,18.427685625,41.766659375,18.427685625ZM43.153359375,51.794315625C42.200059375,51.794315625,41.333359375,51.014315625,41.333359375,49.974315625C41.333359375,49.021015625000004,42.113359375,48.154315624999995,43.153359375,48.154315624999995C44.106659375,48.154315624999995,44.973359375,48.934315624999996,44.973359375,49.974315625C44.973359375,51.014315625,44.193359375,51.794315625,43.153359375,51.794315625ZM52.253359375,45.987715625L34.053359375,45.987715625L34.053359375,45.207715625L52.253359375,45.207715625L52.253359375,45.987715625Z" fill="#FFFFFF" fill-opacity="1"/></g></g></g></svg>