<svg xmlns="http://www.w3.org/2000/svg" xmlns:xlink="http://www.w3.org/1999/xlink" fill="none" version="1.1" width="50" height="50" viewBox="191 25 50 50"><defs><clipPath id="master_svg0_425_4880"><rect x="0" y="0" width="636" height="381" rx="0"/></clipPath></defs><g clip-path="url(#master_svg0_425_4880)"><g><g style="opacity:0.800000011920929;"><g><path d="M217.21381895065306,50.89488411102295C217.55811895065307,52.96668411102295,217.33901895065307,54.88828411102295,216.55651895065307,56.44958411102295C215.99321895065307,57.590484111022946,215.02291895065306,58.28108411102295,213.83363895065307,58.31108411102295C213.6458489506531,58.34108411102295,213.48935895065307,58.34108411102295,213.33286895065308,58.34108411102295C210.92293895065308,58.34108411102295,208.26262895065307,56.509584111022946,207.0733089506531,55.09838411102295C206.44734895065307,54.37778411102295,203.44276095065308,50.59468411102295,204.63207795065307,48.40288411102295C204.88246095065307,47.83238411102295,205.57100895065307,47.11176411102295,206.54124895065308,46.90158411102295C207.0733089506531,46.78148411102295,207.88704895065308,46.78148411102295,208.76338895065308,47.411984111022946C209.92140895065307,48.25268411102295,210.92293895065308,48.22268411102295,211.95576895065307,47.98248411102295C209.8275189506531,47.20183411102295,208.23132895065308,46.12093411102295,207.22979895065308,44.67973411102295C206.54124895065308,43.65888411102295,206.38475895065307,42.51793411102295,206.88551895065308,41.43703411102295C207.85575895065307,39.185154111022946,211.26721895065307,37.74395311102295,213.17638895065306,37.47372811102295C214.14661895065308,37.35362811102295,219.02911895065307,36.753128111022946,220.43751895065307,38.82485411102295C220.75041895065308,39.33528411102295,221.06341895065307,40.236034111022946,220.78171895065307,41.16680411102295C220.65651895065307,41.67723411102295,220.21841895065307,42.33778411102295,219.21681895065308,42.75813411102295C217.93361895065308,43.26855411102295,217.43291895065306,44.07923411102295,217.18251895065308,44.91993411102295C217.24511895065308,44.91993411102295,217.27641895065307,44.94995411102295,217.30771895065308,44.97998411102295C218.99781895065308,43.718934111022946,220.78171895065307,42.968304111022945,222.50311895065306,42.84820411102295C223.8489189506531,42.75813411102295,224.88181895065307,43.23853411102295,225.63291895065308,44.19933411102295C227.16651895065309,46.18098411102295,226.82221895065308,49.69388411102295,226.1024189506531,51.43538411102295C225.75811895065308,52.27608411102295,223.81761895065307,56.689784111022945,221.28251895065307,56.80988411102295L221.15731895065306,56.80988411102295C220.53141895065306,56.80988411102295,219.62371895065309,56.59968411102295,218.96651895065307,55.93908411102295C218.59091895065308,55.548784111022954,218.18401895065307,54.88828411102295,218.30921895065308,53.83738411102295C218.52831895065307,52.45618411102295,217.96491895065307,51.61548411102295,217.21381895065306,50.89488411102295ZM208.38743895065306,42.06754411102295C208.10575895065307,42.60799411102295,208.16834895065307,43.20849411102295,208.60651895065308,43.80899411102295C209.38896895065307,44.91992411102295,210.64087895065308,45.82067411102295,212.36225895065309,46.54127411102295C212.92561895065307,45.37029411102295,214.11493895065308,44.52959411102295,215.55461895065307,44.52959411102295L215.7111189506531,44.52959411102295C216.11801895065307,43.32859411102295,216.86911895065307,42.09756411102295,218.65311895065307,41.34694411102295C219.0287189506531,41.19681411102295,219.21651895065307,40.98664411102295,219.3104189506531,40.71641411102295C219.40431895065308,40.32609411102295,219.24781895065308,39.84569411102295,219.12261895065308,39.63551411102295C218.65311895065307,38.91491411102295,216.08671895065308,38.61466411102295,213.45767895065308,39.00499411102295C211.57980895065307,39.27521411102295,209.07598895065308,40.59631411102295,208.38743895065306,42.06754411102295ZM224.38121895065308,45.10009411102295C223.97431895065307,44.52961411102295,223.41091895065307,44.319444111022946,222.65981895065306,44.37949411102295C221.28271895065308,44.46956411102295,219.90561895065306,45.07006411102295,218.49721895065306,46.03086411102295C218.84141895065306,46.51126411102295,219.02921895065307,47.11176411102295,219.02921895065307,47.77228411102295C219.02921895065307,48.492884111022946,218.7788189506531,49.18348411102295,218.34071895065307,49.75398411102295C219.18571895065307,50.56468411102295,220.15591895065307,51.88578411102295,219.90561895065306,53.95748411102295C219.8430189506531,54.317784111022945,219.93691895065308,54.61798411102295,220.12471895065306,54.82818411102295C220.43761895065307,55.15848411102295,220.93841895065307,55.24858411102295,221.1888189506531,55.24858411102295C222.12771895065308,55.218484111022946,223.63001895065307,53.20688411102295,224.60021895065307,50.83488411102295C225.32011895065307,49.15348411102295,225.38271895065307,46.391164111022945,224.38121895065308,45.10009411102295ZM215.55551895065307,46.03085411102295C214.52261895065308,46.03085411102295,213.67760895065308,46.84153411102295,213.67760895065308,47.83238411102295C213.67760895065308,48.85318411102295,214.49131895065307,49.63388411102295,215.55551895065307,49.63388411102295C216.58831895065308,49.63388411102295,217.43331895065307,48.82318411102295,217.43331895065307,47.83238411102295C217.43331895065307,46.84153411102295,216.58831895065308,46.03085411102295,215.55551895065307,46.03085411102295ZM213.58318895065307,56.86988411102295C214.2717389506531,56.77978411102295,214.77251895065308,56.44958411102295,215.08551895065307,55.78898411102295C215.71141895065307,54.55798411102295,215.93051895065307,52.96668411102295,215.61751895065308,51.25518411102295L215.55491895065308,51.25518411102295C214.24043895065307,51.25518411102295,213.11371895065307,50.56468411102295,212.48775895065307,49.54378411102295C211.26714895065308,49.904084111022954,209.60836895065307,50.08428411102295,207.8243889506531,48.76318411102295C207.51140895065308,48.52298411102295,207.19842895065307,48.46288411102295,206.91674895065307,48.52298411102295C206.50987895065307,48.61298411102295,206.16559895065308,49.00338411102295,206.04040895065307,49.21348411102295C205.6022389506531,49.994184111022946,206.57247895065308,52.27608411102295,208.26255895065307,54.19768411102295C209.45187895065308,55.57878411102295,211.92439895065309,57.050084111022954,213.58318895065307,56.86988411102295Z" fill-rule="evenodd" fill="#FFFFFF" fill-opacity="1"/></g><g><path d="M200,47.8624C200,56.089200000000005,206.94812,62.7548,215.4924,62.7548C224.068,62.7548,231.0161,56.119299999999996,231.0161,47.8924C231.0161,39.665549999999996,224.0367,33,215.4924,33C206.94812,33,200,39.63553,200,47.8624ZM201.97168,47.8324C201.97168,40.6864,208.01216,34.86154,215.4923,34.86154C223.0038,34.86154,229.1069,40.71642,229.1069,47.8624C229.1069,55.0083,222.9725,60.833200000000005,215.5236,60.833200000000005C208.07476,60.833200000000005,201.97168,54.978300000000004,201.97168,47.8324Z" fill-rule="evenodd" fill="#FFFFFF" fill-opacity="1"/></g><g><path d="M214.61608505249023,61.493743896484375L216.40006505249025,61.493743896484375L216.40006505249025,67.55879389648437L214.61608505249023,67.55879389648437L214.61608505249023,61.493743896484375Z" fill="#FFFFFF" fill-opacity="1"/></g><g><path d="M221.37639980621339,69.00000413330078L209.63972980621338,69.00000413330078C209.0763698062134,69.00000413330078,208.63819980621338,68.54962413330078,208.63819980621338,68.03920413330079L208.63819980621338,67.76897513330078C208.63819980621338,67.22852413330078,209.1076668062134,66.80817413330078,209.63972980621338,66.80817413330078L221.34509980621337,66.80817413330078C221.90849980621337,66.80817413330078,222.3465998062134,67.25854913330078,222.3465998062134,67.76897513330078L222.3465998062134,68.03920413330079C222.3465998062134,68.60967413330079,221.90849980621337,69.00000413330078,221.37639980621339,69.00000413330078Z" fill="#FFFFFF" fill-opacity="1"/></g></g></g></g></svg>