<svg xmlns="http://www.w3.org/2000/svg" xmlns:xlink="http://www.w3.org/1999/xlink" fill="none" version="1.1" width="64" height="64" viewBox="6 0 64 64"><defs><clipPath id="master_svg0_60_09536"><rect x="22" y="9" width="45" height="45" rx="0"/></clipPath></defs><g><g><path d="M2.62,71.6728C3.56,73.2547,4.54,75.3575,4.86,76.6591L6.68,75.9381C6.32,74.5766,5.3,72.5541,4.32,71.0322L2.62,71.6728ZM15.68,70.8519C15.12,72.4338,14.08,74.5966,13.24,75.9581L14.88,76.5788C15.74,75.3175,16.8,73.295,17.66,71.5328L15.68,70.8519ZM8.98,70.1109L8.98,77.62L1.04,77.62L1.04,79.42L6.2,79.42C5.9,83,5.22,85.66,0.58,87.06C1,87.44,1.54,88.2,1.76,88.7009C6.88,86.98,7.84,83.74,8.22,79.42L11.56,79.42L11.56,86.06C11.56,88.03999999999999,12.06,88.64,14.06,88.64C14.46,88.64,16.34,88.64,16.76,88.64C18.58,88.64,19.06,87.74,19.28,84.36C18.76,84.22,17.94,83.9,17.54,83.58C17.44,86.4,17.32,86.86,16.6,86.86C16.16,86.86,14.66,86.86,14.3,86.86C13.58,86.86,13.46,86.74,13.46,86.03999999999999L13.46,79.42L19,79.42L19,77.62L10.9,77.62L10.9,70.1109L8.98,70.1109ZM36.21,71.4534C37.05,72.555,38.03,74.0775,38.49,75.0188L40.03,74.0775C39.55,73.1559,38.51,71.6938,37.65,70.6322L36.21,71.4534ZM26.97,70.1112C25.89,73.1159,24.07,76.08,22.17,78.0003C22.49,78.4609,23.03,79.5016,23.21,79.9622C23.79,79.3416,24.37,78.6409,24.93,77.8803L24.93,88.6694L26.83,88.6694L26.83,74.8787C27.59,73.5166,28.25,72.09440000000001,28.77,70.6722L26.97,70.1112ZM33.03,70.1513L33.03,74.9788L33.01,75.86L27.97,75.86L27.97,77.74L32.89,77.74C32.55,80.9428,31.39,84.52590000000001,27.67,87.44839999999999C28.19,87.7887,28.85,88.2891,29.23,88.6897C32.13,86.3875,33.59,83.6253,34.29,80.8828C35.41,84.2856,37.09,87.0081,39.59,88.6494C39.91,88.1491,40.55,87.3884,41.01,87.0081C38.01,85.3066,36.15,81.8237,35.17,77.74L40.69,77.74L40.69,75.86L34.95,75.86L34.95,74.9988L34.95,70.1513L33.03,70.1513ZM55.76,74.56C54.54,76.22,52.38,77.98,50.02,79.2L49.8,78.22L48.26,78.86L48.26,75.8L49.96,75.8L49.96,74.03999999999999L48.26,74.03999999999999L48.26,70.1331L46.46,70.1331L46.46,74.03999999999999L44.28,74.03999999999999L44.28,75.8L46.46,75.8L46.46,79.58C45.6,79.92,44.8,80.22,44.16,80.44L44.68,82.34L46.46,81.6L46.46,86.4C46.46,86.68,46.36,86.76,46.12,86.76C45.88,86.76,45.12,86.76,44.34,86.74C44.56,87.26,44.8,88.08,44.86,88.56C46.14,88.56,46.96,88.48,47.52,88.18C48.08,87.88,48.26,87.38,48.26,86.4L48.26,80.84L49.92,80.12C50.2,80.4,50.46,80.72,50.62,80.94C51.4,80.53999999999999,52.16,80.08,52.88,79.58L52.88,80.7L59.3,80.7L59.3,79.46000000000001C60.04,79.98,60.8,80.44,61.5,80.8C61.8,80.38,62.38,79.72,62.78,79.38C60.78,78.52,58.38,76.94,57,75.76L57.42,75.18L55.76,74.56ZM57.98,70.1731L57.98,71.98L54.26,71.98L54.26,70.1731L52.48,70.1731L52.48,71.98L50,71.98L50,73.64L52.48,73.64L52.48,75.52L54.26,75.52L54.26,73.64L57.98,73.64L57.98,75.52L59.76,75.52L59.76,73.64L62.34,73.64L62.34,71.98L59.76,71.98L59.76,70.1731L57.98,70.1731ZM53.5,79.12C54.42,78.44,55.26,77.7,56,76.9C56.76,77.58,57.76,78.38,58.8,79.12L53.5,79.12ZM51.6,82.03999999999999L51.6,88.66499999999999L53.38,88.66499999999999L53.38,87.92L58.98,87.92L58.98,88.66499999999999L60.84,88.66499999999999L60.84,82.03999999999999L51.6,82.03999999999999ZM53.38,86.34L53.38,83.6L58.98,83.6L58.98,86.34L53.38,86.34ZM75.93,71.02L75.93,72.84L81.83,72.84L81.83,77.22L76.01,77.22L76.01,85.76C76.01,87.88,76.63,88.46000000000001,78.65,88.46000000000001C79.07,88.46000000000001,81.31,88.46000000000001,81.77,88.46000000000001C83.71,88.46000000000001,84.23,87.48,84.43,84.16C83.91,84.03999999999999,83.13,83.72,82.71,83.38C82.59,86.18,82.45,86.68,81.63,86.68C81.11,86.68,79.27,86.68,78.89,86.68C78.03,86.68,77.87,86.53999999999999,77.87,85.76L77.87,79.02L81.83,79.02L81.83,80.34L83.67,80.34L83.67,71.02L75.93,71.02ZM67.95,83.98L73.11,83.98L73.11,85.76L67.95,85.76L67.95,83.98ZM67.95,82.62L67.95,80.96000000000001C68.17,81.08,68.55,81.4,68.69,81.58C69.81,80.5,70.07,78.94,70.07,77.76L70.07,76.16L70.99,76.16L70.99,79.7C70.99,80.78,71.23,81,72.07,81C72.23,81,72.75,81,72.91,81L73.11,81L73.11,82.62L67.95,82.62ZM66.03,70.88L66.03,72.56L68.83,72.56L68.83,74.56L66.47,74.56L66.47,88.5863L67.95,88.5863L67.95,87.26L73.11,87.26L73.11,88.325L74.65,88.325L74.65,74.56L72.45,74.56L72.45,72.56L75.07,72.56L75.07,70.88L66.03,70.88ZM70.11,74.56L70.11,72.56L71.13,72.56L71.13,74.56L70.11,74.56ZM67.95,80.92L67.95,76.16L69.11,76.16L69.11,77.74C69.11,78.74,68.95,79.96000000000001,67.95,80.92ZM71.95,76.16L73.11,76.16L73.11,79.98L73.03,79.92C72.99,79.98,72.95,79.98,72.75,79.98C72.63,79.98,72.25,79.98,72.17,79.98C71.97,79.98,71.95,79.96000000000001,71.95,79.7L71.95,76.16Z" fill="#FFFFFF" fill-opacity="1"/></g><g clip-path="url(#master_svg0_60_09536)"><g><path d="M38.277843359375,22.262187957763672L31.104063359375,22.262187957763672C30.226563359375,22.262187957763672,29.369683359375,22.933437957763672,29.192493359375,23.777187957763672L28.170623359375,28.665317957763673C27.954993359375,29.704067957763673,28.601873359375,30.581567957763674,29.619063359374998,30.581567957763674L37.937543359375,30.581567957763674C38.954643359375,30.581567957763674,39.794643359375,29.704067957763673,39.805943359375,28.665317957763673L39.857543359375,23.777187957763672C39.866843359375,22.93250395776367,39.155343359374996,22.262190818783672,38.277843359375,22.262187957763672ZM42.487143359375,30.581567957763674L50.746543359374996,30.581567957763674C51.757143359375,30.581567957763674,52.400343359375,29.704067957763673,52.184643359375,28.665317957763673L51.168443359375004,23.777187957763672C50.993143359375,22.932500957763672,50.141843359375,22.262187957763672,49.270043359374995,22.262187957763672L42.145043359374995,22.262187957763672C41.275043359375,22.262187957763672,40.570043359375,22.933437957763672,40.579343359375,23.777187957763672L40.630943359374996,28.665317957763673C40.642143359375,29.704067957763673,41.476543359375,30.581567957763674,42.487143359375,30.581567957763674ZM37.900043359375,31.214377957763674L29.462503359375,31.214377957763674C28.430313359375,31.214377957763674,27.391563359375,32.14437795776367,27.145003359375,33.31998795776367L25.689998759375,40.26968795776367C25.374061359375,41.77528795776367,26.111873359375,43.05778795776367,27.342813359375,43.05778795776367L37.412543359375,43.05778795776367C38.642543359375,43.05778795776367,39.663443359375,41.77718795776367,39.680343359375,40.26968795776367L39.753443359375,33.31998795776367C39.765643359375,32.14437795776367,38.932143359375004,31.214377957763674,37.900043359375,31.214377957763674ZM53.201843359375005,33.31998795776367C52.956243359375,32.14437795776367,51.925043359374996,31.214377957763674,50.900343359375,31.214377957763674L42.522843359375,31.214377957763674C41.498143359375,31.214377957763674,40.670343359374996,32.14437795776367,40.683443359375,33.31998795776367L40.756543359375,40.26968795776367C40.773443359375,41.77528795776367,41.785943359375,43.05778795776367,43.007543359375,43.05778795776367L53.005943359374996,43.05778795776367C54.228443359375,43.05778795776367,54.961543359375,41.77718795776367,54.647543359375,40.26968795776367L53.201843359375005,33.31998795776367ZM45.205043359375,49.57158795776367L41.698743359375,49.57158795776367L41.698743359375,48.20848795776367C41.698743359375,47.45558795776367,41.088443359375,46.845287957763674,40.335643359375,46.845287957763674C39.582743359375,46.845287957763674,38.972543359375,47.45558795776367,38.972543359375,48.20848795776367L38.972543359375,49.57158795776367L35.464373359375,49.57158795776367C34.766873359375,49.57158795776367,34.200623359375,50.13588795776367,34.200623359375,50.83438795776367L34.200623359375,51.034987957763676C34.200623359375,51.732487957763674,34.765933359375,52.29878795776367,35.464373359375,52.29878795776367L45.205043359375,52.29878795776367C45.903443359375004,52.29878795776367,46.469643359375,51.732487957763674,46.469643359375,51.034987957763676L46.469643359375,50.83438795776367C46.469643359375,50.136887957763676,45.903443359375004,49.57158795776367,45.205943359375,49.57158795776367L45.205043359375,49.57158795776367Z" fill="#FFFFFF" fill-opacity="1"/></g><g><path d="M58.1843,41.1194L53.6215,21.41313C53.3121,20.06125,51.9827,19,50.651399999999995,19L29.68516,19C28.35391,19,27.02453,20.06125,26.71516,21.41219L22.152361,41.1194C21.566423,43.6816,22.725172,45.4019,24.69016,45.4019L55.6464,45.4019C57.6115,45.4019,58.7702,43.682500000000005,58.1843,41.1194ZM56.209,43.0975C55.9558,43.4097,55.5808,43.5663,55.0933,43.5663L25.24516,43.5663C24.7586,43.5663,24.38266,43.4097,24.12954,43.0975C23.74048,42.6203,23.64579,41.799099999999996,23.86798,40.8475L28.2686,22.27188C28.45141,21.49187,29.271729999999998,20.83375,30.06204,20.83375L50.276399999999995,20.83375C51.065799999999996,20.83375,51.887100000000004,21.49281,52.069900000000004,22.27563L56.4696,40.8447C56.6918,41.799099999999996,56.5961,42.6203,56.2071,43.0975L56.209,43.0975Z" fill="#FFFFFF" fill-opacity="1"/></g></g><g><g><ellipse cx="22.00006103515625" cy="13" rx="5" ry="5" fill="#FFFFFF" fill-opacity="1"/></g><g><path d="M27.26196103515625,8.25173C27.41676103515625,8.27929,27.575561035156248,8.23152,27.68896103515625,8.12321L28.39816103515625,7.444459999999999C28.575461035156252,7.25422,28.572461035156252,6.95931,28.39146103515625,6.7726299999999995C28.21026103515625,6.58595,27.91376103515625,6.57227,27.715661035156252,6.74108L27.00666103515625,7.41906C26.87396103515625,7.546670000000001,26.82446103515625,7.73764,26.87826103515625,7.91312C26.93196103515625,8.0886,27.08006103515625,8.219149999999999,27.26196103515625,8.25173ZM29.45696103515625,12.73138C29.50786103515625,12.74021,29.55976103515625,12.74139,29.61096103515625,12.73446L30.58566103515625,12.59978C30.85026103515625,12.55746,31.03236103515625,12.31231,30.99526103515625,12.04871C30.95816103515625,11.78518,30.71586103515625,11.599599999999999,30.44966103515625,11.63087L29.47476103515625,11.76631C29.23526103515625,11.80006,29.05596103515625,12.00103,29.05156103515625,12.24115C29.04706103515625,12.48126,29.21886103515625,12.68891,29.45696103515625,12.73138ZM29.76656103515625,17.1848L28.89816103515625,16.7254C28.65836103515625,16.5985,28.36026103515625,16.689,28.23256103515625,16.927C28.104661035156248,17.165100000000002,28.19566103515625,17.461100000000002,28.435361035156248,17.588L29.30366103515625,18.0474C29.54406103515625,18.173000000000002,29.84096103515625,18.0831,29.97046103515625,17.846600000000002C30.09706103515625,17.608,30.00606103515625,17.311999999999998,29.76656103515625,17.1848ZM14.56869103515625,9.139800000000001L13.69943203515625,8.68038C13.46220203515625,8.57142,13.18064103515625,8.66521,13.05785483515625,8.89431C12.93506733515625,9.12341,13.01393993515625,9.40779,13.23748103515625,9.54228L14.10577103515625,10.00248C14.34611103515625,10.12733,14.64307103515625,10.03726,14.77254103515625,9.80085C14.89869103515625,9.56246,14.80772103515625,9.26784,14.56869103515625,9.139800000000001L14.56869103515625,9.139800000000001ZM25.49466103515625,20.4C25.36976103515625,20.1687,25.08316103515625,20.0768,24.84536103515625,20.1914C24.60756103515625,20.3062,24.50326103515625,20.5866,24.609161035156248,20.8271L25.03936103515625,21.7067C25.151461035156252,21.9613,25.45426103515625,22.0721,25.70586103515625,21.9507C25.95756103515625,21.8294,26.057061035156252,21.5245,25.924861035156248,21.2796L25.49466103515625,20.4ZM17.50704103515625,6.32859C17.62095103515625,6.58032,17.92194103515625,6.68867,18.17187103515625,6.56792C18.42181103515625,6.44719,18.52157103515625,6.14506,18.39239103515625,5.90071L17.96241103515625,5.0218799999999995C17.83868103515625,4.787878,17.55011103515625,4.693852,17.31076103515625,4.809481C17.07139103515625,4.925109,16.96779103515625,5.20868,17.076871035156252,5.4497599999999995L17.50704103515625,6.32859ZM22.83457103515625,5.90764C23.10256103515625,5.95549,23.35836103515625,5.77754,23.40526103515625,5.5113199999999996L23.57656103515625,4.549368C23.60956103515625,4.291182,23.43276103515625,4.053128,23.174661035156248,4.00759687C22.91656103515625,3.962065,22.667901035156248,4.125643,22.609241035156252,4.379295L22.43661103515625,5.34124C22.388441035156248,5.6072299999999995,22.56726103515625,5.86114,22.83536103515625,5.90764L22.83457103515625,5.90764Z" fill="#FFFFFF" fill-opacity="1"/></g><g transform="matrix(-0.27563783526420593,0.9612631797790527,-0.9612631797790527,-0.27563783526420593,44.66171495550043,-0.696030848484952)"><path d="M27.57921861328125,17.5909021875C27.58011861328125,17.5908821875,27.581018613281252,17.5908621875,27.58191861328125,17.5908421875C27.61886861328125,17.5899221875,27.65457861328125,17.5839821875,27.69118861328125,17.578922187499998L27.93074861328125,17.5458221875C28.38417861328125,17.4831621875,29.07801861328125,17.3629191875,29.02158861328125,16.9086681875C29.02125861328125,16.9060361875,29.02090861328125,16.9034021875,29.02053861328125,16.9007661875C29.02016861328125,16.8981301875,29.01977861328125,16.8955031875,29.01936861328125,16.8928831875C28.94826861328125,16.4402689875,28.24795861328125,16.5144535875,27.79414861328125,16.5775000875L27.56382861328125,16.6094981875C27.52126861328125,16.6154111875,27.47961861328125,16.6197821875,27.43816861328125,16.6310981875C27.23029861328125,16.6878431875,27.08084861328125,16.8742501875,27.076798613281248,17.0932021875C27.07295861328125,17.3009001875,27.20094861328125,17.4843021875,27.389678613281248,17.5575321875C27.45099861328125,17.5813221875,27.51345861328125,17.5921621875,27.57921861328125,17.5909021875M27.73486861328125,22.0067021875L26.92337861328125,21.577412187500002C26.68360861328125,21.450542187499998,26.38557861328125,21.5410021875,26.25778861328125,21.7790721875C26.12992861328125,22.0171321875,26.22088861328125,22.3132021875,26.46065861328125,22.4400721875L27.181628613281248,22.8215421875C27.27984861328125,22.8735121875,27.37864861328125,22.935332187500002,27.48863861328125,22.9511621875C27.53853861328125,22.9583521875,27.58877861328125,22.9577921875,27.63765861328125,22.9500321875C27.93023861328125,22.9035721875,28.13278861328125,22.522612187500002,28.003508613281248,22.2560721875C27.96828861328125,22.1834421875,27.91488861328125,22.118902187499998,27.84560861328125,22.0699321875C27.81051861328125,22.045132187500002,27.77284861328125,22.0267921875,27.73486861328125,22.0067021875M23.09959461328125,24.9944021875C23.02276961328125,24.9922521875,22.94436361328125,25.0079421875,22.870649613281252,25.0434921875C22.79690961328125,25.0790521875,22.73600761328125,25.1305521875,22.69022621328125,25.1918421875C22.49546051328125,25.4526021875,22.70596261328125,25.8254221875,22.84895161328125,26.1177921875C22.99272061328125,26.411762187500003,23.13352061328125,26.8104921875,23.45852261328125,26.8486921875C23.54876561328125,26.8592921875,23.64310861328125,26.8451921875,23.73116861328125,26.8027921875C23.81924861328125,26.7602921875,23.88868861328125,26.6952921875,23.93607861328125,26.6182921875C24.10677861328125,26.3409821875,23.87857861328125,25.9853521875,23.73550861328125,25.6928021875C23.59182661328125,25.3990121875,23.42650061328125,25.003572187499998,23.09959461328125,24.9944021875" fill="#FFFFFF" fill-opacity="1"/></g></g></g></svg>