<svg t="1700114401654" class="icon" viewBox="0 0 1024 1024" version="1.1" xmlns="http://www.w3.org/2000/svg" p-id="1539"
  width="200" height="200">
  <path
    d="M910.805333 441.941333c-8.106667-8.106667-18.858667-8.106667-26.965333 0s-8.106667 18.858667 0 26.965334c43.093333 43.093333 67.370667 94.293333 67.370667 145.493333 0 132.053333-148.224 247.893333-353.024 272.170667-10.752 0-18.858667 10.794667-16.170667 21.546666 0 10.794667 8.106667 16.213333 18.901333 16.213334h2.688c223.658667-26.965333 388.010667-159.018667 388.010667-309.930667-2.688-61.994667-29.610667-121.258667-80.810667-172.458667z m-398.848 468.906667v-8.106667q0-2.688-2.688-2.688v-2.688l-45.824-59.306666c-5.376-8.106667-18.858667-10.752-26.922666-2.688-8.106667 5.376-10.794667 18.858667-2.688 26.965333l21.546666 26.922667c-8.106667 0-16.170667-2.688-24.234666-2.688-210.218667-24.234667-358.4-140.117333-358.4-272.170667 0-48.512 18.858667-94.293333 56.576-134.741333 5.376-8.106667 5.376-21.546667-2.688-26.922667-8.106667-8.106667-18.858667-5.418667-26.965334 2.688C56.576 503.893333 34.986667 557.824 34.986667 614.4c0 150.912 161.706667 282.965333 388.053333 309.888 10.794667 0 21.546667 2.688 32.341333 2.688l-24.234666 32.341333a20.736 20.736 0 0 0 13.44 32.341334c5.418667 0 10.794667-2.688 16.213333-8.106667l45.781333-59.264v-8.064c2.688-2.688 5.376-2.688 5.376-5.418667z"
    p-id="1540"></path>
  <path
    d="M865.28 579.285333c0 27.349333-14.336 52.309333-37.12 64.554667q-182.784 97.877333-262.442667 140.330667c-16.768 8.917333-36.437333-4.138667-36.437333-24.32V389.845333c0-15.274667 8.917333-28.842667 22.272-33.962666l291.157333-111.616c10.88-4.224 22.442667 4.48 22.442667 16.981333q0.128 79.530667 0.128 318.08z m-380.8-189.653333v368.384c0 20.437333-20.352 33.493333-37.12 23.808l-263.424-151.808c-21.845333-12.629333-35.413333-37.034667-35.413333-63.573333q0.042667-228.565333 0.170666-306.474667c0-12.458667 11.562667-21.162667 22.485334-16.896l291.114666 112.64c13.312 5.12 22.186667 18.688 22.186667 33.92z m349.269333-193.066667L529.664 313.173333c-14.72 5.632-30.72 5.632-45.44-0.085333l-302.506667-117.034667c-6.528-2.56-7.509333-12.074667-1.664-16.085333 3.797333-2.474667 7.765333-4.650667 12.074667-6.4l291.242667-117.162667a62.890667 62.890667 0 0 1 47.061333 0l291.114667 116.48c5.034667 2.048 9.728 4.693333 14.08 7.765334 5.674667 4.138667 4.522667 13.44-1.877334 15.914666z"
    p-id="1541"></path>
</svg>