<svg xmlns="http://www.w3.org/2000/svg" xmlns:xlink="http://www.w3.org/1999/xlink" fill="none" version="1.1" width="24"
  height="24" viewBox="0 0 24 24">
  <defs>
    <clipPath id="master_svg0_159_3003">
      <rect x="0" y="0" width="24" height="24" rx="0" />
    </clipPath>
  </defs>
  <g clip-path="url(#master_svg0_159_3003)">
    <g>
      <path
        d="M10.1929495703125,22.5520375C10.134699570312499,22.5520375,10.0908295703125,22.5365375,10.061719570312501,22.5081375C9.8574695703125,22.4489375,9.784659570312499,22.3332375,9.8429095703125,22.1581375L11.1994095703125,14.1509375L5.2923335703125,14.1509375C5.1465355703125,14.1509375,5.0444135703125,14.0925375,4.9859647703125,13.9758375C4.8985919703125,13.8601375,4.9131501703125,13.7288375,5.0298305703125,13.5821375L14.1309895703125,1.6806115C14.2476695703125,1.5055066,14.3789095703125,1.4773017,14.5247295703125,1.5930472C14.6705295703125,1.6221635,14.7435295703125,1.7397795,14.7435295703125,1.9430895000000001L13.3870395703125,9.9504175L18.5940095703125,9.9504175C18.739809570312502,9.9504175,18.841909570312502,10.0096075,18.900409570312497,10.1253575C18.9295095703125,10.2420375,18.9295095703125,10.3732775,18.900409570312497,10.5192675L10.499319570312501,22.4207375C10.411759570312501,22.5081375,10.3096395703125,22.5520375,10.1929495703125,22.5520375Z"
        fill="#FFFFFF" fill-opacity="1" />
    </g>
  </g>
</svg>