<svg xmlns="http://www.w3.org/2000/svg" xmlns:xlink="http://www.w3.org/1999/xlink" fill="none" version="1.1" width="50" height="50" viewBox="0 0 50 50"><g><g><path d="M34.12000810546875,8.139892578125L15.11997810546875,8.139892578125C13.34663810546875,8.139892578125,11.95330810546875,9.533222578125,11.95330810546875,11.306562578125L11.95330810546875,40.693192578125C11.95330810546875,42.466592578125,13.34663810546875,43.986592578125,15.246638105468751,43.986592578125L23.22660810546875,43.986592578125L27.53330810546875,43.986592578125L34.12000810546875,43.986592578125C35.89330810546875,43.986592578125,37.41330810546875,42.593192578125,37.41330810546875,40.693192578125L37.41330810546875,11.306562578125C37.41330810546875,9.533222578125,36.02000810546875,8.139892578125,34.12000810546875,8.139892578125ZM21.57997810546875,10.419892578125L27.91330810546875,10.419892578125C28.16660810546875,10.419892578125,28.42000810546875,10.673222578125,28.42000810546875,10.926562578125C28.42000810546875,11.179892578125,28.16660810546875,11.433222578125001,27.91330810546875,11.433222578125001L21.57996810546875,11.433222578125001C21.32663810546875,11.433222578125001,21.073308105468747,11.179892578125,21.073308105468747,10.926562578125C21.073308105468747,10.673222578125,21.19997810546875,10.419892578125,21.57997810546875,10.419892578125ZM24.62000810546875,41.453192578125C23.35330810546875,41.453192578125,22.340008105468748,40.439892578125,22.340008105468748,39.173192578125C22.340008105468748,37.906592578125,23.35330810546875,36.893192578124996,24.62000810546875,36.893192578124996C25.88660810546875,36.893192578124996,26.90000810546875,37.906592578125,26.90000810546875,39.173192578125C26.90000810546875,40.439892578125,25.88660810546875,41.453192578125,24.62000810546875,41.453192578125Z" fill="#FFFFFF" fill-opacity="1"/></g></g></svg>