<svg xmlns="http://www.w3.org/2000/svg" xmlns:xlink="http://www.w3.org/1999/xlink" fill="none" version="1.1" width="64" height="64" viewBox="-0.416015625 0 64 64"><defs><clipPath id="master_svg0_360_2405"><rect x="0" y="0" width="62.38064956665039" height="62.499942779541016" rx="0"/></clipPath></defs><g clip-path="url(#master_svg0_360_2405)"><g><g><g><path d="M15.060775427154065,43.712599880790705C15.837764427154063,46.906799880790714,18.733834427154065,49.10729988079071,21.983074427154065,49.10729988079071L41.054684427154065,49.10729988079071C43.52698442715406,49.10729988079071,45.57538442715406,47.97159988079071,46.988084427154064,45.98409988079071C47.83578442715407,44.77729988079071,48.118284427154066,43.499699880790715,48.25958442715407,42.64789988079071C48.68338442715407,40.16349988079071,48.542084427154066,37.67909988079071,47.906384427154066,35.336599880790715C46.493684427154065,30.43879988079071,44.37458442715406,27.45749988079071,40.418984427154065,25.25699988079071C40.277684427154064,25.18609988079071,40.065784427154064,25.11509988079071,39.853884427154064,24.97310988079071C40.34838442715406,24.33425988079071,40.70158442715406,23.62442988079071,40.98408442715406,22.98557988079071C41.19598442715406,22.55968988079071,41.266584427154065,22.275749880790713,41.33728442715406,21.99181988079071L41.47858442715406,21.70788988079071L41.47858442715406,21.56591988079071C41.69048442715406,20.35920988079071,41.76108442715406,18.58463988079071,40.065784427154064,17.16497988079071C38.65308442715406,15.958269880790711,37.02848442715407,15.674337880790711,35.26258442715407,16.17121988079071C33.072884427154065,14.60959388079071,30.035584427154063,14.60959388079071,27.845884427154065,16.17121988079071C26.998184427154065,15.95827088079071,26.150584427154065,15.95827088079071,25.302984427154065,16.10023988079071C22.830704427154064,16.59711988079071,21.276724427154065,18.65561988079071,21.559264427154062,20.99805988079071C21.771174427154065,22.488699880790712,22.336254427154064,23.83737988079071,23.183884427154062,24.97310988079071C18.310014427154066,27.81239988079071,14.990139427154064,32.92319988079071,14.636961127154064,38.53089988079071C14.495689727154064,40.376399880790714,14.636961127154064,42.07999988079071,15.060775427154065,43.712599880790705ZM29.601584427154066,32.469699880790714L27.146784427154063,29.53989988079071C26.735884427154062,29.03549988079071,26.735884427154062,28.19479988079071,27.311184427154064,27.77439988079071C27.804184427154063,27.354099880790713,28.625984427154066,27.354099880790713,29.036884427154064,27.94259988079071L31.502284427154063,30.969099880790708L33.967584427154065,27.94259988079071C34.37848442715406,27.43809988079071,35.20028442715406,27.354099880790713,35.693384427154065,27.77439988079071C36.18648442715406,28.19479988079071,36.26858442715407,29.03549988079071,35.85768442715407,29.53989988079071L33.40298442715407,32.469699880790714L36.51518442715407,32.469699880790714C37.172584427154064,32.469699880790714,37.74778442715406,33.05199988079071,37.74778442715406,33.717599880790715C37.74778442715406,34.38309988079071,37.172584427154064,34.96539988079071,36.43298442715407,34.96539988079071L32.78408442715406,34.96539988079071L32.78408442715406,36.60179988079071L36.51518442715407,36.60179988079071C37.172584427154064,36.60179988079071,37.74778442715406,37.19029988079071,37.74778442715406,37.86289988079071C37.74778442715406,38.535399880790706,37.172584427154064,39.12389988079071,36.43298442715407,39.12389988079071L32.78408442715406,39.12389988079071L32.78408442715406,41.18489988079071C32.78408442715406,41.86079988079071,32.20498442715406,42.452199880790715,31.543184427154063,42.452199880790715C30.881284427154064,42.452199880790715,30.302284427154063,41.86079988079071,30.302284427154063,41.18489988079071L30.302284427154063,39.12389988079071L26.571584427154065,39.12389988079071C25.914084427154066,39.12389988079071,25.338884427154063,38.535399880790706,25.338884427154063,37.86289988079071C25.338884427154063,37.19029988079071,25.914084427154066,36.60179988079071,26.571584427154065,36.60179988079071L30.302284427154063,36.60179988079071L30.302284427154063,34.96539988079071L26.571584427154065,34.96539988079071C25.914084427154066,34.96539988079071,25.338884427154063,34.38309988079071,25.338884427154063,33.717599880790715C25.338884427154063,33.05199988079071,25.914084427154066,32.469699880790714,26.571584427154065,32.469699880790714L29.601584427154066,32.469699880790714Z" fill-rule="evenodd" fill="#FFFFFF" fill-opacity="1"/></g></g></g></g></svg>