<?xml version="1.0" encoding="UTF-8"?>
<svg width="21px" height="20px" viewBox="0 0 21 20" version="1.1" xmlns="http://www.w3.org/2000/svg" xmlns:xlink="http://www.w3.org/1999/xlink">
    <title>ic-gaojing01</title>
    <g id="页面-1" stroke="none" stroke-width="1" fill="none" fill-rule="evenodd">
        <g id="3D交互切图10.27" transform="translate(-956.000000, -799.000000)">
            <g id="编组-34" transform="translate(956.000000, 799.000000)">
                <g id="告警" fill="#FF6515" fill-rule="nonzero">
                    <path d="M7.73286467,2.08158699 C9.26112264,-0.693848887 11.7388957,-0.693875775 13.2671537,2.08158699 L20.3665249,14.9746394 C21.894756,17.7500753 20.5630283,20 17.3922174,20 L3.60780101,20 C0.436882409,20 -0.894737585,17.7500753 0.633493467,14.9746394 L7.73286467,2.08158699 Z M11.6485311,6.23335406 C11.6485311,5.59999812 11.1344459,5.0865324 10.5000092,5.0865324 C9.86570703,5.0865324 9.35148728,5.60034765 9.35148728,6.23335406 L9.35148728,11.9700436 C9.35148728,12.6034264 9.86557243,13.1168652 10.5000092,13.1168652 C11.1343113,13.1168652 11.6485311,12.6030769 11.6485311,11.9700436 L11.6485311,6.23338095 L11.6485311,6.23335406 Z M11.6485311,15.4112345 L9.35148728,15.4112345 L9.35148728,17.7056307 L11.6485311,17.7056307 L11.6485311,15.4112345 L11.6485311,15.4112345 Z" id="形状"></path>
                </g>
                <g id="#meaxure-overlay-BC66B573-1F93-45BB-8E8E-646AACC94E44"></g>
            </g>
        </g>
    </g>
</svg>