<svg xmlns="http://www.w3.org/2000/svg" xmlns:xlink="http://www.w3.org/1999/xlink" fill="none" version="1.1" width="100" height="100" viewBox="0 0 100 100"><g style="opacity:0.4000000059604645;"><g><path d="M75.67796633605957,81.3688953125C74.37806633605956,81.3706953125,73.13106633605958,80.8541953125,72.21306633605957,79.9337953125L11.84434633605957,19.5650353125C9.93077333605957,17.6514653125,9.93077333605957,14.548945312499999,11.84434633605957,12.635375312499999C13.75791633605957,10.7218023125,16.86063633605957,10.7218023125,18.77400633605957,12.635375312499999L79.14276633605957,73.0040953125C81.05626633605956,74.9176953125,81.05626633605956,78.0203953125,79.14276633605957,79.9337953125C78.22486633605958,80.8541953125,76.97786633605958,81.3706953125,75.67796633605957,81.3688953125Z" fill="#FFFFFF" fill-opacity="1"/></g><g><path d="M29.2102,63.72910133361816C26.9774,66.18600133361817,27.1661,69.98550133361817,29.6271,72.21770133361817C32.091899999999995,74.45430133361816,35.8914,74.26620133361817,38.1201,71.80120133361817C41.1901,68.41410133361816,45.4106,66.55070133361816,50.0039,66.55070133361816C52.4102,66.55210133361817,54.7852,67.09520133361816,56.953,68.13950133361817L43.9935,55.180001333618165C38.3387,56.41980133361817,33.1454,59.386101333618164,29.2102,63.72910133361816ZM16.071199999999997,48.45850133361816C13.7145,50.799001333618165,13.7066,54.60690133361817,16.0475,56.959301333618164C18.388,59.31200133361816,22.1959,59.32390133361817,24.5483,56.983501333618165C28.2855,53.268401333618165,32.702799999999996,50.47360133361816,37.5223,48.70880133361817L28.3862,39.572801333618166C23.8897,41.83230133361816,19.7355,44.81390133361816,16.071199999999997,48.45850133361816ZM75.4468,57.00740133361816C76.6169,58.173801333618165,78.1518,58.758801333618166,79.6873,58.758801333618166C81.2877,58.758101333618164,82.8221,58.12060133361816,83.9519,56.98720133361817C86.2922,54.63040133361817,86.2844,50.82290133361816,83.9276,48.482001333618165C74.8535,39.456301333618164,62.805,34.486101333618166,50.0035,34.486101333618166C48.1199,34.486101333618166,46.2538,34.59606133361817,44.4104,34.807351333618165L56.7395,47.13650133361816C63.7798,48.459101333618165,70.2606,51.84900133361816,75.4468,57.00740133361816ZM79.6875,58.758801333618166L79.6869,58.758801333618166L79.6875,58.758801333618166ZM11.1617,42.05360133361816C14.5607,38.788101333618165,18.3585,35.965101333618165,22.465,33.651531333618166L13.6951,24.881601333618164C9.79694,27.338911333618164,6.15774,30.184761333618162,2.8332100000000002,33.375561333618165C1.754618,34.40843133361817,1.100808,35.80700133361816,1,37.29700133361816L1,38.11590133361816C1.0923805,39.526301333618164,1.680728,40.85860133361817,2.66092,41.87700133361817C4.9612099999999995,44.27370133361816,8.76914,44.349701333618164,11.1617,42.05360133361816Z" fill="#FFFFFF" fill-opacity="1"/></g><g><path d="M50.00277712707519,14.44576644897461C42.320977127075196,14.44576644897461,34.818827127075195,15.713706448974609,27.746477127075195,18.14472644897461L37.471137127075195,27.86936644897461C41.58327712707519,26.93826644897461,45.786477127075194,26.46896644897461,50.00277712707519,26.47026644897461C64.5517771270752,26.47026644897461,78.33957712707519,32.00916644897461,88.8364771270752,42.069366448974606C89.9558771270752,43.14226644897461,91.4464771270752,43.74106644897461,92.9970771270752,43.74066644897461C94.6359771270752,43.741466448974606,96.2040771270752,43.07256644897461,97.3376771270752,41.88906644897461C98.3806771270752,40.80066644897461,98.9317771270752,39.42116644897461,98.9999771270752,38.02446644897461L98.9999771270752,37.432366448974605C98.9272771270752,35.95136644897461,98.3120771270752,34.494266448974614,97.1573771270752,33.387866448974606C84.4119771270752,21.17531644897461,67.6660771270752,14.44576644897461,50.00277712707519,14.44576644897461Z" fill="#FFFFFF" fill-opacity="1"/></g><g><path d="M57.26720139770508,82.58246370117187Q57.26720139770508,82.76075370117188,57.258501397705075,82.93883370117187Q57.24970139770508,83.11690370117188,57.23230139770508,83.29433370117188Q57.214801397705074,83.47176370117188,57.18860139770508,83.64812370117187Q57.16250139770508,83.82448370117187,57.12770139770508,83.99934370117188Q57.09290139770508,84.17420370117188,57.049601397705075,84.34715370117188Q57.00630139770508,84.52009370117187,56.95450139770508,84.69071370117187Q56.902801397705076,84.86132370117187,56.84270139770508,85.02918370117187Q56.78260139770508,85.19705370117188,56.714401397705075,85.36179370117188Q56.64620139770508,85.52649370117187,56.56990139770508,85.68769370117188Q56.49370139770508,85.84879370117187,56.40970139770508,86.00609370117188Q56.32560139770508,86.16329370117188,56.23400139770508,86.31619370117187Q56.142301397705076,86.46919370117187,56.04330139770508,86.61739370117188Q55.94420139770508,86.76559370117188,55.83800139770508,86.90879370117187Q55.73180139770508,87.05199370117188,55.61870139770508,87.18989370117188Q55.50560139770508,87.32769370117188,55.38590139770508,87.45979370117188Q55.26610139770508,87.59189370117187,55.14010139770508,87.71799370117188Q55.01400139770508,87.84399370117188,54.88190139770508,87.96379370117188Q54.74980139770508,88.08349370117188,54.61200139770508,88.19659370117188Q54.47410139770508,88.30969370117188,54.33090139770508,88.41589370117188Q54.18770139770508,88.52209370117187,54.03950139770508,88.62119370117188Q53.89130139770508,88.72019370117188,53.73830139770508,88.81189370117187Q53.58540139770508,88.90349370117187,53.42820139770508,88.98759370117187Q53.270901397705074,89.07159370117188,53.10980139770508,89.14779370117188Q52.948601397705076,89.22409370117188,52.78390139770508,89.29229370117187Q52.61916139770508,89.36049370117188,52.45129139770508,89.42059370117187Q52.28343139770508,89.48069370117187,52.112821397705076,89.53239370117187Q51.94220139770508,89.58419370117187,51.76926139770508,89.62749370117187Q51.59631139770508,89.67079370117187,51.42145139770508,89.70559370117188Q51.246591397705075,89.74039370117188,51.07023139770508,89.76649370117187Q50.89387139770508,89.79269370117187,50.716441397705076,89.81019370117187Q50.53901139770508,89.82759370117188,50.360941397705076,89.83639370117187Q50.182861397705075,89.84509370117188,50.00457139770508,89.84509370117188Q49.82628139770508,89.84509370117188,49.648211397705076,89.83639370117187Q49.47014139770508,89.82759370117188,49.29271139770508,89.81019370117187Q49.115281397705076,89.79269370117187,48.93892139770508,89.76649370117187Q48.76256139770508,89.74039370117188,48.587701397705075,89.70559370117188Q48.41283139770508,89.67079370117187,48.23989139770508,89.62749370117187Q48.06694139770508,89.58419370117187,47.896331397705076,89.53239370117187Q47.72572139770508,89.48069370117187,47.55785139770508,89.42059370117187Q47.38998139770508,89.36049370117188,47.22527139770508,89.29229370117187Q47.060551397705076,89.22409370117188,46.89938139770508,89.14779370117188Q46.73821139770508,89.07159370117188,46.58097139770508,88.98759370117187Q46.42374139770508,88.90349370117187,46.27081139770508,88.81189370117187Q46.11789139770508,88.72019370117188,45.96965139770508,88.62119370117188Q45.82141139770508,88.52209370117187,45.67820139770508,88.41589370117188Q45.53500139770508,88.30969370117188,45.397181397705076,88.19659370117188Q45.25936139770508,88.08349370117188,45.12726139770508,87.96379370117188Q44.995161397705076,87.84399370117188,44.86909139770508,87.71799370117188Q44.74302139770508,87.59189370117187,44.62329139770508,87.45979370117188Q44.50356139770508,87.32769370117188,44.39045139770508,87.18989370117188Q44.277351397705075,87.05199370117188,44.17114139770508,86.90879370117187Q44.06493139770508,86.76559370117188,43.965881397705076,86.61739370117188Q43.86683139770508,86.46919370117187,43.77517139770508,86.31619370117187Q43.68351339770508,86.16329370117188,43.59946839770508,86.00609370117188Q43.51542339770508,85.84879370117187,43.43919539770508,85.68769370117188Q43.36296739770508,85.52649370117187,43.29473939770508,85.36179370117188Q43.22651139770508,85.19705370117188,43.16644739770508,85.02918370117187Q43.10638439770508,84.86132370117187,43.05462939770508,84.69071370117187Q43.002875397705075,84.52009370117187,42.95955439770508,84.34715370117188Q42.916234397705075,84.17420370117188,42.88145139770508,83.99934370117188Q42.84666939770508,83.82448370117187,42.82050879770508,83.64812370117187Q42.79434849770508,83.47176370117188,42.77687319770508,83.29433370117188Q42.75939779770508,83.11690370117188,42.75064960770508,82.93883370117187Q42.74190139770508,82.76075370117188,42.74190139770508,82.58246370117187Q42.74190139770508,82.40417370117187,42.75064960770508,82.22610370117188Q42.75939779770508,82.04803370117187,42.77687319770508,81.87060370117187Q42.79434849770508,81.69317370117187,42.820508897705075,81.51681370117187Q42.84666939770508,81.34045370117188,42.88145139770508,81.16559370117187Q42.916234397705075,80.99072370117187,42.95955439770508,80.81778370117188Q43.002875397705075,80.64483370117188,43.05462939770508,80.47422370117188Q43.10638439770508,80.30361370117187,43.16644739770508,80.13574370117188Q43.22651139770508,79.96787370117187,43.29473939770508,79.80316370117187Q43.36296739770508,79.63844370117188,43.43919539770508,79.47727370117187Q43.51542339770508,79.31610370117187,43.59946839770508,79.15886370117188Q43.68351339770508,79.00163370117187,43.77517139770508,78.84870370117187Q43.86683139770508,78.69578370117188,43.965881397705076,78.54754370117188Q44.06493139770508,78.39930370117187,44.17114139770508,78.25609370117188Q44.277351397705075,78.11289370117187,44.39045139770508,77.97507370117188Q44.50356139770508,77.83725370117187,44.62329139770508,77.70515370117188Q44.74302139770508,77.57305370117187,44.86909139770508,77.44698370117187Q44.995161397705076,77.32091370117188,45.12726139770508,77.20118370117187Q45.25936139770508,77.08145370117188,45.397181397705076,76.96834370117188Q45.53500139770508,76.85524370117187,45.67820139770508,76.74903370117187Q45.82141139770508,76.64282370117188,45.96965139770508,76.54377370117187Q46.11789139770508,76.44472370117188,46.27081139770508,76.35306370117188Q46.42374139770508,76.26140570117188,46.58097139770508,76.17736070117188Q46.73821139770508,76.09331570117187,46.89938139770508,76.01708770117187Q47.060551397705076,75.94085970117187,47.22527139770508,75.87263170117187Q47.38998139770508,75.80440370117188,47.55785139770508,75.74433970117188Q47.72572139770508,75.68427670117188,47.896331397705076,75.63252170117188Q48.06694139770508,75.58076770117188,48.23989139770508,75.53744670117187Q48.41283139770508,75.49412670117188,48.587701397705075,75.45934370117187Q48.76256139770508,75.42456170117188,48.93892139770508,75.39840110117187Q49.115281397705076,75.37224080117187,49.29271139770508,75.35476550117187Q49.47014139770508,75.33729010117187,49.648211397705076,75.32854191117187Q49.82628139770508,75.31979370117188,50.00457139770508,75.31979370117188Q50.182861397705075,75.31979370117188,50.360941397705076,75.32854191117187Q50.53901139770508,75.33729010117187,50.716441397705076,75.35476550117187Q50.89387139770508,75.37224080117187,51.07023139770508,75.39840120117188Q51.246591397705075,75.42456170117188,51.42145139770508,75.45934370117187Q51.59631139770508,75.49412670117188,51.76926139770508,75.53744670117187Q51.94220139770508,75.58076770117188,52.112821397705076,75.63252170117188Q52.28343139770508,75.68427670117188,52.45129139770508,75.74433970117188Q52.61916139770508,75.80440370117188,52.78390139770508,75.87263170117187Q52.948601397705076,75.94085970117187,53.10980139770508,76.01708770117187Q53.270901397705074,76.09331570117187,53.42820139770508,76.17736070117188Q53.58540139770508,76.26140570117188,53.73830139770508,76.35306370117188Q53.89130139770508,76.44472370117188,54.03950139770508,76.54377370117187Q54.18770139770508,76.64282370117188,54.33090139770508,76.74903370117187Q54.47410139770508,76.85524370117187,54.61200139770508,76.96834370117188Q54.74980139770508,77.08145370117188,54.88190139770508,77.20118370117187Q55.01400139770508,77.32091370117188,55.14010139770508,77.44698370117187Q55.26610139770508,77.57305370117187,55.38590139770508,77.70515370117188Q55.50560139770508,77.83725370117187,55.61870139770508,77.97507370117188Q55.73180139770508,78.11289370117187,55.83800139770508,78.25609370117188Q55.94420139770508,78.39930370117187,56.04330139770508,78.54754370117188Q56.142301397705076,78.69578370117188,56.23400139770508,78.84870370117187Q56.32560139770508,79.00163370117187,56.40970139770508,79.15886370117188Q56.49370139770508,79.31610370117187,56.56990139770508,79.47727370117187Q56.64620139770508,79.63844370117188,56.714401397705075,79.80316370117187Q56.78260139770508,79.96787370117187,56.84270139770508,80.13574370117188Q56.902801397705076,80.30361370117187,56.95450139770508,80.47422370117188Q57.00630139770508,80.64483370117188,57.049601397705075,80.81778370117188Q57.09290139770508,80.99072370117187,57.12770139770508,81.16559370117187Q57.16250139770508,81.34045370117188,57.18860139770508,81.51681370117187Q57.214801397705074,81.69317370117187,57.23230139770508,81.87060370117187Q57.24970139770508,82.04803370117187,57.258501397705075,82.22610370117188Q57.26720139770508,82.40417370117187,57.26720139770508,82.58246370117187Z" fill="#FFFFFF" fill-opacity="1"/></g></g></svg>