<svg xmlns="http://www.w3.org/2000/svg" xmlns:xlink="http://www.w3.org/1999/xlink" fill="none" version="1.1" width="50" height="50" viewBox="0 0 50 50"><g><g><path d="M8.57143,25.5833L18.4286,25.5833L18.4286,28.8333L8.57143,28.8333L8.57143,25.5833ZM32.6667,25.5833L35.9524,25.5833L35.9524,22.3333L39.2381,22.3333L39.2381,25.5833L42.5238,25.5833L42.4532,28.8333L39.2381,28.8333L39.2381,32.0833L35.9524,32.0833L35.9524,28.8333L32.6667,28.8333L32.6667,25.5833ZM33.7619,5L32.6667,9.33333L17.3333,9.33333L16.2381,5L9.66667,5L8.57143,9.33333L3.6,9.33333C2.716344,9.33333,2,10.04968,2,10.93333L2,42.4C2,43.2837,2.716344,44,3.6,44L46.4,44C47.2837,44,48,43.2837,48,42.4L48,10.93333C48,10.04968,47.2837,9.33333,46.4,9.33333L41.4286,9.33333L40.3333,5L33.7619,5Z" fill="#FFFFFF" fill-opacity="1" style="mix-blend-mode:passthrough"/></g></g></svg>