<svg xmlns="http://www.w3.org/2000/svg" xmlns:xlink="http://www.w3.org/1999/xlink" fill="none" version="1.1" width="50" height="50" viewBox="0 0 50 50"><g><g><g><path d="M49.680590625,24.5867L42.604990625,18.273L42.604990625,8.84724C42.604990625,8.39528,41.990890625,8.03301,41.232390625,8.03301L38.485490625,8.03301C37.725190625,8.03301,37.111190625,8.395340000000001,37.111190625,8.84724L37.111190625,13.36814L33.050690625,9.74247L28.475890625,5.65835C28.191290625,5.35996,27.900590625,5.09986,27.603690625,4.878216C27.262190625,4.622427,26.910390625,4.422117,26.552590625,4.277119C26.111290625,4.0980834,25.659890625,4,25.200490625,4C24.740890625,4,24.291590625,4.0980279,23.850390625,4.277119C23.492590625,4.422117,23.140790625,4.622427,22.797190625,4.878216C22.500290625,5.09986,22.209490625,5.35996,21.926890625,5.65835L17.352090625,9.74247L8.765740625,17.4075L0.720223625,24.5867C0.337982925,24.9319,0.291209625,25.5331,0.618564625,25.9338L2.802290625,28.6238C3.129650625,29.0245,3.705020625,29.0758,4.0852506250000005,28.7304L8.765740625,24.5526L17.106090625,17.1049L25.200390625,9.87896L33.292690625,17.1049L41.634990625,24.5526L46.315490625,28.7304C46.697690625,29.0758,47.273090625,29.0245,47.598490625,28.6238L49.782190625,25.9338C50.109590625,25.5331,50.062790625,24.9319,49.680590625,24.5867Z" fill="#FFFFFF" fill-opacity="1" style="mix-blend-mode:passthrough"/></g><g><path d="M40.70035703735351,45.600000610351564L28.636757037353515,45.59990061035156L21.764057037353517,45.600000610351564L9.700387037353515,45.600000610351564C9.183724037353516,45.600000610351564,8.667057037353516,45.08000061035156,8.667057037353516,44.560000610351565L8.667057037353516,27.596000610351563L17.057477037353515,20.370500610351563L25.200357037353516,13.360000610351562L33.34335703735351,20.370500610351563L41.73375703735351,27.596000610351563L41.73375703735351,44.560000610351565C41.73375703735351,45.08000061035156,41.21705703735351,45.600000610351564,40.70035703735351,45.600000610351564ZM31.600657037353514,30.50670061035156C31.600657037353514,26.913200610351563,28.914357037353515,24.000000610351563,25.600657037353514,24.000000610351563C22.286957037353517,24.000000610351563,19.600657037353514,26.913200610351563,19.600657037353514,30.50670061035156C19.600657037353514,32.76450061035156,20.660957037353516,34.75360061035156,22.271057037353515,35.92050061035157C22.279557037353516,35.92670061035156,22.312757037353514,36.08290061035156,22.370657037353517,36.389200610351566L22.418757037353515,36.64700061035156C22.516257037353515,37.176000610351565,22.944557037353515,37.55680061035156,23.442057037353514,37.55680061035156L27.751157037353515,37.55680061035156C28.235057037353517,37.54880061035156,28.651457037353516,37.18050061035156,28.754857037353517,36.66630061035156C28.798457037353515,36.449300610351564,28.833457037353515,36.27390061035156,28.859957037353517,36.139800610351564L28.898457037353516,35.94340061035156C30.526357037353517,34.77970061035156,31.600657037353514,32.77930061035156,31.600657037353514,30.50670061035156ZM21.768657037353513,30.244100610351563C21.873157037353515,28.192100610351563,22.744657037353516,26.891100610351565,24.509057037353514,26.534000610351562C24.792357037353515,26.47660061035156,25.064757037353516,26.679200610351565,25.117657037353517,26.986300610351563C25.170557037353515,27.293500610351565,24.983757037353516,27.58900061035156,24.700557037353516,27.646400610351563C23.452457037353515,27.899000610351564,22.890457037353514,28.738000610351563,22.810557037353515,30.306500610351563C22.794657037353517,30.618500610351564,22.54855703735352,30.85740061035156,22.260857037353517,30.840200610351562C21.973157037353516,30.823000610351563,21.752757037353515,30.556100610351564,21.768657037353513,30.244100610351563ZM28.122557037353516,38.637900610351565C28.122557037353516,38.325400610351565,27.888957037353517,38.07210061035156,27.600857037353517,38.07210061035156L23.600457037353515,38.07210061035156L23.588157037353515,38.07220061035156C23.305657037353516,38.07930061035157,23.078757037353515,38.32990061035156,23.078757037353515,38.637900610351565C23.078757037353515,38.950400610351565,23.312357037353514,39.20370061035156,23.600457037353515,39.20370061035156L27.600857037353517,39.20370061035156L27.613157037353517,39.20350061035156C27.895657037353516,39.19640061035156,28.122557037353516,38.94590061035156,28.122557037353516,38.637900610351565ZM27.420257037353515,40.234200610351564C27.420257037353515,39.921700610351564,27.186657037353516,39.66840061035156,26.898457037353516,39.66840061035156L24.329957037353516,39.66840061035156L24.317657037353516,39.66860061035156C24.035157037353514,39.67570061035156,23.808157037353517,39.92620061035156,23.808157037353517,40.234200610351564C23.808157037353517,40.546700610351564,24.041757037353516,40.80000061035156,24.329957037353516,40.80000061035156L26.898457037353516,40.80000061035156L26.910857037353516,40.799900610351564C27.193257037353515,40.79280061035156,27.420257037353515,40.542200610351564,27.420257037353515,40.234200610351564Z" fill-rule="evenodd" fill="#FFFFFF" fill-opacity="1" style="mix-blend-mode:passthrough"/></g></g></g></svg>