<svg xmlns="http://www.w3.org/2000/svg" xmlns:xlink="http://www.w3.org/1999/xlink" fill="none" version="1.1" width="60.93780517578125" height="60.88056564331055" viewBox="0 0 60.93780517578125 60.88056564331055"><defs><clipPath id="master_svg0_9503_62026"><rect x="0" y="0" width="60.93780517578125" height="60.88056564331055" rx="0"/></clipPath><linearGradient x1="1.1102230246251565e-16" y1="1.1102230246251565e-16" x2="1" y2="1" id="master_svg1_9503_62127"><stop offset="0%" stop-color="#1761FF" stop-opacity="1"/><stop offset="100%" stop-color="#008DFC" stop-opacity="1"/></linearGradient><filter id="master_svg2_9503_62037" filterUnits="objectBoundingBox" color-interpolation-filters="sRGB" x="-1.213767900980802" y="-1.0339932275892414" width="3.427535801961604" height="3.5849830223362953"><feFlood flood-opacity="0" result="BackgroundImageFix"/><feColorMatrix in="SourceAlpha" type="matrix" values="0 0 0 0 0 0 0 0 0 0 0 0 0 0 0 0 0 0 127 0"/><feOffset dy="7.929032325744629" dx="0"/><feGaussianBlur stdDeviation="9.911291122436523"/><feColorMatrix type="matrix" values="0 0 0 0 0 0 0 0 0 0 0 0 0 0 0 0 0 0 0.30000001192092896 0"/><feBlend mode="normal" in2="BackgroundImageFix" result="effect1_dropShadow"/><feBlend mode="normal" in="SourceGraphic" in2="effect1_dropShadow" result="shape"/></filter><linearGradient x1="1.1102230246251565e-16" y1="1.1102230246251565e-16" x2="1.06041885082447" y2="0.9311968147610463" id="master_svg3_9503_62128"><stop offset="0%" stop-color="#F2F7FE" stop-opacity="1"/><stop offset="100%" stop-color="#7DBAFD" stop-opacity="1"/></linearGradient></defs><g clip-path="url(#master_svg0_9503_62026)"><g><g><rect x="0" y="0" width="61" height="61" rx="13.527517318725586" fill="url(#master_svg1_9503_62127)" fill-opacity="1" style="mix-blend-mode:passthrough"/></g><g filter="url(#master_svg2_9503_62037)"><g><path d="M28.686909375,30.63440234375Q32.451109375,30.63440234375,36.215309375000004,26.45021234375C36.224209375,26.44034234375,36.233009375,26.43099234375,36.242409375,26.42157234375C36.560209375,26.101422343750002,37.080009375,26.10844234375,37.389009375,26.43706234375L40.396009375,29.63470234375C42.348709375,31.71120234375,45.857809375,31.82460234375,46.934309375,29.18530234375C47.264009375,28.37680234375,47.489109375,27.498682343749998,47.532709374999996,26.56647234375C47.543209375,26.34350234375,47.553409375,26.12635234375,47.561509375,25.90328234375C47.635009374999996,23.87435234375,46.693609375,22.018762343749998,45.057709375,20.33650234375C44.993909375,20.27095234375,44.928409375,20.20369234375,44.864409375,20.13839234375C39.752009375,14.92180234375,34.489309375000005,19.43961234375,33.896609375,19.99016234375C33.861809375,20.02251234375,33.830309375,20.05473234375,33.797209375,20.08883234375L27.840609375,26.226222343750003C26.326909375,27.78580234375,26.472009375,30.61540234375,28.645309375,30.634202343749998C28.659109375,30.63430234375,28.673009375,30.63440234375,28.686909375,30.63440234375ZM24.717749375,34.03340234375C24.916209375,33.833402343749995,24.916209375,33.633502343749996,24.916209375,33.43350234375C24.916209375,33.03370234375,24.717749375,32.83370234375,24.519289375,32.63380234375C24.122369374999998,32.23390234375,23.725459375,32.23390234375,23.328539375,32.23390234375C23.308689375,32.23390234375,23.286859375,32.23590234375,23.263449375,32.23970234375C22.714359375,32.32880234375,22.361349375,32.85210234375,22.015429375,33.28770234375L19.701539375,36.20170234375C19.473529375,36.488802343749995,19.225879374999998,36.78090234375,19.132429375,37.13540234375C19.026419375,37.537602343749995,19.085449375,37.955402343749995,19.353719375,38.25520234375C19.473219375,38.38880234375,19.614599375,38.50580234375,19.768729375,38.59730234375C20.116179375,38.80340234375,20.542339375,38.77280234375,20.866439375,38.50560234375C20.919949375,38.461402343749995,20.947039375,38.391902343750004,20.947039375,38.32250234375C20.947039375,38.263902343750004,20.967119375,38.20680234375,21.004029375000002,38.160302343750004L23.731809375,34.725102343749995C23.978559375,34.41440234375,24.429459375,34.31810234375,24.711799375,34.039302343749995C24.713779375,34.03730234375,24.715769375,34.03540234375,24.717749375,34.03340234375ZM27.569609375,36.51110234375C27.626109375,36.336702343750005,27.694609375,36.150202343749996,27.694609375,36.03270234375C27.694609375,35.632902343750004,27.496209375,35.43290234375,27.297709375,35.23300234375C26.900809375,34.83310234375,26.702309375,34.83310234375,26.305409375,34.83310234375C26.133709375000002,34.83310234375,25.962109375,34.83310234375,25.790409375,34.96250234375C25.735029375,35.00430234375,25.710039375,35.07320234375,25.710039375,35.142502343749996C25.710039375,35.20120234375,25.689959375,35.25830234375,25.653049375000002,35.30480234375L22.743929375,38.96830234375C22.608449375,39.138902343750004,22.500129375,39.37430234375,22.316439375,39.491402343749996C22.315989375,39.49170234375,22.315549375,39.49200234375,22.315099375,39.49230234375C22.189289375,39.57260234375,22.109849375,39.70550234375,22.074789375,39.85060234375C21.984939375,40.22250234375,21.990939375,40.58490234375,22.188799375000002,40.88960234375C22.365829375,41.16210234375,22.665499375,41.37000234375,22.987949375,41.410302343750004C23.153899375,41.43110234375,23.340449375,41.43110234375,23.526999375,41.43110234375C23.528979375,41.43110234375,23.530969374999998,41.43110234375,23.532949375,41.431002343749995C23.929659375,41.42310234375,24.266189375,41.050002343749995,24.512939375000002,40.73930234375L27.225909375,37.32280234375C27.272409375000002,37.26420234375,27.296309375,37.19380234375,27.299109375,37.11910234375C27.299409375,37.11160234375,27.299709375,37.10420234375,27.300109374999998,37.09690234375C27.310209375,36.914302343749995,27.513309375,36.68500234375,27.569609375,36.51110234375ZM30.314109375,38.34800234375C30.299509375,38.311602343749996,30.282609375,38.27580234375,30.263509374999998,38.24070234375C30.083809375,37.91140234375,29.722209375,37.65050234375,29.347409374999998,37.63540234375C29.269909374999997,37.63230234375,29.183109375,37.63230234375,29.083809375,37.63230234375L28.885409375000002,37.63230234375C28.883409375,37.63230234375,28.881409375,37.63230234375,28.879409375,37.63230234375C28.482709375,37.640202343750005,28.146209374999998,38.01330234375,27.899409374999998,38.324002343749996L25.289849375,41.61030234375C25.173149375,41.75730234375,25.048419375,41.89770234375,24.916209375,42.03090234375C24.717749375,42.23080234375,24.717749375,42.63070234375,24.717749375,42.83060234375C24.717749375,43.230502343750004,24.916209375,43.43050234375,25.114669375,43.63040234375C25.259539375,43.77640234375,25.510179375,43.922302343750005,25.789409374999998,43.91270234375C26.003009374999998,43.90540234375,26.223609375000002,43.83120234375,26.419409375,43.74520234375C26.551309375000002,43.687302343750005,26.690909375,43.60540234375,26.802209375,43.51760234375C26.868609375,43.46520234375,26.885809375,43.37380234375,26.932109375,43.30310234375Q26.942409375,43.28740234375,26.956009375,43.275202343749996C27.026509375,43.21160234375,27.134409375,43.18850234375,27.195309375,43.11560234375L29.579309375,40.26340234375C30.038709375,39.71390234375,30.581209375,39.012602343750004,30.314109375,38.34800234375ZM33.648409375,41.031202343749996C33.648409375,40.63130234375,33.449909375000004,40.43140234375,33.251509375,40.23150234375C33.053009375,40.03150234375,32.656109375,40.03150234375,32.457609375000004,40.03150234375C32.120209375,40.03150234375,31.926309375,40.17600234375,31.753809375,40.34210234375C31.693909375,40.39970234375,31.678109375,40.48680234375,31.633609375,40.55690234375Q31.623009375000002,40.57370234375,31.608609375,40.586702343750005C31.537309375,40.65100234375,31.430509375,40.67520234375,31.370809375,40.75040234375L28.347009375,44.55830234375C28.310109375,44.604802343749995,28.290009375,44.66320234375,28.290009375,44.72250234375Q28.290009375,44.72320234375,28.290009375,44.72390234375C28.290009375,44.79330234375,28.261309375,44.85530234375,28.220009375,44.91100234375C28.091509375,45.08400234375,28.091509375,45.25690234375,28.091509375,45.42990234375C28.091509375,45.43390234375,28.091609375,45.43780234375,28.091609375,45.44180234375C28.097509375,46.03550234375,28.750109375,46.50200234375,29.343809375,46.50820234375C29.527109375000002,46.51010234375,29.705209375000003,46.473802343749995,29.865209375,46.39470234375C30.191509375000003,46.233502343750004,30.387909375,45.886902343749995,30.614309374999998,45.60190234375L32.816109374999996,42.82910234375C33.226509375,42.31220234375,33.641809375,41.703102343750004,33.648309375,41.04310234375C33.648409375,41.03920234375,33.648409375,41.03520234375,33.648409375,41.031202343749996ZM32.659909375,45.04750234375C32.206209375,45.606102343749995,32.246609375,46.416902343749996,32.753609374999996,46.92770234375L32.854509375,47.02940234375C33.053009375,47.22930234375,33.449909375000004,47.42920234375,33.846809375,47.42920234375C34.243809375,47.42920234375,34.640709375,47.22930234375,34.839109375,47.02940234375C35.037609375,46.829402343750004,35.236109375,46.42950234375,35.236109375,46.02970234375C35.236109375,45.62980234375,35.037609375,45.22990234375,34.839109375,45.03000234375L34.753009375000005,44.94320234375C34.163009375,44.348802343749995,33.187909375000004,44.39740234375,32.659909375,45.04750234375ZM39.205209374999995,30.63440234375Q39.205209374999995,30.434502343749998,39.205209374999995,30.63440234375C37.833809375,29.14650234375,35.465909374999995,29.20110234375,33.775609375,30.31360234375C32.345209374999996,31.25510234375,30.571309375,32.034002343750004,28.686909375,32.034002343750004C26.711409375000002,32.034002343750004,24.932539374999998,31.24150234375,23.546069375000002,29.45940234375C23.533449375,29.443202343750002,23.521319375,29.42620234375,23.509979375,29.40910234375C23.288719375,29.074702343749998,23.332599375,28.63090234375,23.615059375,28.34640234375L29.679209375,22.23700234375C30.118609375,21.79435234375,30.118609375,21.08014234375,29.679209375,20.63749234375Q27.099209375,18.03829334375,23.725459375,18.03829334375C21.874829375,18.03829334375,20.024199375000002,18.73372234375,18.334499375,20.28671234375C18.087839375,20.51341234375,17.839599375,20.74416234375,17.605279375,20.98360234375C16.290351375,22.32722234375,15.787109375,23.98158234375,15.787109375,25.63595234375C15.787109375,27.96620234375,17.035189375,30.12890234375,18.184459375,31.68960234375C18.937889375,32.71280234375,20.499949375,32.69700234375,21.290129375,31.70190234375C21.325989375,31.65670234375,21.359739375,31.60910234375,21.393849375000002,31.562502343749998C21.804549375,31.002702343750002,22.558709375,30.63440234375,23.130079375,30.63440234375C23.923919375,30.63440234375,24.519289375,30.83430234375,25.114669375,31.23420234375C25.710039375,31.63410234375,26.107009375,32.43390234375,26.107009375,33.03370234375C26.107009375,33.14410234375,26.197309375,33.23310234375,26.307509375000002,33.24070234375C26.808709375,33.275202343749996,27.394209375000003,33.43570234375,27.766209375000003,33.72220234375C27.855809375,33.79110234375,27.942309375,33.86360234375,28.029909375000003,33.93500234375C28.548509375000002,34.35800234375,28.885409375000002,35.08030234375,28.885409375000002,35.632902343750004C28.885409375000002,35.74330234375,28.975709375,35.83230234375,29.085909375,35.83990234375C29.594209375,35.87490234375,30.189309375,36.03950234375,30.560309375,36.33360234375C30.637109375,36.39450234375,30.712509375,36.45790234375,30.789309375000002,36.51890234375C30.796409375,36.52450234375,30.803409375,36.53020234375,30.810509375000002,36.53600234375C31.559909375,37.14900234375,32.761509375,38.00810234375,33.546609375,38.574702343750005C33.608309375000005,38.619202343750004,33.668609375,38.667302343749995,33.727109375,38.71900234375C33.808109375,38.79040234375,33.890109375,38.85800234375,33.974209375,38.92580234375C34.498109375,39.34770234375,34.839109375,40.07540234375,34.839109375,40.63130234375C34.839109375,40.63730234375,34.839109375,40.64330234375,34.839109375,40.64930234375C34.839109375,41.72250234375,34.984309374999995,42.97690234375,35.740409375,43.73860234375L35.831409375,43.83030234375C36.029909375,44.03030234375,36.426809375000005,44.23020234375,36.823709375,44.23020234375C37.220609374999995,44.23020234375,37.617609375,44.03030234375,37.816009375,43.83030234375C38.014509375,43.63040234375,38.212909374999995,43.230502343750004,38.212909374999995,42.83060234375C38.212909374999995,42.43080234375,38.014509375,42.03090234375,37.816009375,41.83100234375L37.720809375,41.73510234375C37.651409375,41.66510234375,37.583509375,41.595402343749996,37.515409375000004,41.52400234375L33.346309375000004,37.15580234375C32.888809375,36.67640234375,32.192809374999996,35.91850234375,32.650209375,35.439002343750005C32.652109374999995,35.437002343749995,32.654109375000004,35.43490234375,32.656109375,35.43290234375C32.838509375,35.249102343749996,33.188809375000005,35.23430234375,33.552509375,35.388502343750005C33.616009375000004,35.41540234375,33.686309375,35.423602343750005,33.749609375,35.45090234375Q33.766309375,35.45810234375,33.780109374999995,35.46820234375C33.871809375,35.53510234375,33.890609375,35.678702343750004,33.968909374999996,35.76080234375L37.746609375,39.71890234375C38.452309375,40.45830234375,39.359509375,41.35400234375,40.335409375,41.05010234375C40.495709375000004,41.000202343750004,40.650009374999996,40.92720234375,40.792909375,40.83130234375C41.317909375,40.47860234375,41.380009375,39.815002343749995,41.115109375,39.25180234375C41.042509375,39.09750234375,40.930909375,38.97090234375,40.810809375000005,38.84990234375C40.798909375,38.83790234375,40.787009375,38.82580234375,40.775309375,38.81350234375L36.521609375,34.35670234375C36.064109375,33.87730234375,35.368209375,33.11940234375,35.825509374999996,32.63990234375C35.827509375000005,32.637802343749996,35.829409375,32.63580234375,35.831409375,32.63380234375C36.029909375,32.43390234375,36.426809375000005,32.43390234375,36.625309375,32.43390234375C36.780609375,32.43390234375,36.814309375,32.43390234375,36.916809375,32.52970234375C36.988809375,32.59700234375,37.056209375,32.66950234375,37.124309374999996,32.74080234375L41.873209375,37.716402343750005C41.944109375,37.79070234375,41.961509375,37.91270234375,42.035309375,37.984102343749996Q42.047709375,37.996102343749996,42.063009375,38.005102343749996C42.131509375,38.04520234375,42.216009375,38.056302343750005,42.284209375,38.09680234375C42.845609374999995,38.430002343750004,43.406909375,38.39770234375,43.968209375,37.83220234375C44.166709374999996,37.63230234375,44.365209375,37.232402343749996,44.365209375,36.83250234375C44.365209375,36.558602343749996,44.272009374999996,36.28470234375,44.149609375,36.07500234375C44.048209375,35.90140234375,43.900309375,35.75870234375,43.764509375,35.61050234375L39.205209374999995,30.63440234375Z" fill="url(#master_svg3_9503_62128)" fill-opacity="1" style="mix-blend-mode:passthrough"/></g><g><path d="M28.641473428344725,31.07635908203125L28.684973428344726,31.076559082031253L28.686873428344725,31.076559082031253Q32.64807342834473,31.076559082031253,36.54407342834473,26.745979082031248Q36.54997342834473,26.73942908203125,36.556273428344724,26.73308908203125Q36.66237342834472,26.62618908203125,36.812973428344726,26.62821908203125Q36.96367342834473,26.63025908203125,37.06687342834473,26.74000908203125L40.07377342834472,29.93765908203125Q41.727973428344725,31.69665908203125,44.00847342834473,31.62035908203125Q46.45197342834473,31.538659082031252,47.343773428344726,29.35225908203125Q47.90997342834473,27.96385908203125,47.97447342834473,26.58715908203125L47.989773428344726,26.255059082031252L48.00337342834472,25.921279082031248Q48.114773428344726,22.845899082031252,45.37467342834473,20.02818908203125L45.27797342834472,19.92885908203125L45.180673428344726,19.82927908203125Q41.766073428344725,16.345083082031252,37.570673428344726,17.47457108203125Q35.29547342834473,18.08707408203125,33.59557342834472,19.66614908203125Q33.55017342834473,19.70830908203125,33.47977342834473,19.78082908203125L27.523273428344726,25.91822908203125Q26.189173428344727,27.29275908203125,26.421873428344725,29.06555908203125Q26.53587342834473,29.93425908203125,27.07887342834473,30.47125908203125Q27.682373428344725,31.06815908203125,28.641473428344725,31.07635908203125ZM23.878783428344725,29.164959082031253Q23.69749342834473,28.891059082031248,23.928923428344724,28.65785908203125L29.993073428344726,22.54853908203125Q30.450973428344724,22.08722908203125,30.450973428344724,21.43723908203125Q30.450973428344724,20.787259082031248,29.993073428344726,20.32594908203125Q27.283373428344724,17.59605808203125,23.725463428344725,17.59605808203125Q20.608493428344726,17.59605808203125,18.035243428344728,19.96109908203125Q17.557113428344728,20.40054908203125,17.289223428344727,20.67427908203125Q15.344873428344727,22.661049082031248,15.344873428344727,25.63594908203125Q15.344873428344727,28.57915908203125,17.828353428344727,31.951759082031252Q18.523413428344725,32.89575908203125,19.723853428344725,32.89475908203125Q20.90825342834473,32.89385908203125,21.636443428344727,31.97685908203125Q21.669663428344727,31.935059082031252,21.727343428344724,31.85575908203125Q21.742943428344727,31.834259082031252,21.750433428344728,31.824059082031248Q22.298773428344727,31.076559082031253,23.130083428344726,31.076559082031253Q24.086883428344727,31.076559082031253,24.868103428344725,31.60125908203125Q25.211233428344727,31.831759082031247,25.444073428344726,32.26735908203125Q25.664773428344727,32.68025908203125,25.664773428344727,33.03365908203125Q25.664773428344727,33.63965908203125,26.27707342834473,33.68185908203125Q27.05897342834473,33.73565908203125,27.496373428344725,34.07245908203125Q27.559273428344724,34.12095908203125,27.687173428344728,34.22595908203125Q27.728973428344727,34.260259082031254,27.750373428344727,34.27765908203125Q28.443073428344725,34.84275908203125,28.443073428344725,35.632859082031246Q28.443073428344725,36.238859082031254,29.055473428344726,36.28105908203125Q29.851273428344726,36.33585908203125,30.285573428344726,36.68015908203125Q30.322273428344726,36.70925908203125,30.397473428344725,36.77065908203125Q30.474273428344727,36.83335908203125,30.514173428344726,36.86505908203125L30.53287342834473,36.88015908203125Q31.223673428344725,37.44525908203125,33.06947342834472,38.77575908203125Q33.21907342834473,38.88365908203125,33.28777342834473,38.93325908203125Q33.363273428344726,38.98765908203125,33.43457342834473,39.05055908203125Q33.544773428344726,39.14775908203125,33.69677342834473,39.27015908203125Q34.396873428344726,39.83385908203125,34.396873428344726,40.63125908203125L34.396873428344726,40.64925908203125Q34.39667342834473,43.01265908203125,35.42647342834473,44.050059082031254L35.517573428344726,44.141859082031246Q36.04417342834473,44.67245908203125,36.823673428344726,44.67245908203125Q37.603173428344725,44.67245908203125,38.12987342834472,44.141859082031246Q38.655173428344725,43.61265908203125,38.655173428344725,42.83055908203125Q38.655173428344725,42.04855908203125,38.12987342834472,41.51935908203125L38.03467342834473,41.42345908203125Q37.93457342834473,41.32265908203125,37.835373428344724,41.21865908203125L33.66617342834473,36.85045908203125Q32.79097342834473,35.93345908203125,32.96987342834473,35.74445908203125L32.96987342834473,35.74445908203125Q33.05607342834473,35.658359082031254,33.37987342834472,35.79555908203125Q33.42757342834473,35.81585908203125,33.497873428344725,35.836059082031255Q33.57007342834473,35.98335908203125,33.648973428344725,36.066059082031245L37.42667342834473,40.02415908203125Q38.186473428344726,40.82025908203125,38.702073428344725,41.14865908203125Q39.62277342834473,41.735159082031245,40.46687342834473,41.47225908203125Q40.773973428344725,41.37665908203125,41.03947342834473,41.198359082031246Q41.575973428344724,40.83795908203125,41.68607342834473,40.19505908203125Q41.782573428344726,39.631859082031255,41.51527342834473,39.06355908203125Q41.39757342834473,38.81325908203125,41.12467342834473,38.53835908203125Q41.10967342834473,38.523259082031245,41.095273428344726,38.50815908203125L36.84157342834473,34.05125908203125Q35.96627342834473,33.13425908203125,36.14527342834472,32.945359082031246L36.14527342834472,32.945359082031246Q36.21477342834473,32.87605908203125,36.62527342834473,32.87605908203125L36.639173428344726,32.87605908203125Q36.68877342834473,32.92455908203125,36.77237342834472,33.01245908203125Q36.79377342834472,33.03495908203125,36.804373428344725,33.04605908203125L41.55317342834473,38.02175908203125L41.54957342834473,38.032259082031246Q41.63027342834472,38.20755908203125,41.72767342834473,38.30185908203125Q41.778273428344725,38.35085908203125,41.839673428344724,38.38675908203125Q41.91297342834473,38.42965908203125,42.03207342834473,38.46965908203125Q42.03837342834473,38.471759082031255,42.043673428344725,38.47365908203125Q42.05947342834473,38.47895908203125,42.06607342834472,38.481559082031254Q43.25267342834473,39.18075908203125,44.28207342834473,38.14365908203125Q44.807373428344725,37.614459082031246,44.807373428344725,36.83245908203125Q44.807373428344725,36.32435908203125,44.53137342834472,35.85195908203125Q44.42367342834473,35.66755908203125,44.163573428344726,35.390159082031246Q44.114073428344724,35.33725908203125,44.090573428344726,35.311659082031255L39.640173428344724,30.45445908203125Q39.62827342834473,30.39005908203125,39.598273428344726,30.33185908203125Q39.56837342834473,30.27365908203125,39.52277342834473,30.22665908203125Q39.47717342834473,30.17955908203125,39.419973428344726,30.14785908203125Q39.36267342834473,30.11605908203125,39.29867342834473,30.10215908203125Q38.22987342834473,29.11155908203125,36.62507342834473,29.056859082031252Q34.96667342834473,29.00025908203125,33.53247342834473,29.94415908203125Q31.029273428344727,31.59165908203125,28.686873428344725,31.59165908203125Q25.765273428344727,31.59165908203125,23.89511342834473,29.18775908203125Q23.886863428344725,29.177159082031253,23.878783428344725,29.164959082031253ZM36.21527342834473,26.45020908203125Q32.45107342834473,30.63435908203125,28.686873428344725,30.63435908203125Q28.666073428344724,30.63435908203125,28.645273428344726,30.63415908203125C26.471973428344725,30.615359082031247,26.326873428344726,27.785759082031248,27.840573428344726,26.22621908203125L33.79717342834473,20.08882908203125C33.830273428344725,20.05472908203125,33.861773428344726,20.02250908203125,33.89657342834472,19.99015908203125C34.48927342834473,19.43960908203125,39.751973428344726,14.92179908203125,44.86437342834473,20.13838908203125C44.92837342834473,20.20368908203125,44.99387342834473,20.27094908203125,45.05767342834473,20.33649908203125C46.69357342834473,22.018759082031252,47.63497342834473,23.87434908203125,47.561473428344726,25.90327908203125C47.55337342834473,26.12634908203125,47.54317342834473,26.34349908203125,47.53267342834473,26.56646908203125C47.489073428344724,27.49865908203125,47.26397342834473,28.37675908203125,46.934273428344724,29.18525908203125C45.85777342834473,31.82455908203125,42.348673428344725,31.71115908203125,40.39597342834473,29.63465908203125L37.38897342834473,26.43705908203125C37.07997342834473,26.10843908203125,36.560173428344726,26.10141908203125,36.24237342834473,26.421569082031247C36.23297342834473,26.43098908203125,36.22417342834473,26.44033908203125,36.21527342834473,26.45020908203125ZM38.83687342834473,30.28965908203125C38.93107342834473,30.36545908203125,39.02197342834472,30.447059082031252,39.10927342834472,30.53435908203125C39.14177342834473,30.56695908203125,39.17377342834473,30.60025908203125,39.20517342834472,30.63435908203125L39.647473428344725,31.11705908203125L43.76447342834473,35.610459082031255C43.900273428344725,35.75865908203125,44.048173428344725,35.90135908203125,44.14957342834472,36.07495908203125C44.27197342834472,36.284659082031254,44.365173428344725,36.55855908203125,44.365173428344725,36.83245908203125C44.365173428344725,37.23235908203125,44.16667342834472,37.632259082031254,43.96817342834473,37.832159082031254C43.406873428344724,38.397659082031254,42.84557342834472,38.429959082031246,42.28417342834473,38.096759082031255C42.215973428344725,38.05625908203125,42.13147342834473,38.04515908203125,42.062973428344726,38.00505908203125Q42.04767342834472,37.99605908203125,42.03527342834472,37.98405908203125C41.961473428344725,37.912659082031254,41.94407342834472,37.790659082031254,41.87317342834473,37.716359082031246L37.12427342834472,32.740759082031246C37.05617342834473,32.66945908203125,36.98877342834473,32.59695908203125,36.916773428344726,32.52965908203125C36.81427342834473,32.43385908203125,36.780573428344724,32.43385908203125,36.62527342834473,32.43385908203125C36.42677342834473,32.43385908203125,36.02987342834473,32.43385908203125,35.831373428344726,32.63375908203125C35.829373428344724,32.63575908203125,35.82747342834473,32.63775908203125,35.82547342834472,32.63985908203125C35.368173428344726,33.11935908203125,36.06407342834473,33.87725908203125,36.52157342834472,34.35665908203125L40.775273428344725,38.81345908203125C40.78697342834472,38.825759082031254,40.79887342834473,38.83785908203125,40.81077342834473,38.84985908203125C40.930873428344725,38.970859082031254,41.04247342834473,39.09745908203125,41.11507342834473,39.25175908203125C41.37997342834473,39.81495908203125,41.317873428344726,40.47855908203125,40.79287342834473,40.83125908203125C40.64997342834472,40.92715908203125,40.49567342834473,41.000159082031246,40.335373428344724,41.050059082031254C39.35947342834473,41.35395908203125,38.452273428344725,40.45825908203125,37.74657342834473,39.71885908203125L33.96887342834472,35.76075908203125C33.89057342834472,35.678659082031245,33.871773428344724,35.53505908203125,33.78007342834472,35.46815908203125Q33.766273428344725,35.458059082031255,33.749573428344725,35.45085908203125C33.68627342834473,35.42355908203125,33.61597342834473,35.41535908203125,33.552473428344726,35.38845908203125C33.18877342834473,35.23425908203125,32.83847342834473,35.24905908203125,32.656073428344726,35.43285908203125C32.65407342834473,35.43485908203125,32.65207342834473,35.43695908203125,32.65017342834473,35.438959082031246C32.19277342834472,35.91845908203125,32.88877342834473,36.676359082031254,33.34627342834473,37.15575908203125L37.51537342834473,41.523959082031254C37.58347342834473,41.59535908203125,37.651373428344726,41.66505908203125,37.72077342834473,41.73505908203125L37.815973428344726,41.83095908203125C38.01447342834473,42.03085908203125,38.21287342834472,42.43075908203125,38.21287342834472,42.83055908203125C38.21287342834472,43.230459082031246,38.01447342834473,43.63035908203125,37.815973428344726,43.83025908203125C37.61757342834473,44.03025908203125,37.22057342834472,44.23015908203125,36.823673428344726,44.23015908203125C36.42677342834473,44.23015908203125,36.02987342834473,44.03025908203125,35.831373428344726,43.83025908203125L35.740373428344725,43.73855908203125C34.98427342834472,42.976859082031254,34.839073428344726,41.72245908203125,34.839073428344726,40.64925908203125L34.839073428344726,40.63125908203125C34.839073428344726,40.075359082031255,34.498073428344725,39.34765908203125,33.97417342834473,38.92575908203125C33.89007342834473,38.85795908203125,33.80807342834473,38.79035908203125,33.727073428344724,38.71895908203125C33.66857342834473,38.66725908203125,33.60827342834473,38.619159082031246,33.54657342834473,38.574659082031246C32.76147342834473,38.00805908203125,31.559873428344726,37.148959082031254,30.81047342834473,36.535959082031255C30.803373428344727,36.53015908203125,30.796373428344726,36.52445908203125,30.78927342834473,36.51885908203125C30.712473428344726,36.45785908203125,30.637073428344728,36.39445908203125,30.56027342834473,36.33355908203125C30.189273428344727,36.03945908203125,29.594173428344725,35.87485908203125,29.085873428344726,35.83985908203125C28.975673428344727,35.83225908203125,28.885373428344728,35.74325908203125,28.885373428344728,35.632859082031246C28.885373428344728,35.08025908203125,28.548473428344728,34.35795908203125,28.02987342834473,33.93495908203125C27.942273428344727,33.86355908203125,27.855773428344726,33.79105908203125,27.76617342834473,33.722159082031254C27.39417342834473,33.43565908203125,26.808673428344726,33.27515908203125,26.30747342834473,33.24065908203125C26.197273428344726,33.23305908203125,26.106973428344727,33.14405908203125,26.106973428344727,33.03365908203125C26.106973428344727,32.65625908203125,25.949773428344727,32.19975908203125,25.684973428344726,31.81345908203125C25.528973428344727,31.585759082031252,25.335453428344728,31.38245908203125,25.114673428344727,31.234159082031248C24.805323428344728,31.026459082031252,24.495963428344727,30.872659082031248,24.158793428344726,30.77275908203125C23.847023428344727,30.68055908203125,23.511443428344727,30.63435908203125,23.130083428344726,30.63435908203125C22.558703428344728,30.63435908203125,21.804553428344725,31.00265908203125,21.393843428344727,31.56245908203125C21.35974342834473,31.60905908203125,21.325993428344727,31.65665908203125,21.290133428344728,31.70185908203125C20.499953428344725,32.69695908203125,18.937893428344726,32.71275908203125,18.184463428344728,31.689559082031252C17.035193428344726,30.128859082031248,15.787109428344726,27.96615908203125,15.787109428344726,25.63594908203125C15.787109428344726,23.98157908203125,16.290351428344728,22.32721908203125,17.605283428344727,20.98359908203125C17.839603428344727,20.74415908203125,18.087843428344726,20.51340908203125,18.334503428344725,20.28670908203125C20.024203428344727,18.73371908203125,21.874823428344726,18.03829408203125,23.725463428344725,18.03829408203125Q27.099173428344727,18.03829408203125,29.679173428344725,20.63748908203125C30.118573428344725,21.080139082031252,30.118573428344725,21.79434908203125,29.679173428344725,22.23699908203125L23.615063428344726,28.34635908203125C23.332603428344726,28.63085908203125,23.288723428344728,29.07465908203125,23.509983428344725,29.40905908203125C23.52132342834473,29.426159082031248,23.53345342834473,29.44315908203125,23.546073428344727,29.45935908203125C23.817463428344727,29.80815908203125,24.103893428344726,30.11905908203125,24.403883428344727,30.39355908203125C24.892363428344726,30.84055908203125,25.416773428344726,31.190859082031253,25.970873428344724,31.45095908203125C26.814873428344725,31.84715908203125,27.727673428344726,32.03395908203125,28.686873428344725,32.03395908203125C30.571273428344725,32.03395908203125,32.34517342834472,31.255059082031252,33.77557342834473,30.31355908203125C35.322973428344724,29.295159082031248,37.43807342834472,29.16325908203125,38.83687342834473,30.28965908203125ZM25.022513428344727,34.35395908203125L25.03007342834473,34.346459082031245L25.031613428344727,34.34485908203125Q25.358473428344727,34.015559082031245,25.358473428344727,33.43345908203125Q25.358473428344727,32.85135908203125,24.833163428344726,32.32215908203125Q24.306523428344725,31.791659082031252,23.328543428344727,31.791659082031252Q23.26355342834473,31.791659082031252,23.192633428344728,31.80315908203125Q22.528743428344725,31.91085908203125,21.773803428344728,32.87915908203125Q21.703423428344728,32.96945908203125,21.669093428344727,33.01265908203125L19.355213428344726,35.92655908203125Q19.339313428344727,35.946659082031246,19.306723428344725,35.98745908203125Q18.815333428344726,36.60325908203125,18.704803428344725,37.022659082031254Q18.466483428344727,37.92685908203125,19.02416342834473,38.550059082031254Q19.252353428344726,38.80505908203125,19.543093428344726,38.97755908203125Q20.384093428344727,39.47655908203125,21.147803428344726,38.84665908203125Q21.363803428344728,38.66855908203125,21.386593428344725,38.38965908203125L24.078143428344724,35.000159082031246Q24.156063428344726,34.901959082031254,24.465643428344727,34.73365908203125Q24.848883428344728,34.52535908203125,25.022513428344727,34.35395908203125ZM24.916213428344726,33.43345908203125C24.916213428344726,33.63345908203125,24.916213428344726,33.83335908203125,24.71775342834473,34.033359082031254Q24.714773428344728,34.036359082031254,24.711803428344727,34.03925908203125C24.429463428344725,34.318059082031255,23.978553428344725,34.414359082031254,23.731803428344726,34.72505908203125L21.004023428344727,38.160259082031246C20.967123428344728,38.206759082031255,20.947043428344728,38.263859082031246,20.947043428344728,38.32245908203125C20.947043428344728,38.391859082031246,20.919953428344726,38.46135908203125,20.866443428344727,38.505559082031255C20.542343428344726,38.77275908203125,20.116183428344726,38.80335908203125,19.768733428344728,38.59725908203125C19.614603428344726,38.50575908203125,19.473223428344728,38.38875908203125,19.353713428344726,38.25515908203125C19.085453428344728,37.95535908203125,19.026423428344728,37.53755908203125,19.132433428344726,37.13535908203125C19.225883428344726,36.78085908203125,19.473533428344727,36.48875908203125,19.701533428344725,36.20165908203125L22.01543342834473,33.287659082031254C22.361353428344728,32.852059082031246,22.714363428344726,32.32875908203125,23.263453428344725,32.23965908203125C23.286853428344727,32.235859082031254,23.308693428344725,32.23385908203125,23.328543428344727,32.23385908203125C23.725463428344725,32.23385908203125,24.122363428344727,32.23385908203125,24.519293428344724,32.63375908203125C24.71775342834473,32.83365908203125,24.916213428344726,33.03365908203125,24.916213428344726,33.43345908203125ZM27.831073428344727,36.969759082031246Q27.95217342834473,36.76485908203125,27.99027342834473,36.64735908203125Q27.998273428344724,36.622559082031245,28.015173428344724,36.571459082031254Q28.136873428344728,36.20395908203125,28.136873428344728,36.032659082031245Q28.136873428344728,35.45065908203125,27.611573428344727,34.92145908203125Q27.08487342834473,34.39085908203125,26.305373428344726,34.39085908203125Q25.814073428344727,34.39085908203125,25.524173428344724,34.60935908203125Q25.293673428344725,34.78315908203125,25.270423428344728,35.07545908203125L22.397593428344727,38.69325908203125Q22.343593428344725,38.761259082031245,22.253243428344724,38.89705908203125Q22.126083428344728,39.08825908203125,22.078643428344726,39.118559082031254L22.077513428344727,39.11925908203125Q21.745213428344726,39.33155908203125,21.644923428344725,39.74665908203125Q21.448153428344725,40.56115908203125,21.817953428344726,41.13045908203125Q22.227463428344727,41.760859082031246,22.933063428344727,41.849059082031246Q23.12635342834473,41.873259082031254,23.527003428344727,41.873259082031254Q23.534583428344725,41.873259082031254,23.541973428344726,41.87315908203125Q24.187493428344727,41.86025908203125,24.859263428344725,41.014259082031245L27.572173428344726,37.597759082031246Q27.73107342834473,37.397659082031254,27.740973428344727,37.13565908203125L27.741873428344725,37.11715908203125Q27.743373428344725,37.118159082031255,27.831073428344727,36.969759082031246ZM27.694573428344725,36.032659082031245C27.694573428344725,36.15015908203125,27.626073428344725,36.33665908203125,27.569573428344725,36.51105908203125C27.513273428344725,36.68495908203125,27.310173428344726,36.91425908203125,27.300073428344724,37.09685908203125C27.299673428344725,37.104159082031245,27.299373428344726,37.11155908203125,27.299073428344727,37.11905908203125C27.296273428344726,37.19375908203125,27.27237342834473,37.26415908203125,27.225873428344727,37.322759082031254L24.512943428344727,40.73925908203125C24.266193428344728,41.04995908203125,23.929663428344725,41.42305908203125,23.532943428344726,41.43095908203125L23.527003428344727,41.431059082031254C23.340453428344727,41.431059082031254,23.153903428344726,41.431059082031254,22.987953428344728,41.410259082031246C22.665503428344728,41.36995908203125,22.365833428344725,41.16205908203125,22.188803428344727,40.889559082031255C21.99094342834473,40.58485908203125,21.984943428344728,40.22245908203125,22.074793428344726,39.85055908203125C22.109843428344725,39.705459082031254,22.189293428344726,39.57255908203125,22.315093428344728,39.492259082031254L22.316443428344726,39.49135908203125C22.500133428344725,39.37425908203125,22.608443428344728,39.138859082031246,22.743933428344725,38.96825908203125L25.653073428344726,35.304759082031254C25.68997342834473,35.258259082031245,25.710073428344728,35.20115908203125,25.710073428344728,35.14245908203125C25.710073428344728,35.07315908203125,25.735073428344727,35.004259082031254,25.790373428344726,34.962459082031245C25.962073428344727,34.833059082031255,26.13367342834473,34.833059082031255,26.305373428344726,34.833059082031255C26.702273428344725,34.833059082031255,26.900773428344728,34.833059082031255,27.297673428344726,35.23295908203125C27.496173428344726,35.43285908203125,27.694573428344725,35.632859082031246,27.694573428344725,36.032659082031245ZM29.918673428344725,40.547059082031254Q31.104373428344726,39.128559082031245,30.724473428344726,38.18305908203125Q30.692573428344726,38.103759082031246,30.65167342834473,38.02875908203125Q30.214473428344725,37.22765908203125,29.365173428344725,37.193459082031254Q29.278773428344728,37.18995908203125,29.083773428344728,37.18995908203125L28.885373428344728,37.18995908203125Q28.877773428344724,37.18995908203125,28.870373428344728,37.19015908203125Q28.22487342834473,37.20295908203125,27.553073428344725,38.048959082031246L24.94353342834473,41.33525908203125Q24.783573428344727,41.53675908203125,24.602343428344724,41.71935908203125Q24.275523428344727,42.04855908203125,24.275523428344727,42.83055908203125Q24.275523428344727,43.412659082031254,24.80080342834473,43.94185908203125Q25.230093428344727,44.37435908203125,25.804573428344725,44.35465908203125Q26.159173428344726,44.342459082031255,26.597173428344725,44.15015908203125Q26.861473428344727,44.03405908203125,27.076073428344728,43.86475908203125Q27.194773428344725,43.77115908203125,27.280773428344727,43.592459082031255Q27.447173428344726,43.50375908203125,27.53457342834473,43.39925908203125L29.918673428344725,40.547059082031254ZM30.263473428344724,38.24065908203125C30.282573428344726,38.27575908203125,30.299473428344726,38.31155908203125,30.314073428344727,38.34795908203125C30.581173428344727,39.012559082031245,30.038673428344726,39.71385908203125,29.579273428344727,40.26335908203125L27.195273428344727,43.115559082031254C27.134373428344727,43.18845908203125,27.026473428344726,43.21155908203125,26.955973428344727,43.27515908203125Q26.942373428344727,43.28735908203125,26.932073428344726,43.303059082031254C26.885773428344727,43.37375908203125,26.868573428344725,43.46515908203125,26.802173428344727,43.517559082031255C26.690873428344727,43.60535908203125,26.55127342834473,43.68725908203125,26.419373428344727,43.74515908203125C26.22357342834473,43.83115908203125,26.002973428344724,43.905359082031254,25.789373428344724,43.912659082031254C25.51017342834473,43.922259082031246,25.259543428344728,43.77635908203125,25.114673428344727,43.63035908203125C24.916213428344726,43.43045908203125,24.71775342834473,43.230459082031246,24.71775342834473,42.83055908203125C24.71775342834473,42.63065908203125,24.71775342834473,42.23075908203125,24.916213428344726,42.03085908203125C25.048423428344726,41.897659082031254,25.173153428344726,41.757259082031254,25.289843428344724,41.61025908203125L27.899373428344727,38.32395908203125C28.146173428344724,38.013259082031254,28.482673428344725,37.640159082031246,28.879373428344728,37.632259082031254L28.885373428344728,37.632259082031254L29.083773428344728,37.632259082031254C29.183073428344727,37.632259082031254,29.269873428344727,37.632259082031254,29.347373428344724,37.63535908203125C29.722173428344725,37.65045908203125,30.083773428344728,37.911359082031254,30.263473428344724,38.24065908203125ZM34.09047342834472,41.04745908203125L34.090573428344726,41.033359082031254L34.090573428344726,41.03115908203125Q34.090573428344726,40.449059082031255,33.565273428344724,39.91985908203125Q33.23707342834473,39.58925908203125,32.45757342834473,39.58925908203125Q31.897873428344727,39.58925908203125,31.446973428344727,40.023559082031255Q31.353073428344725,40.11395908203125,31.280773428344727,40.272259082031255Q31.111773428344726,40.36535908203125,31.024473428344727,40.47525908203125L28.000673428344726,44.28325908203125Q27.864673428344727,44.45455908203125,27.849573428344726,44.66855908203125Q27.649273428344728,44.955459082031254,27.649273428344728,45.42985908203125L27.649373428344727,45.44395908203125Q27.655773428344727,46.085759082031245,28.219973428344726,46.53975908203125Q28.722173428344725,46.94395908203125,29.33917342834473,46.950359082031255Q29.730573428344726,46.95445908203125,30.061073428344727,46.79115908203125Q30.411973428344726,46.61775908203125,30.823573428344726,46.05855908203125Q30.91577342834473,45.93325908203125,30.960573428344727,45.876859082031245L33.16237342834472,43.10405908203125Q34.081573428344726,41.946459082031254,34.09047342834472,41.04745908203125ZM33.251473428344724,40.23145908203125C33.44987342834473,40.43135908203125,33.648373428344726,40.63125908203125,33.648373428344726,41.03115908203125L33.64827342834472,41.04305908203125C33.64177342834473,41.703059082031245,33.226473428344725,42.31215908203125,32.81607342834472,42.82905908203125L30.614273428344724,45.601859082031254C30.387873428344726,45.88685908203125,30.19147342834473,46.233459082031246,29.865173428344725,46.394659082031254C29.70517342834473,46.47375908203125,29.52707342834473,46.51005908203125,29.343773428344726,46.50815908203125C28.750073428344727,46.50195908203125,28.097473428344728,46.03545908203125,28.091573428344727,45.441759082031254L28.091473428344727,45.42985908203125C28.091473428344727,45.256859082031255,28.091473428344727,45.08395908203125,28.219973428344726,44.910959082031255C28.261273428344726,44.85525908203125,28.289973428344727,44.79325908203125,28.289973428344727,44.723859082031254L28.289973428344727,44.72245908203125C28.289973428344727,44.66315908203125,28.310073428344726,44.60475908203125,28.346973428344725,44.55825908203125L31.370773428344727,40.75035908203125C31.430473428344726,40.67515908203125,31.537273428344726,40.65095908203125,31.608573428344727,40.58665908203125Q31.622973428344725,40.57365908203125,31.633573428344725,40.55685908203125C31.678073428344728,40.48675908203125,31.693873428344727,40.39965908203125,31.753773428344726,40.34205908203125C31.926273428344725,40.175959082031255,32.12017342834473,40.03145908203125,32.45757342834473,40.03145908203125C32.656073428344726,40.03145908203125,33.05297342834473,40.03145908203125,33.251473428344724,40.23145908203125ZM31.904773428344726,46.02745908203125Q31.940073428344725,46.735859082031254,32.43977342834472,47.23915908203125L32.540673428344725,47.34085908203125Q33.06727342834473,47.87145908203125,33.846773428344726,47.87145908203125Q34.62637342834473,47.87145908203125,35.15297342834472,47.34085908203125Q35.678273428344724,46.811659082031255,35.678273428344724,46.02965908203125Q35.678273428344724,45.247559082031245,35.15297342834472,44.71835908203125L35.06677342834473,44.631559082031245Q34.48537342834473,44.04585908203125,33.661173428344725,44.08695908203125Q32.83687342834473,44.12795908203125,32.316573428344725,44.76865908203125Q31.869473428344726,45.31915908203125,31.904773428344726,46.02745908203125ZM32.75357342834472,46.927659082031255C32.24657342834473,46.41685908203125,32.20617342834473,45.60605908203125,32.659873428344724,45.04745908203125C33.18787342834473,44.39735908203125,34.16297342834473,44.34875908203125,34.75297342834473,44.94315908203125L34.839073428344726,45.029959082031255C35.03757342834473,45.229859082031254,35.236073428344724,45.62975908203125,35.236073428344724,46.02965908203125C35.236073428344724,46.42945908203125,35.03757342834473,46.829359082031246,34.839073428344726,47.02935908203125C34.640673428344726,47.22925908203125,34.243773428344724,47.42915908203125,33.846773428344726,47.42915908203125C33.44987342834473,47.42915908203125,33.05297342834473,47.22925908203125,32.854473428344726,47.02935908203125L32.75357342834472,46.927659082031255Z" fill-rule="evenodd" fill="#FFFFFF" fill-opacity="1" style="mix-blend-mode:passthrough"/></g></g></g></g></svg>