<?xml version="1.0" encoding="UTF-8"?>
<svg width="68px" height="68px" viewBox="0 0 68 68" version="1.1" xmlns="http://www.w3.org/2000/svg" xmlns:xlink="http://www.w3.org/1999/xlink">
    <title>bg-3d-tingdian</title>
    <g id="页面-1" stroke="none" stroke-width="1" fill="none" fill-rule="evenodd">
        <g id="3D交互切图10.27" transform="translate(-604.000000, -643.000000)">
            <g id="编组-18" transform="translate(604.000000, 643.000000)">
                <g id="编组-12" transform="translate(0.000000, 0.000000)">
                    <g id="编组">
                        <circle id="椭圆形" stroke="#FFFFFF" stroke-width="0.5" fill="#454545" cx="34" cy="34" r="33.75"></circle>
                        <g id="断电" transform="translate(17.000000, 7.285714)"></g>
                    </g>
                    <path d="M22.7836151,30.3323986 L39.1474628,47.7998697 L31.7031604,60.2634867 C31.4870672,60.6278696 31.0713014,60.7959714 30.6831997,60.6758758 C30.295098,60.5557803 30.0280979,60.1764008 30.0281923,59.7451785 L30.0281923,38.1506177 L19.7695804,38.1506177 C19.4385724,38.15067 19.1337726,37.9584643 18.9741449,37.6490188 C18.8145171,37.3395732 18.8253648,36.9619398 19.0024541,36.6635091 L22.7836151,30.3323986 L22.7836151,30.3323986 Z M37.5542005,7.43964524 C37.8139886,7.61751265 37.9712935,7.92405311 37.9718077,8.25343758 L37.9718077,29.8479984 L48.2304196,29.8479984 C48.5614276,29.8479461 48.8662274,30.0401518 49.0258551,30.3495973 C49.1854829,30.6590429 49.1746352,31.0366763 48.9975459,31.335107 L44.848709,38.2668738 L28.4803221,20.8042467 L36.2968396,7.73512936 C36.4263971,7.51743616 36.631941,7.36384975 36.8679457,7.30838783 C37.1039504,7.25292592 37.3509369,7.30016612 37.5542005,7.43964524 L37.5542005,7.43964524 Z M17.7632501,17.6265814 C18.7994098,16.5980295 20.4099245,16.6193527 21.4218524,17.6750214 L50.2730635,47.6545496 C51.1053733,48.5213301 51.2390271,49.898711 50.5908081,50.9290949 L50.2367499,51.3747431 C49.2017941,52.4046297 47.5912952,52.385439 46.5781476,51.3311471 L17.7269365,21.3564629 C16.8946267,20.4896824 16.7609729,19.1123015 17.4091919,18.0819176 L17.7632501,17.6362694 L17.7632501,17.6265814 Z" id="形状" fill="#FFFFFF" fill-rule="nonzero"></path>
                </g>
                <g id="#meaxure-overlay-B39E6430-C336-44B7-B8D1-79454743EE43" transform="translate(0.000000, 0.000000)"></g>
            </g>
        </g>
    </g>
</svg>